<svg xmlns="http://www.w3.org/2000/svg" xmlns:xlink="http://www.w3.org/1999/xlink" width="616" height="210" viewBox="0 0 616 210"><defs><style>.a{fill:#fff;}.b,.c{fill:none;}.c{stroke:rgba(0,0,0,0);stroke-miterlimit:10;}.d{clip-path:url(#a);}.e{opacity:0.4;fill:url(#b);}.f,.g,.n{opacity:0.05;}.f{fill:url(#c);}.g{fill:url(#d);}.h{opacity:0.3;}.i{clip-path:url(#e);}.j{fill:url(#f);}.k{clip-path:url(#g);}.l{clip-path:url(#i);}.m{clip-path:url(#k);}.n{fill:#00c7db;}</style><clipPath id="a"><rect class="a" width="616" height="210" rx="4" transform="translate(192 64)"/></clipPath><linearGradient id="b" x1="1.588" y1="0.606" x2="0.149" y2="0.479" gradientUnits="objectBoundingBox"><stop offset="0" stop-color="#00c7db"/><stop offset="1" stop-color="#fff"/></linearGradient><linearGradient id="c" x1="-0.016" y1="0.763" x2="0.694" y2="0.459" xlink:href="#b"/><linearGradient id="d" x1="0.154" y1="0.686" x2="0.91" y2="0.405" xlink:href="#b"/><clipPath id="e"><path class="b" d="M2.179,36.866C5.957,43.087,13.9,47.723,25.294,50.519h0c.329.075.657.159.987.234h0q-.5-.227-.987-.469h0C17.048,46.3,11.534,41.224,9.666,35.43h0c-2.829-8.852,3.1-18.61,15.627-27.116h0V0C4.359,11.79-4.475,25.906,2.179,36.866"/></clipPath><linearGradient id="f" x1="0.5" y1="0.839" x2="0.89" y2="0.063" gradientUnits="objectBoundingBox"><stop offset="0" stop-color="#00c7db"/><stop offset="1" stop-color="#26e0f3"/></linearGradient><clipPath id="g"><path class="b" d="M0,13.677C8.833,17.535,14.733,22.79,16.343,29.4h0C19.1,40.713.863,56.914.329,57.387h0c22.442-9.87,30.358-23.533,30.415-33.648h0v-.227a15,15,0,0,0-3.422-9.9h0C21.873,7.415,12.334,2.868,0,0H0Z"/></clipPath><clipPath id="i"><path class="c" d="M.6.794a1.952,1.952,0,0,0-.269.534h0A2.571,2.571,0,0,0,.191,2.372h0L0,2.32V118.36a2.568,2.568,0,0,0,.222,1.052h0a2.169,2.169,0,0,0,.314.51h0a1.651,1.651,0,0,0,1.257.63h0a1.442,1.442,0,0,0,.375-.052h0l41.58-10.751a1.146,1.146,0,0,0,.3-.112h0a1.685,1.685,0,0,0,.514-.389h0a2.385,2.385,0,0,0,.612-1.639h0V94.4A72.779,72.779,0,0,1,11.051,76.891h0C20,81.309,31.83,84,45.173,84.544h0V52.79a2.522,2.522,0,0,1,.314-1.242h0a1.753,1.753,0,0,1,.222-.319h0a1.023,1.023,0,0,1,.131-.139h0a1.488,1.488,0,0,1,.283-.233h0a1.985,1.985,0,0,1,.322-.164h0a1.581,1.581,0,0,1,.521-.1h0a1.4,1.4,0,0,1,.49.087h0L53.78,52.86a1.421,1.421,0,0,0,.491.086h0a1.45,1.45,0,0,0,.52-.1h0a1.383,1.383,0,0,0,.322-.164h0a1.93,1.93,0,0,0,.284-.233h0a2.358,2.358,0,0,0,.667-1.7h0V14.435a2.119,2.119,0,0,0-1.456-2.148h0l-7.68-1.8H46.92L2.322.043A1.574,1.574,0,0,0,1.977,0h0A1.668,1.668,0,0,0,.6.794"/></clipPath><clipPath id="k"><path class="b" d="M63.6,0a1.558,1.558,0,0,0-.637.145h0L11.942,23.983,9.961,24.8v.1L5.046,27.2l-.009.008L1.145,29.027A2.213,2.213,0,0,0,0,31.066H0V69.818a2.417,2.417,0,0,0,.531,1.558h0a1.627,1.627,0,0,0,.3.284h0a1.552,1.552,0,0,0,.16.113h0a1.59,1.59,0,0,0,.2.095h0a.914.914,0,0,0,.191.077h0a1.853,1.853,0,0,0,.2.035h0a1.394,1.394,0,0,0,.189.026h.038A1.559,1.559,0,0,0,2,71.988H2c.076-.018.16-.035.234-.053h0l5.486-1.8a1.455,1.455,0,0,1,.463-.078h0a1.524,1.524,0,0,1,.516.1h0a1.993,1.993,0,0,1,.318.163h0a1.4,1.4,0,0,1,.281.232h0a1,1,0,0,1,.129.137h0a1.727,1.727,0,0,1,.22.318h0a2.52,2.52,0,0,1,.311,1.239h0v30.673c21-3.546,38.947-11.473,50.32-21.188h0c-8.733,13.416-26.4,30.12-49.728,33.538h0c-.2.023-.394.059-.592.084h0v17.9a2.186,2.186,0,0,0,1.215,2.066h0l51.844,21.488a1.556,1.556,0,0,0,.577.12h0a2.014,2.014,0,0,0,1.775-2.186h0V2.185A2.375,2.375,0,0,0,64.834.627h0a1.7,1.7,0,0,0-.258-.266h0A1.548,1.548,0,0,0,63.6,0Z"/></clipPath></defs><g class="d" transform="translate(-192 -64)"><path class="e" d="M287.224,29.918c112.047-70.149,179.868,2.173,179.155,42.8S422.634,201.064,334.686,202.794-40.07,168.523,4.893,78.5,175.177,100.067,287.224,29.918Z" transform="translate(389.856 168.366) rotate(-9)"/><path class="f" d="M262.642,312.635c143.523,151.991,272.175-68.459,274.091-113.128S269.061-24.906,199.187,3.866s-243.5,164.52-187.556,223.665S119.119,160.644,262.642,312.635Z" transform="translate(752.674 304.609) rotate(156)"/><ellipse class="g" cx="15.5" cy="17.83" rx="15.5" ry="17.83" transform="translate(786 218.528)"/><g class="h" transform="translate(604.563 145.423)"><g transform="translate(0 46.574)"><path class="b" d="M2.179,36.866C5.957,43.087,13.9,47.723,25.294,50.519h0c.329.075.657.159.987.234h0q-.5-.227-.987-.469h0C17.048,46.3,11.534,41.224,9.666,35.43h0c-2.829-8.852,3.1-18.61,15.627-27.116h0V0C4.359,11.79-4.475,25.906,2.179,36.866" transform="translate(0 0)"/><g class="i" transform="translate(0 0)"><path class="j" d="M2.179,36.866C5.957,43.087,13.9,47.723,25.294,50.519h0c.329.075.657.159.987.234h0q-.5-.227-.987-.469h0C17.048,46.3,11.534,41.224,9.666,35.43h0c-2.829-8.852,3.1-18.61,15.627-27.116h0V0C4.359,11.79-4.475,25.906,2.179,36.866"/></g></g><g transform="translate(165.178 31.067)"><path class="b" d="M0,13.677C8.833,17.535,14.733,22.79,16.343,29.4h0C19.1,40.713.863,56.914.329,57.387h0c22.442-9.87,30.358-23.533,30.415-33.648h0v-.227a15,15,0,0,0-3.422-9.9h0C21.873,7.415,12.334,2.868,0,0H0Z" transform="translate(0 0)"/><g class="k" transform="translate(0 0)"><path class="j" d="M0,13.677C8.833,17.535,14.733,22.79,16.343,29.4h0C19.1,40.713.863,56.914.329,57.387h0c22.442-9.87,30.358-23.533,30.415-33.648h0v-.227a15,15,0,0,0-3.422-9.9h0C21.873,7.415,12.334,2.868,0,0H0Z"/></g></g><g transform="translate(31.03 20.082)"><path class="c" d="M.6.794a1.952,1.952,0,0,0-.269.534h0A2.571,2.571,0,0,0,.191,2.372h0L0,2.32V118.36a2.568,2.568,0,0,0,.222,1.052h0a2.169,2.169,0,0,0,.314.51h0a1.651,1.651,0,0,0,1.257.63h0a1.442,1.442,0,0,0,.375-.052h0l41.58-10.751a1.146,1.146,0,0,0,.3-.112h0a1.685,1.685,0,0,0,.514-.389h0a2.385,2.385,0,0,0,.612-1.639h0V94.4A72.779,72.779,0,0,1,11.051,76.891h0C20,81.309,31.83,84,45.173,84.544h0V52.79a2.522,2.522,0,0,1,.314-1.242h0a1.753,1.753,0,0,1,.222-.319h0a1.023,1.023,0,0,1,.131-.139h0a1.488,1.488,0,0,1,.283-.233h0a1.985,1.985,0,0,1,.322-.164h0a1.581,1.581,0,0,1,.521-.1h0a1.4,1.4,0,0,1,.49.087h0L53.78,52.86a1.421,1.421,0,0,0,.491.086h0a1.45,1.45,0,0,0,.52-.1h0a1.383,1.383,0,0,0,.322-.164h0a1.93,1.93,0,0,0,.284-.233h0a2.358,2.358,0,0,0,.667-1.7h0V14.435a2.119,2.119,0,0,0-1.456-2.148h0l-7.68-1.8H46.92L2.322.043A1.574,1.574,0,0,0,1.977,0h0A1.668,1.668,0,0,0,.6.794" transform="translate(0 0)"/><g class="l" transform="translate(0 0)"><path class="j" d="M.6.794a1.952,1.952,0,0,0-.269.534h0A2.571,2.571,0,0,0,.191,2.372h0L0,2.32V118.36a2.568,2.568,0,0,0,.222,1.052h0a2.169,2.169,0,0,0,.314.51h0a1.651,1.651,0,0,0,1.257.63h0a1.442,1.442,0,0,0,.375-.052h0l41.58-10.751a1.146,1.146,0,0,0,.3-.112h0a1.685,1.685,0,0,0,.514-.389h0a2.385,2.385,0,0,0,.612-1.639h0V94.4A72.779,72.779,0,0,1,11.051,76.891h0C20,81.309,31.83,84,45.173,84.544h0V52.79a2.522,2.522,0,0,1,.314-1.242h0a1.753,1.753,0,0,1,.222-.319h0a1.023,1.023,0,0,1,.131-.139h0a1.488,1.488,0,0,1,.283-.233h0a1.985,1.985,0,0,1,.322-.164h0a1.581,1.581,0,0,1,.521-.1h0a1.4,1.4,0,0,1,.49.087h0L53.78,52.86a1.421,1.421,0,0,0,.491.086h0a1.45,1.45,0,0,0,.52-.1h0a1.383,1.383,0,0,0,.322-.164h0a1.93,1.93,0,0,0,.284-.233h0a2.358,2.358,0,0,0,.667-1.7h0V14.435a2.119,2.119,0,0,0-1.456-2.148h0l-7.68-1.8H46.92L2.322.043A1.574,1.574,0,0,0,1.977,0h0A1.668,1.668,0,0,0,.6.794"/></g></g><path class="a" d="M.776.494C.66.458.543.421.427.383l-.005,0C.284.337.142.291,0,.248V0C.287.19.533.347.777.492Z" transform="translate(26.813 100.066)"/><g transform="translate(91.961 0)"><path class="b" d="M63.6,0a1.558,1.558,0,0,0-.637.145h0L11.942,23.983,9.961,24.8v.1L5.046,27.2l-.009.008L1.145,29.027A2.213,2.213,0,0,0,0,31.066H0V69.818a2.417,2.417,0,0,0,.531,1.558h0a1.627,1.627,0,0,0,.3.284h0a1.552,1.552,0,0,0,.16.113h0a1.59,1.59,0,0,0,.2.095h0a.914.914,0,0,0,.191.077h0a1.853,1.853,0,0,0,.2.035h0a1.394,1.394,0,0,0,.189.026h.038A1.559,1.559,0,0,0,2,71.988H2c.076-.018.16-.035.234-.053h0l5.486-1.8a1.455,1.455,0,0,1,.463-.078h0a1.524,1.524,0,0,1,.516.1h0a1.993,1.993,0,0,1,.318.163h0a1.4,1.4,0,0,1,.281.232h0a1,1,0,0,1,.129.137h0a1.727,1.727,0,0,1,.22.318h0a2.52,2.52,0,0,1,.311,1.239h0v30.673c21-3.546,38.947-11.473,50.32-21.188h0c-8.733,13.416-26.4,30.12-49.728,33.538h0c-.2.023-.394.059-.592.084h0v17.9a2.186,2.186,0,0,0,1.215,2.066h0l51.844,21.488a1.556,1.556,0,0,0,.577.12h0a2.014,2.014,0,0,0,1.775-2.186h0V2.185A2.375,2.375,0,0,0,64.834.627h0a1.7,1.7,0,0,0-.258-.266h0A1.548,1.548,0,0,0,63.6,0Z" transform="translate(0)"/><g class="m" transform="translate(0)"><path class="j" d="M63.6,0a1.558,1.558,0,0,0-.637.145h0L11.942,23.983,9.961,24.8v.1L5.046,27.2l-.009.008L1.145,29.027A2.213,2.213,0,0,0,0,31.066H0V69.818a2.417,2.417,0,0,0,.531,1.558h0a1.627,1.627,0,0,0,.3.284h0a1.552,1.552,0,0,0,.16.113h0a1.59,1.59,0,0,0,.2.095h0a.914.914,0,0,0,.191.077h0a1.853,1.853,0,0,0,.2.035h0a1.394,1.394,0,0,0,.189.026h.038A1.559,1.559,0,0,0,2,71.988H2c.076-.018.16-.035.234-.053h0l5.486-1.8a1.455,1.455,0,0,1,.463-.078h0a1.524,1.524,0,0,1,.516.1h0a1.993,1.993,0,0,1,.318.163h0a1.4,1.4,0,0,1,.281.232h0a1,1,0,0,1,.129.137h0a1.727,1.727,0,0,1,.22.318h0a2.52,2.52,0,0,1,.311,1.239h0v30.673c21-3.546,38.947-11.473,50.32-21.188h0c-8.733,13.416-26.4,30.12-49.728,33.538h0c-.2.023-.394.059-.592.084h0v17.9a2.186,2.186,0,0,0,1.215,2.066h0l51.844,21.488a1.556,1.556,0,0,0,.577.12h0a2.014,2.014,0,0,0,1.775-2.186h0V2.185A2.375,2.375,0,0,0,64.834.627h0a1.7,1.7,0,0,0-.258-.266h0A1.548,1.548,0,0,0,63.6,0Z"/></g></g></g><ellipse class="n" cx="67.5" cy="75.778" rx="67.5" ry="75.778" transform="translate(133 85.792)"/></g></svg>