<svg xmlns="http://www.w3.org/2000/svg" xmlns:xlink="http://www.w3.org/1999/xlink" width="185.058" height="54.356" viewBox="0 0 185.058 54.356"><defs><style>.a{fill:#118cdd;}.b{fill:url(#a);}.c{fill:url(#b);}.d{fill:url(#c);}</style><linearGradient id="a" x1="0.378" y1="0.109" x2="0.611" y2="0.954" gradientUnits="objectBoundingBox"><stop offset="0" stop-color="#1ba8f1"/><stop offset="1" stop-color="#118bdd"/></linearGradient><linearGradient id="b" x1="0" y1="0.5" x2="1" y2="0.5" xlink:href="#a"/><linearGradient id="c" x1="0.264" y1="0.913" x2="0.89" y2="0.063" gradientUnits="objectBoundingBox"><stop offset="0" stop-color="#00c7db"/><stop offset="1" stop-color="#26e0f3"/></linearGradient></defs><g transform="translate(-272.138 -394)"><g transform="translate(351.361 403.143)"><g transform="translate(2.733 27.329)"><path class="a" d="M484.914,489.387v7.827H483.9v-7.827Z" transform="translate(-483.904 -488.942)"/><path class="a" d="M497.5,500.552h-.985v-3.179q0-1.723-1.258-1.723a1.352,1.352,0,0,0-1.071.485,1.809,1.809,0,0,0-.42,1.228v3.189h-.99v-5.589h.99v.925h.02a2.016,2.016,0,0,1,1.834-1.056,1.7,1.7,0,0,1,1.4.589,2.659,2.659,0,0,1,.48,1.715Z" transform="translate(-489.342 -492.28)"/><path class="a" d="M509.78,499.344a2.7,2.7,0,0,0,1.612.541q1.157,0,1.157-.758a.664.664,0,0,0-.253-.533,3.964,3.964,0,0,0-1.026-.5,2.934,2.934,0,0,1-1.208-.74,1.424,1.424,0,0,1-.278-.887,1.392,1.392,0,0,1,.629-1.19,2.606,2.606,0,0,1,1.549-.447,3.5,3.5,0,0,1,1.324.247v.955a2.563,2.563,0,0,0-1.42-.4,1.325,1.325,0,0,0-.773.207.636.636,0,0,0-.3.546.653.653,0,0,0,.215.521,3.826,3.826,0,0,0,.952.48,3.218,3.218,0,0,1,1.263.723,1.352,1.352,0,0,1,.329.925,1.4,1.4,0,0,1-.629,1.21,2.773,2.773,0,0,1-1.63.442,3.311,3.311,0,0,1-1.516-.328Z" transform="translate(-499.766 -492.28)"/><path class="a" d="M525.955,498.079a1.827,1.827,0,0,1-.874.177q-1.5,0-1.5-1.663v-3.229h-.96v-.819h.96V491.2l.985-.313v1.658h1.39v.819h-1.39v3.052a1.289,1.289,0,0,0,.187.788.744.744,0,0,0,.622.237.937.937,0,0,0,.581-.187Z" transform="translate(-507.636 -489.862)"/><path class="a" d="M538.6,496a1.157,1.157,0,0,0-.682-.177,1.118,1.118,0,0,0-.95.538,2.433,2.433,0,0,0-.374,1.417v2.83h-.99v-5.589h.99v1.137h.02a1.528,1.528,0,0,1,1.465-1.233,1.4,1.4,0,0,1,.521.076Z" transform="translate(-515.595 -492.336)"/><path class="a" d="M551.589,500.76h-1v-.879h-.02a1.843,1.843,0,0,1-1.723,1.01q-1.986,0-1.986-2.375v-3.345h.98v3.2q0,1.7,1.3,1.7a1.3,1.3,0,0,0,1.046-.477,1.815,1.815,0,0,0,.4-1.205v-3.219h1Z" transform="translate(-522.498 -492.488)"/><path class="a" d="M573.01,500.552h-.99v-3.209a2.277,2.277,0,0,0-.283-1.3,1.069,1.069,0,0,0-.93-.392,1.147,1.147,0,0,0-.935.51,1.935,1.935,0,0,0-.389,1.208v3.184h-.99v-3.31q0-1.592-1.228-1.592a1.135,1.135,0,0,0-.937.485,1.98,1.98,0,0,0-.371,1.238v3.179h-.99v-5.589h.99v.884h.02a1.907,1.907,0,0,1,1.743-1.016,1.653,1.653,0,0,1,.99.308,1.586,1.586,0,0,1,.6.834,2,2,0,0,1,1.86-1.142q1.844,0,1.844,2.274Z" transform="translate(-533.594 -492.28)"/><path class="a" d="M595.319,498.011h-3.911a2.009,2.009,0,0,0,.49,1.382,1.708,1.708,0,0,0,1.3.488,2.765,2.765,0,0,0,1.723-.6v.884a3.325,3.325,0,0,1-1.956.521,2.4,2.4,0,0,1-1.893-.768,3.109,3.109,0,0,1-.68-2.132,3.058,3.058,0,0,1,.745-2.117,2.384,2.384,0,0,1,1.852-.834,2.157,2.157,0,0,1,1.713.7,2.9,2.9,0,0,1,.616,1.973Zm-.99-.794a1.774,1.774,0,0,0-.358-1.172,1.24,1.24,0,0,0-1-.414,1.386,1.386,0,0,0-1.023.44,2.036,2.036,0,0,0-.543,1.147Z" transform="translate(-549.18 -492.28)"/><path class="a" d="M612.592,500.552h-.986v-3.179q0-1.723-1.258-1.723a1.352,1.352,0,0,0-1.071.485,1.809,1.809,0,0,0-.42,1.228v3.189h-.99v-5.589h.99v.925h.021a2.016,2.016,0,0,1,1.834-1.056,1.7,1.7,0,0,1,1.4.589,2.659,2.659,0,0,1,.48,1.715Z" transform="translate(-559.892 -492.28)"/><path class="a" d="M627.332,498.079a1.827,1.827,0,0,1-.874.177q-1.5,0-1.5-1.663v-3.229H624v-.819h.96V491.2l.985-.313v1.658h1.39v.819h-1.39v3.052a1.292,1.292,0,0,0,.187.788.744.744,0,0,0,.621.237.938.938,0,0,0,.581-.187Z" transform="translate(-569.779 -489.862)"/><path class="a" d="M650.03,490.286h-2.259v6.928h-1.016v-6.928h-2.248v-.9h5.523Z" transform="translate(-582.352 -488.942)"/><path class="a" d="M663.386,496a1.158,1.158,0,0,0-.682-.177,1.119,1.119,0,0,0-.95.538,2.436,2.436,0,0,0-.374,1.417v2.83h-.99v-5.589h.99v1.137h.02a1.528,1.528,0,0,1,1.466-1.233,1.4,1.4,0,0,1,.521.076Z" transform="translate(-592.087 -492.336)"/><path class="a" d="M671.412,495.353a3.558,3.558,0,0,1,1.925-.521q2.021,0,2.021,2.122v3.6h-.981v-.864h-.025a1.868,1.868,0,0,1-1.713.995,1.84,1.84,0,0,1-1.294-.44,1.53,1.53,0,0,1-.48-1.187q0-1.566,1.855-1.824l1.657-.233q0-1.369-1.132-1.369a2.831,2.831,0,0,0-1.834.677Zm1.658,2.572a1.7,1.7,0,0,0-.947.344.94.94,0,0,0-.26.707.833.833,0,0,0,.283.652,1.08,1.08,0,0,0,.748.253,1.387,1.387,0,0,0,1.066-.455,1.619,1.619,0,0,0,.419-1.142v-.536Z" transform="translate(-598.509 -492.28)"/><path class="a" d="M692.312,496.51h-.99v-.93h-.02a2.042,2.042,0,0,1-1.9,1.061,2.079,2.079,0,0,1-1.688-.755,3.094,3.094,0,0,1-.627-2.039,3.325,3.325,0,0,1,.707-2.221,2.306,2.306,0,0,1,1.85-.836,1.772,1.772,0,0,1,1.657.889h.02v-3.441h.99Zm-.985-3.325a1.544,1.544,0,0,0-.442-1.124,1.464,1.464,0,0,0-1.089-.452,1.486,1.486,0,0,0-1.243.589,2.564,2.564,0,0,0-.455,1.6,2.293,2.293,0,0,0,.437,1.478,1.42,1.42,0,0,0,1.165.543,1.47,1.47,0,0,0,1.172-.533,1.973,1.973,0,0,0,.455-1.327Z" transform="translate(-608.453 -488.238)"/><path class="a" d="M706.181,489.095a.613.613,0,0,1,.622-.622.63.63,0,0,1,.452.177.59.59,0,0,1,.185.445.576.576,0,0,1-.185.437.634.634,0,0,1-.452.174.608.608,0,0,1-.445-.174A.589.589,0,0,1,706.181,489.095Zm.117,7.56v-5.589h.99v5.589Z" transform="translate(-620.157 -488.382)"/><path class="a" d="M719.673,500.552h-.985v-3.179q0-1.723-1.258-1.723a1.352,1.352,0,0,0-1.071.485,1.809,1.809,0,0,0-.42,1.228v3.189h-.99v-5.589h.99v.925h.02a2.016,2.016,0,0,1,1.835-1.056,1.7,1.7,0,0,1,1.4.589,2.659,2.659,0,0,1,.48,1.715Z" transform="translate(-625.531 -492.28)"/><path class="a" d="M737.021,500.082q0,3.1-3.012,3.1a3.957,3.957,0,0,1-1.809-.389v-.955a3.689,3.689,0,0,0,1.794.521q2.036,0,2.036-2.143v-.591h-.02a2.246,2.246,0,0,1-3.583.3,3,3,0,0,1-.632-2,3.429,3.429,0,0,1,.7-2.266,2.3,2.3,0,0,1,1.86-.836,1.807,1.807,0,0,1,1.658.889h.02v-.758h.99Zm-.99-2.855a1.543,1.543,0,0,0-.435-1.112,1.429,1.429,0,0,0-1.081-.465,1.488,1.488,0,0,0-1.258.594,2.641,2.641,0,0,0-.45,1.63,2.255,2.255,0,0,0,.435,1.44,1.394,1.394,0,0,0,1.152.551,1.5,1.5,0,0,0,1.183-.526,1.931,1.931,0,0,0,.455-1.334Z" transform="translate(-635.859 -492.28)"/></g><path class="a" d="M570.311,430.433v2.516H557l-5.036,3.884h-5.554l5.036-3.884h-4.795v-2.516h8.072l1.69-1.313h5.554l-1.69,1.313h4.588l3.459-1.231.025,1.231Zm-23.111,7.33h10.659v7.9H547.2Zm.31-16.083h10.245v6.756H547.511Zm3.622,18.654V443.1h2.794v-2.763Zm.1-16.083v1.613h2.794v-1.613Zm7.83,13.512h10.659v7.9H559.066Zm.173-16.083h10.245v6.756H559.239Zm6.623,11.9,4.346,3.255h-5.485l-4.346-3.255Zm-2.9-9.327v1.613h2.794v-1.613ZM563,440.334V443.1h2.794v-2.763Z" transform="translate(-519.484 -420.11)"/><path class="a" d="M496.611,442.577l-4.118-8.14-4.283,8.14-.4.73H484.83l-1.36-.012.592-1.156,5.686-10.883-5.891-11.67-1.058,3.093-.006,20.686h-4.044l-.01-15.522h-.6l-1.3,0,.411-1.141,2.925-8.782h4.261l-.288.788-.271.788h4.3l.418.788,3.847,7.585,3.771-7.585.392-.788h4.406l-.591,1.2-5.237,10.328,5.589,11.116.618,1.167h-4.371Z" transform="translate(-476.842 -417.807)"/><path class="a" d="M619.624,444.8l8.027-10.124H619.32v-2.655l9.473.029,1.42-8.111h4.075l-1.451,8.111,10.285-.029v2.655H632.2l-7.55,9.453-.455.671h-4.567Zm.365-24.537,20.566.008h1.838l-.767,7.169h-3.982l.493-4.551H619.99Zm13.357,16.076h4.5l5.011,8.432h-4.465l-.432-.7-3.84-6.506Z" transform="translate(-564.179 -419.24)"/><path class="a" d="M703.694,426.714,702.2,432.87h10.372v2.6H701.035l-6.717,7.265-.495.613h-3.116l-1.706.008,1.055-1.262,6.119-6.623h-7.428v-2.6h9.377l1.493-6.156Zm8.733-3.18-1.005,6.479h-4.079l.56-3.854H688.983v-2.626h9.489l-.017-1.518h-8.576v-2.626h8.58l-.01-1.488h4.079l.006,1.488h8.7v2.626H702.53l-.014,1.518h9.911Zm-5.143,13.076,4.058,5.48.925,1.262h-4.691l-.57-.708-4.427-6.034Z" transform="translate(-606.738 -417.795)"/><path class="a" d="M514.095,421.8H510.1l-1.53-4.181h3.992Z" transform="translate(-496.293 -417.624)"/><path class="a" d="M631.284,442.841H626.9l-1.937-2.782h4.386Z" transform="translate(-567.637 -431.376)"/><path class="a" d="M631.284,433.807H626.9l-1.937-2.782h4.386Z" transform="translate(-567.637 -425.838)"/><path class="a" d="M700.655,450.962H696.27l-1.455-2.408H699.2Z" transform="translate(-610.457 -436.584)"/><path class="a" d="M702.221,443.144h-4.386l-1.455-2.408h4.386Z" transform="translate(-611.416 -431.791)"/></g><path class="a" d="M282,455.913c.125.057.253.113.384.167-.128-.027-.256-.057-.384-.084-4.439-.993-7.536-2.638-9.008-4.847-2.593-3.89.85-8.9,9.008-13.086v2.951c-4.883,3.019-7.193,6.483-6.09,9.625C276.632,452.7,278.782,454.5,282,455.913Z" transform="translate(0 -27.011)"/><path class="a" d="M436.42,439.564c.194-.164,6.808-5.771,5.81-9.685-.584-2.29-2.725-4.108-5.929-5.443V419.7c4.474.993,7.935,2.567,9.911,4.71C448.9,427.327,447.894,434.749,436.42,439.564Z" transform="translate(-100.63 -15.755)"/><g transform="translate(281.995 401.073)"><path class="b" d="M324.034,417.264v12.547a.769.769,0,0,1-.26.587.73.73,0,0,1-.11.081.572.572,0,0,1-.125.056.641.641,0,0,1-.2.033.606.606,0,0,1-.191-.03l-2.459-.751a.606.606,0,0,0-.191-.03.672.672,0,0,0-.2.033.773.773,0,0,0-.125.057.539.539,0,0,0-.11.08.392.392,0,0,0-.051.048.6.6,0,0,0-.086.11.794.794,0,0,0-.122.43v10.969a37.144,37.144,0,0,1-13.271-2.644,29.658,29.658,0,0,0,13.271,6.048v4.564a.773.773,0,0,1-.238.566.661.661,0,0,1-.2.134.48.48,0,0,1-.116.039L303.073,453.9a.629.629,0,0,1-.146.018.673.673,0,0,1-.489-.218.734.734,0,0,1-.122-.176.81.81,0,0,1-.086-.363V413.079l.075.018a.8.8,0,0,1,.053-.361.663.663,0,0,1,.1-.185.671.671,0,0,1,.536-.274.687.687,0,0,1,.134.015l17.346,3.607h0l2.987.623A.744.744,0,0,1,324.034,417.264Z" transform="translate(-300.441 -412.277)"/><path class="c" d="M297.608,440.541v.084c.128.027.256.056.384.084C297.861,440.654,297.733,440.6,297.608,440.541Zm1.916-27.37a.752.752,0,0,1,.1-.185A.665.665,0,0,0,299.524,413.171Z" transform="translate(-297.608 -412.712)"/></g><g transform="translate(308.2 394)"><path class="d" d="M391,394.757V447.6a.731.731,0,0,1-.7.757.679.679,0,0,1-.227-.042l-20.368-7.443a.751.751,0,0,1-.477-.716v-6.2l.232-.029A29.962,29.962,0,0,0,389,422.309c-4.468,3.365-11.518,6.111-19.769,7.339V419.024a.8.8,0,0,0-.122-.429.64.64,0,0,0-.086-.11.391.391,0,0,0-.051-.048.55.55,0,0,0-.11-.08.773.773,0,0,0-.125-.057.68.68,0,0,0-.2-.033.64.64,0,0,0-.181.027l-2.155.623-.092.018a.6.6,0,0,1-.074.006h-.015a.617.617,0,0,1-.075-.009.653.653,0,0,1-.081-.012.368.368,0,0,1-.074-.027.651.651,0,0,1-.077-.033.7.7,0,0,1-.063-.039.606.606,0,0,1-.119-.1.777.777,0,0,1-.209-.539V404.761a.755.755,0,0,1,.45-.706l1.529-.629,0,0,1.932-.8v-.036l.778-.283,20.043-8.257a.679.679,0,0,1,.25-.051.66.66,0,0,1,.384.125.6.6,0,0,1,.1.092A.762.762,0,0,1,391,394.757Z" transform="translate(-365.318 -394)"/></g></g></svg>