<svg xmlns="http://www.w3.org/2000/svg" xmlns:xlink="http://www.w3.org/1999/xlink" width="121.637" height="139.069" viewBox="0 0 121.637 139.069"><defs><style>.a{fill:url(#a);}.b{fill:#0a7da5;opacity:0.15;}.c{fill:url(#b);}.d{fill:#fff;}.e,.m{fill:none;stroke-miterlimit:10;}.e{stroke:#fff;stroke-width:0.709px;}.f{fill:#26b7b7;opacity:0.22;isolation:isolate;}.g{opacity:0.25;}.h{fill:#96deeb;}.i,.l{fill:#17d6e9;}.i{font-size:10.967px;font-family:MicrosoftJhengHeiUIRegular, Microsoft JhengHei UI;}.j{font-family:YuGothicUI-Regular, Yu Gothic UI;}.k{fill:url(#c);}.n{fill:#00c7db;}.o,.p{stroke:none;}.p{fill:#13d4e7;}</style><linearGradient id="a" x1="-0.062" y1="-0.101" x2="0.93" y2="0.96" gradientUnits="objectBoundingBox"><stop offset="0" stop-color="#f1f9fb"/><stop offset="1" stop-color="#2ec0d8"/></linearGradient><linearGradient id="b" x1="-0.061" y1="-0.102" x2="0.929" y2="0.96" gradientUnits="objectBoundingBox"><stop offset="0" stop-color="#f1f9fb"/><stop offset="1" stop-color="#b5eff5"/></linearGradient><linearGradient id="c" x1="0.468" y1="0.387" x2="0.415" y2="0.058" gradientUnits="objectBoundingBox"><stop offset="0" stop-color="#00c7db"/><stop offset="1" stop-color="#26e0f3"/></linearGradient></defs><g transform="translate(-5204.137 -355.604)"><rect class="a" width="89.341" height="117.773" rx="12.744" transform="translate(5214.944 355.604)"/><rect class="b" width="80.875" height="106.613" rx="11.537" transform="translate(5233.167 376.328)"/><rect class="c" width="86.876" height="114.258" rx="12.378" transform="translate(5216.176 355.877)"/><rect class="d" width="77.333" height="85.667" rx="8.897" transform="translate(5220.948 364.788)"/><rect class="d" width="14.563" height="3.167" rx="1.583" transform="translate(5248.174 359.288)"/><circle class="d" cx="1.583" cy="1.583" r="1.583" transform="translate(5264.022 359.288)"/><circle class="d" cx="5.373" cy="5.373" r="5.373" transform="translate(5254.241 455.352)"/><path class="e" d="M5216.176,432.494v25.221a12.421,12.421,0,0,0,12.421,12.42h62.035a12.42,12.42,0,0,0,12.42-12.42V435.75"/><rect class="f" width="62.47" height="23.296" rx="4.17" transform="translate(5227.706 370.726)"/><rect class="d" width="62.798" height="22.181" rx="4.08" transform="translate(5228.215 370.726)"/><rect class="f" width="62.47" height="22.649" rx="4.112" transform="translate(5227.706 423.976)"/><rect class="d" width="62.798" height="22.181" rx="4.08" transform="translate(5228.215 423.976)"/><g class="g"><rect class="h" width="9.642" height="9.642" rx="4.821" transform="translate(5273.173 428.588)"/><path class="h" d="M5.885,0h0A5.885,5.885,0,0,1,11.77,5.885v1.24a.44.44,0,0,1-.44.44H.44A.44.44,0,0,1,0,7.125V5.885A5.885,5.885,0,0,1,5.885,0Z" transform="translate(5272.109 438.592)"/></g><g class="g"><rect class="h" width="9.642" height="9.642" rx="4.821" transform="translate(5272.846 375.338)"/><path class="h" d="M5.885,0h0A5.885,5.885,0,0,1,11.77,5.885v1.24a.44.44,0,0,1-.44.44H.44A.44.44,0,0,1,0,7.125V5.885A5.885,5.885,0,0,1,5.885,0Z" transform="translate(5271.782 385.342)"/></g><rect class="f" width="100.938" height="35.103" rx="6.507" transform="translate(5209.145 387.61)"/><rect class="d" width="98.214" height="32.797" rx="6.204" transform="translate(5210.507 387.61)"/><text class="i" transform="translate(5222.697 408.767)"><tspan x="0" y="0">经销</tspan><tspan class="j" y="0">商</tspan></text><path class="k" d="M5293.452,402.82a.17.17,0,0,1-.064.013c-.151-.027-.191.07-.226.188-.2.668-.474,1.311-.707,1.969a.347.347,0,0,1-.04.081,8.006,8.006,0,0,0-.081-.892c-.029-.464,0-.933-.053-1.39-.129-1.038-.088-2.084-.2-3.122a5.617,5.617,0,0,0-.489-1.67,6.492,6.492,0,0,0-1.556-2.216,6.064,6.064,0,0,0-2.91-1.462,9.109,9.109,0,0,0-2.433-.15c-.394.024-.785-.031-1.178-.025a7.22,7.22,0,0,0-3.44.818,5.968,5.968,0,0,0-2.28,2.23,7.575,7.575,0,0,0-.9,2.323,8.733,8.733,0,0,0-.116,1.191c-.042.578-.03,1.158-.088,1.736a6.785,6.785,0,0,0-.009.712c0,.45-.035.9-.07,1.345a.673.673,0,0,1-.025.094,5.477,5.477,0,0,1-.257-.58,8.932,8.932,0,0,1-.354-1.118c-.022-.088-.162-.17-.232-.116-.1.079-.132.015-.173-.055a.183.183,0,0,0-.024-.023c-.018-.7-.036-1.4-.015-2.094q.037-1.215.1-2.428c.039-.7.09-1.408.124-2.113.03-.616.046-1.233.067-1.849.029-.862.06-1.723.068-2.585a.471.471,0,0,0,0-.19,6.029,6.029,0,0,1,1.133.368,9.8,9.8,0,0,1,1.255.568c.071.039.1.012.147-.036.435-.449.789-.966,1.19-1.444.275-.327.554-.65.86-.949a3.047,3.047,0,0,1,.608-.466c.02-.011.031-.021.057-.005a17.785,17.785,0,0,1,2.085,1.661c.058.05.09.049.146,0,.283-.235.559-.477.857-.694a2.137,2.137,0,0,1,.195-.129c.023-.012.055-.044.089-.007a6.658,6.658,0,0,0,.72.575c.1.084.205.161.3.246.055.048.09.047.147,0,.438-.391.886-.771,1.352-1.128.221-.169.455-.318.688-.471.118-.077.191-.021.275.018a1.612,1.612,0,0,1,.417.314,21.513,21.513,0,0,1,1.732,1.916c.155.186.308.372.459.561.038.048.068.063.128.032.128-.066.266-.115.393-.183a7.726,7.726,0,0,1,.805-.318,8.011,8.011,0,0,0,.891-.429.749.749,0,0,1,.069-.036c.095-.041.157,0,.153.1a22,22,0,0,0-.033,2.2c.029.527.071,1.052.113,1.578.053.648.114,1.3.168,1.942.057.692.116,1.384.167,2.077.074,1.019.158,2.037.166,3.059,0,.056,0,.112,0,.167A.3.3,0,0,1,5293.452,402.82Z"/><path class="l" d="M5281.78,420.407h-5.82s.146-3.629.345-4.337a4.546,4.546,0,0,1,.926-1.627,5.884,5.884,0,0,1,1.784-1.488,5.449,5.449,0,0,1,1-.4c.085-.03.109-.012.127.067.146.7.3,1.4.448,2.1C5280.987,416.56,5281.78,420.407,5281.78,420.407Z"/><path class="l" d="M5292.608,418.133v2.274h-5.317s1.2-5.19,1.8-7.646c.03-.1.067-.109.145-.079a4.854,4.854,0,0,1,2.741,2.414,5.606,5.606,0,0,1,.5,1.53A10.624,10.624,0,0,1,5292.608,418.133Z"/><g class="m"><path class="o" d="M5294.432,404.1a1.679,1.679,0,0,0-.757-1.14,1.083,1.083,0,0,1-.223-.141c-.169-.047-.249-.01-.3.143-.16.475-.315.952-.506,1.416a6.3,6.3,0,0,0-.22.617.49.49,0,0,0,.007-.229,12.207,12.207,0,0,1-.109-1.776,1.208,1.208,0,0,0-.007-.234,7.336,7.336,0,0,1-.1-1.141q-.022-.791-.074-1.579a4.623,4.623,0,0,0-.075-.7,7.194,7.194,0,0,0-.957-2.316,6,6,0,0,0-2.374-2.184,6.756,6.756,0,0,0-2.068-.638c-.3-.044-.6-.058-.9-.077a6.191,6.191,0,0,0-.734,0,5.587,5.587,0,0,1-.633.025c-.245-.013-.489-.029-.734-.037a8.266,8.266,0,0,0-.889.041,7.051,7.051,0,0,0-2.065.474,5.856,5.856,0,0,0-2.452,1.835,6.931,6.931,0,0,0-1.249,2.457,4.945,4.945,0,0,0-.211.943c-.045.54-.077,1.081-.085,1.622,0,.056,0,.112,0,.167-.015.375-.068.747-.062,1.122s0,.773-.026,1.158a4.346,4.346,0,0,1-.052.553.986.986,0,0,1-.079-.156,8.793,8.793,0,0,1-.481-1.412c-.032-.129-.088-.184-.207-.169a.348.348,0,0,1-.259-.047c-.012.064-.07.058-.112.073a1.68,1.68,0,0,0-.657.4,1.758,1.758,0,0,0,.239,2.675,1.724,1.724,0,0,0,.88.3.788.788,0,0,0,.361-.018.211.211,0,0,0,.044,0c.087-.035.13-.028.141.086a3.2,3.2,0,0,0,.175.719,4.319,4.319,0,0,0,1.7,2.189,6.4,6.4,0,0,0,1.929.882,1.007,1.007,0,0,0,.382.1,4.417,4.417,0,0,0,.6.135,3.048,3.048,0,0,1,.494.089.206.206,0,0,0,.131.053,20.012,20.012,0,0,0,2.13.176,14.14,14.14,0,0,0,1.47-.023c.136-.009.273-.017.41-.03.276-.026.552-.056.833-.093a.124.124,0,0,1-.049.038,12.444,12.444,0,0,1-1.947.934,6.941,6.941,0,0,1-2.952.512.09.09,0,0,0-.074.017.615.615,0,0,0,.063.062q1.335.961,2.671,1.925c.044.032.115-.014.16-.048.844-.636,1.64-1.22,2.487-1.852.053-.04.052-.062.011-.111a1.019,1.019,0,0,1-.125-.2,1.861,1.861,0,0,1-.068-1.286.06.06,0,0,1,.061-.054,4.683,4.683,0,0,0,.526-.072,4.62,4.62,0,0,0,.616-.108.471.471,0,0,0,.077-.008,8.428,8.428,0,0,0,1.887-.67,5.049,5.049,0,0,0,1.528-1.181,4.134,4.134,0,0,0,.926-1.907c.049-.245.049-.245.285-.25a.535.535,0,0,0,.187-.022,1.665,1.665,0,0,0,1.1-.62A1.7,1.7,0,0,0,5294.432,404.1Z"/><path class="p" d="M 5284.45703125 413.7252502441406 C 5284.4599609375 413.7230834960938 5284.46337890625 413.720703125 5284.466796875 413.7180480957031 C 5284.98876953125 413.3247680664063 5285.5029296875 412.9434204101563 5286.00048828125 412.5746154785156 C 5286.2900390625 412.3599548339844 5286.5810546875 412.1441040039063 5286.876953125 411.9232788085938 C 5286.845703125 411.8768310546875 5286.81591796875 411.8262023925781 5286.7890625 411.77197265625 C 5286.59912109375 411.3876953125 5286.5986328125 411.0004577636719 5286.65380859375 410.6491088867188 C 5286.06005859375 410.9946899414063 5285.4248046875 411.2966918945313 5284.76318359375 411.5473022460938 C 5283.83251953125 411.900390625 5282.986328125 412.0757751464844 5282.177734375 412.0828552246094 L 5282.37939453125 412.2278137207031 C 5283.07177734375 412.7262878417969 5283.76416015625 413.2250366210938 5284.45703125 413.7252502441406 M 5284.4970703125 410.39892578125 C 5284.8095703125 410.39892578125 5285.1279296875 410.3881530761719 5285.44384765625 410.3668823242188 L 5285.517578125 410.362060546875 C 5285.62646484375 410.3550109863281 5285.7392578125 410.3476867675781 5285.84912109375 410.3372802734375 C 5286.146484375 410.3092651367188 5286.4169921875 410.2790832519531 5286.67578125 410.2449951171875 L 5286.7978515625 410.2289428710938 C 5286.83642578125 410.2004699707031 5286.8837890625 410.1845092773438 5286.93603515625 410.1845092773438 C 5287.0302734375 410.1845092773438 5287.1279296875 410.1665649414063 5287.23095703125 410.1475219726563 C 5287.298828125 410.1349487304688 5287.36962890625 410.1219177246094 5287.44384765625 410.1134948730469 C 5287.6435546875 410.0922546386719 5287.84326171875 410.0572814941406 5288.037109375 410.0094909667969 L 5288.05078125 410.006103515625 L 5288.06494140625 410.0050354003906 L 5288.087890625 410.0035705566406 C 5288.0966796875 410.0030517578125 5288.10546875 410.0030822753906 5288.11328125 410.0016479492188 C 5288.6787109375 409.8601989746094 5289.34033203125 409.6716613769531 5289.96240234375 409.3460388183594 C 5290.57373046875 409.0263671875 5291.056640625 408.6533203125 5291.439453125 408.2055053710938 C 5291.89208984375 407.6765747070313 5292.19091796875 407.0611572265625 5292.328125 406.3764953613281 C 5292.392578125 406.0533142089844 5292.45947265625 405.9953002929688 5292.77734375 405.9885559082031 L 5292.7998046875 405.9884338378906 L 5292.818359375 405.9920959472656 C 5292.83056640625 405.9920959472656 5292.85107421875 405.9873046875 5292.873046875 405.9822387695313 C 5292.896484375 405.9768676757813 5292.91943359375 405.9717102050781 5292.94482421875 405.9680786132813 C 5293.34814453125 405.9132690429688 5293.6826171875 405.7255249023438 5293.93896484375 405.4096374511719 C 5294.236328125 405.0448303222656 5294.34521484375 404.6142272949219 5294.26318359375 404.1299743652344 C 5294.189453125 403.700927734375 5293.9658203125 403.3650207519531 5293.5791015625 403.1032104492188 C 5293.56103515625 403.0910949707031 5293.53759765625 403.0791015625 5293.5126953125 403.06640625 C 5293.46875 403.0439453125 5293.41650390625 403.0172119140625 5293.36767578125 402.97607421875 C 5293.3525390625 402.9732055664063 5293.341796875 402.972412109375 5293.3349609375 402.972412109375 C 5293.33447265625 402.972412109375 5293.333984375 402.972412109375 5293.33349609375 402.972412109375 C 5293.32958984375 402.9787902832031 5293.322265625 402.9921569824219 5293.3134765625 403.0176391601563 L 5293.259765625 403.1781311035156 C 5293.11962890625 403.5955810546875 5292.97509765625 404.0272216796875 5292.80322265625 404.44482421875 C 5292.72412109375 404.6358947753906 5292.654296875 404.8297424316406 5292.59619140625 405.0210571289063 C 5292.59375 405.0313110351563 5292.59033203125 405.0415344238281 5292.5869140625 405.0516967773438 L 5292.26025390625 404.9470520019531 L 5292.26611328125 404.928955078125 C 5292.27490234375 404.8910522460938 5292.26904296875 404.8397827148438 5292.26220703125 404.7911987304688 C 5292.18505859375 404.2499694824219 5292.14892578125 403.660888671875 5292.15185546875 402.9909973144531 C 5292.15185546875 402.9697570800781 5292.15234375 402.9484558105469 5292.15283203125 402.9271240234375 C 5292.154296875 402.8766479492188 5292.1552734375 402.8289794921875 5292.1474609375 402.7886352539063 C 5292.0732421875 402.394775390625 5292.056640625 401.9958801269531 5292.04541015625 401.6207580566406 C 5292.03125 401.1140747070313 5292.00732421875 400.5995788574219 5291.97216796875 400.048828125 C 5291.96923828125 400.0111083984375 5291.966796875 399.973388671875 5291.96484375 399.9356689453125 C 5291.9521484375 399.7412414550781 5291.9404296875 399.5575866699219 5291.900390625 399.3782043457031 C 5291.72119140625 398.5708312988281 5291.40673828125 397.8100280761719 5290.96630859375 397.1168823242188 C 5290.37548828125 396.186767578125 5289.599609375 395.4724426269531 5288.6591796875 394.993896484375 C 5288.0615234375 394.6905212402344 5287.40234375 394.4872741699219 5286.64404296875 394.3726196289063 C 5286.3955078125 394.3359680175781 5286.1376953125 394.3202514648438 5285.888671875 394.3050537109375 L 5285.7607421875 394.2971496582031 C 5285.640625 394.2898254394531 5285.5185546875 394.2861022949219 5285.3974609375 394.2861022949219 C 5285.2822265625 394.2861022949219 5285.1640625 394.2894897460938 5285.046875 394.2962036132813 C 5284.9931640625 394.2992553710938 5284.93896484375 394.3031921386719 5284.88525390625 394.30712890625 C 5284.76708984375 394.3157348632813 5284.64453125 394.3246459960938 5284.521484375 394.3246459960938 C 5284.4765625 394.3246459960938 5284.43505859375 394.3235168457031 5284.39453125 394.3212280273438 C 5284.32763671875 394.3176574707031 5284.26123046875 394.3139038085938 5284.1943359375 394.3101196289063 C 5284.0205078125 394.30029296875 5283.8408203125 394.2901306152344 5283.66455078125 394.2843933105469 C 5283.62646484375 394.2832336425781 5283.587890625 394.28271484375 5283.54931640625 394.28271484375 C 5283.330078125 394.28271484375 5283.103515625 394.3005676269531 5282.884765625 394.3178405761719 L 5282.79443359375 394.3249206542969 C 5282.08349609375 394.3818359375 5281.4052734375 394.5374145507813 5280.779296875 394.7872619628906 C 5279.84130859375 395.1614074707031 5279.0400390625 395.7610778808594 5278.3984375 396.5697631835938 C 5277.8408203125 397.2704772949219 5277.43115234375 398.076904296875 5277.18017578125 398.9670104980469 L 5277.15478515625 399.0550842285156 C 5277.07421875 399.3356323242188 5276.998046875 399.6006164550781 5276.97509765625 399.8773803710938 C 5276.92529296875 400.4679260253906 5276.89794921875 400.9945678710938 5276.890625 401.4894714355469 L 5276.88916015625 401.5444641113281 C 5276.888671875 401.5826110839844 5276.8876953125 401.6205749511719 5276.88623046875 401.65869140625 C 5276.88037109375 401.8105163574219 5276.8681640625 401.9625549316406 5276.8564453125 402.1095886230469 C 5276.837890625 402.3375244140625 5276.82080078125 402.5528259277344 5276.82421875 402.7711791992188 C 5276.83056640625 403.1649780273438 5276.82177734375 403.5591125488281 5276.79833984375 403.9422302246094 L 5276.79345703125 404.0249938964844 C 5276.78466796875 404.181396484375 5276.77587890625 404.3431091308594 5276.74365234375 404.5162963867188 L 5276.66650390625 404.9330139160156 L 5276.43212890625 404.5797119140625 C 5276.39306640625 404.5203857421875 5276.36865234375 404.4656372070313 5276.349609375 404.421630859375 L 5276.33935546875 404.3987731933594 C 5276.14501953125 403.9619445800781 5275.984375 403.4910888671875 5275.8486328125 402.9585571289063 C 5275.84375 402.9385375976563 5275.83935546875 402.925537109375 5275.83544921875 402.9174499511719 C 5275.83349609375 402.9176330566406 5275.83154296875 402.9178771972656 5275.82958984375 402.9181518554688 C 5275.79248046875 402.9227600097656 5275.75927734375 402.9250183105469 5275.728515625 402.9250183105469 C 5275.677734375 402.9250183105469 5275.63037109375 402.9187622070313 5275.5859375 402.9060668945313 C 5275.56201171875 402.9175720214844 5275.53515625 402.9266357421875 5275.50537109375 402.9331970214844 C 5275.5009765625 402.9341430664063 5275.4970703125 402.9349060058594 5275.494140625 402.9355773925781 C 5275.2470703125 403.0232849121094 5275.0537109375 403.1416015625 5274.9033203125 403.297119140625 C 5274.58056640625 403.63134765625 5274.43017578125 404.0103759765625 5274.443359375 404.4557800292969 C 5274.45947265625 404.9813537597656 5274.6806640625 405.3930969238281 5275.1201171875 405.7144775390625 C 5275.3310546875 405.8682861328125 5275.5908203125 405.95751953125 5275.91357421875 405.9871215820313 L 5275.95166015625 405.9905395507813 C 5275.99658203125 405.99462890625 5276.0390625 405.99853515625 5276.07958984375 405.99853515625 C 5276.1279296875 405.99853515625 5276.16552734375 405.9927368164063 5276.197265625 405.9802856445313 L 5276.216796875 405.9727478027344 L 5276.2373046875 405.9700317382813 C 5276.24560546875 405.9689025878906 5276.25390625 405.9682922363281 5276.263671875 405.9679565429688 C 5276.2958984375 405.9564208984375 5276.33447265625 405.9459533691406 5276.37646484375 405.9459533691406 C 5276.4267578125 405.9459533691406 5276.5927734375 405.9646911621094 5276.615234375 406.2043762207031 C 5276.6357421875 406.4021911621094 5276.68701171875 406.6119995117188 5276.7822265625 406.8847045898438 C 5277.0810546875 407.744384765625 5277.63037109375 408.4521789550781 5278.41552734375 408.9884643554688 C 5278.9697265625 409.3673706054688 5279.6015625 409.6560974121094 5280.29443359375 409.8468627929688 C 5280.34033203125 409.8598022460938 5280.3828125 409.8761596679688 5280.42333984375 409.8919372558594 C 5280.48828125 409.9169006347656 5280.5439453125 409.9384460449219 5280.59375 409.9384460449219 C 5280.599609375 409.9384460449219 5280.60546875 409.9381713867188 5280.611328125 409.9375305175781 L 5280.65185546875 409.9331359863281 L 5280.68994140625 409.9474792480469 C 5280.80517578125 409.9906005859375 5280.92822265625 410.0123596191406 5281.05859375 410.035400390625 C 5281.12646484375 410.0474243164063 5281.197265625 410.0598449707031 5281.267578125 410.0757446289063 C 5281.322265625 410.0880432128906 5281.380859375 410.0942993164063 5281.443359375 410.1009216308594 C 5281.54931640625 410.1122436523438 5281.669921875 410.1250915527344 5281.78857421875 410.1730346679688 L 5281.8232421875 410.1871948242188 L 5281.84375 410.2089233398438 C 5281.85302734375 410.2114562988281 5281.87109375 410.214111328125 5281.87939453125 410.2153015136719 C 5282.4951171875 410.3041076660156 5283.166015625 410.3594970703125 5283.9912109375 410.3896484375 C 5284.158203125 410.3958129882813 5284.32861328125 410.39892578125 5284.4970703125 410.39892578125 M 5284.4453125 413.913818359375 C 5284.4326171875 413.913818359375 5284.42041015625 413.9106140136719 5284.41015625 413.9030151367188 C 5283.52001953125 413.260009765625 5282.62890625 412.6189880371094 5281.73876953125 411.9779968261719 C 5281.7158203125 411.9609985351563 5281.69677734375 411.93701171875 5281.67578125 411.9159851074219 C 5281.69091796875 411.9010314941406 5281.708984375 411.8982543945313 5281.7275390625 411.8982543945313 C 5281.73486328125 411.8982543945313 5281.74267578125 411.8987121582031 5281.75 411.8989868164063 C 5281.87646484375 411.9075012207031 5282.001953125 411.91162109375 5282.126953125 411.91162109375 C 5283.01513671875 411.9115905761719 5283.8681640625 411.7034912109375 5284.7021484375 411.3869934082031 C 5285.3779296875 411.1310119628906 5286.02685546875 410.8219909667969 5286.64892578125 410.4530029296875 C 5286.6640625 410.4440002441406 5286.68212890625 410.43798828125 5286.6982421875 410.4150085449219 C 5286.4169921875 410.4519958496094 5286.14111328125 410.4819946289063 5285.865234375 410.5079956054688 C 5285.72802734375 410.52099609375 5285.5908203125 410.5289916992188 5285.455078125 410.5379943847656 C 5285.1357421875 410.5595092773438 5284.81591796875 410.5704040527344 5284.4970703125 410.5704040527344 C 5284.326171875 410.5704040527344 5284.1552734375 410.5672912597656 5283.98486328125 410.5610046386719 C 5283.27294921875 410.5350036621094 5282.56201171875 410.4869995117188 5281.85498046875 410.385009765625 C 5281.80712890625 410.3779907226563 5281.759765625 410.3699951171875 5281.72412109375 410.3320007324219 C 5281.56591796875 410.2680053710938 5281.39404296875 410.2799987792969 5281.22998046875 410.2430114746094 C 5281.02978515625 410.197998046875 5280.82421875 410.1809997558594 5280.6298828125 410.1080017089844 C 5280.61767578125 410.1093139648438 5280.60546875 410.1099243164063 5280.59375 410.1099243164063 C 5280.47021484375 410.1099243164063 5280.36181640625 410.0439147949219 5280.248046875 410.0119934082031 C 5279.55810546875 409.8219909667969 5278.9111328125 409.5350036621094 5278.31884765625 409.1300048828125 C 5277.51806640625 408.5830078125 5276.93994140625 407.8609924316406 5276.6201171875 406.9410095214844 C 5276.5390625 406.7080078125 5276.47021484375 406.4679870605469 5276.44482421875 406.2219848632813 C 5276.4375 406.1457824707031 5276.416015625 406.1174011230469 5276.37646484375 406.1174011230469 C 5276.35693359375 406.1174011230469 5276.3330078125 406.1243896484375 5276.30419921875 406.135986328125 C 5276.291015625 406.1409912109375 5276.27490234375 406.1380004882813 5276.259765625 406.1400146484375 C 5276.201171875 406.1629943847656 5276.14013671875 406.1700134277344 5276.07958984375 406.1700134277344 C 5276.01904296875 406.1700134277344 5275.9580078125 406.1629943847656 5275.89892578125 406.1579895019531 C 5275.5830078125 406.1289978027344 5275.28076171875 406.0440063476563 5275.01904296875 405.8529968261719 C 5274.548828125 405.5090026855469 5274.2900390625 405.0530090332031 5274.27197265625 404.4609985351563 C 5274.2568359375 403.9559936523438 5274.43603515625 403.5339965820313 5274.77978515625 403.1780090332031 C 5274.9619140625 402.989990234375 5275.18896484375 402.8619995117188 5275.43701171875 402.7739868164063 C 5275.47900390625 402.7590026855469 5275.537109375 402.7650146484375 5275.548828125 402.7009887695313 C 5275.60546875 402.7402954101563 5275.6640625 402.7535705566406 5275.728515625 402.7535400390625 C 5275.75390625 402.7535400390625 5275.78076171875 402.7514343261719 5275.80810546875 402.7479858398438 C 5275.82080078125 402.7463989257813 5275.83251953125 402.7455749511719 5275.84423828125 402.7455749511719 C 5275.9384765625 402.7455749511719 5275.986328125 402.8017578125 5276.01513671875 402.9169921875 C 5276.13818359375 403.3999938964844 5276.29296875 403.8729858398438 5276.49609375 404.3290100097656 C 5276.51806640625 404.3779907226563 5276.5380859375 404.4289855957031 5276.5751953125 404.4849853515625 C 5276.61083984375 404.2929992675781 5276.6162109375 404.1119995117188 5276.626953125 403.9320068359375 C 5276.65087890625 403.5469970703125 5276.6591796875 403.1610107421875 5276.65283203125 402.7739868164063 C 5276.64697265625 402.3989868164063 5276.7001953125 402.0270080566406 5276.71484375 401.6520080566406 C 5276.716796875 401.5969848632813 5276.7177734375 401.5409851074219 5276.71923828125 401.4849853515625 C 5276.72705078125 400.9440002441406 5276.7587890625 400.4030151367188 5276.80419921875 399.8630065917969 C 5276.8310546875 399.5390014648438 5276.9267578125 399.2300109863281 5277.01513671875 398.9200134277344 C 5277.26904296875 398.0199890136719 5277.68115234375 397.1960144042969 5278.26416015625 396.4630126953125 C 5278.9189453125 395.6380004882813 5279.73291015625 395.0199890136719 5280.7158203125 394.6279907226563 C 5281.3798828125 394.3630065917969 5282.06884765625 394.2109985351563 5282.78076171875 394.1539916992188 C 5283.037109375 394.1341247558594 5283.29296875 394.1112365722656 5283.54931640625 394.1112365722656 C 5283.58984375 394.1112365722656 5283.6298828125 394.1117858886719 5283.669921875 394.1130065917969 C 5283.9150390625 394.1210021972656 5284.1591796875 394.1369934082031 5284.40380859375 394.1499938964844 C 5284.44287109375 394.1522216796875 5284.482421875 394.1531677246094 5284.521484375 394.1531677246094 C 5284.693359375 394.1531677246094 5284.865234375 394.134765625 5285.037109375 394.125 C 5285.15771484375 394.1181030273438 5285.27783203125 394.1146240234375 5285.3974609375 394.1146240234375 C 5285.52197265625 394.1146240234375 5285.646484375 394.1183776855469 5285.77099609375 394.1260070800781 C 5286.07080078125 394.1449890136719 5286.37109375 394.1589965820313 5286.6689453125 394.2030029296875 C 5287.39013671875 394.31201171875 5288.0849609375 394.510009765625 5288.73681640625 394.8410034179688 C 5289.73095703125 395.3469848632813 5290.51416015625 396.0849914550781 5291.11083984375 397.0249938964844 C 5291.56591796875 397.7409973144531 5291.8837890625 398.5130004882813 5292.06787109375 399.3410034179688 C 5292.119140625 399.5700073242188 5292.126953125 399.8039855957031 5292.14306640625 400.0369873046875 C 5292.1767578125 400.56298828125 5292.2021484375 401.0889892578125 5292.216796875 401.6159973144531 C 5292.22802734375 401.9970092773438 5292.2451171875 402.3800048828125 5292.31591796875 402.7569885253906 C 5292.3310546875 402.8340148925781 5292.3232421875 402.9129943847656 5292.3232421875 402.9909973144531 C 5292.32080078125 403.5849914550781 5292.34814453125 404.1780090332031 5292.43212890625 404.7669982910156 C 5292.44189453125 404.83740234375 5292.44873046875 404.9070129394531 5292.43115234375 404.9743347167969 C 5292.42919921875 404.9815673828125 5292.4267578125 404.98876953125 5292.4248046875 404.9960021972656 C 5292.42724609375 404.9888000488281 5292.42919921875 404.9815979003906 5292.43115234375 404.9743347167969 C 5292.4921875 404.7736206054688 5292.56396484375 404.573974609375 5292.64501953125 404.3789978027344 C 5292.8359375 403.9150085449219 5292.9912109375 403.43798828125 5293.15087890625 402.9630126953125 C 5293.189453125 402.8507385253906 5293.24267578125 402.8009338378906 5293.3349609375 402.8009338378906 C 5293.36865234375 402.8009338378906 5293.4072265625 402.8074951171875 5293.4521484375 402.8200073242188 C 5293.51318359375 402.8869934082031 5293.60205078125 402.9119873046875 5293.6748046875 402.9609985351563 C 5294.083984375 403.2380065917969 5294.34814453125 403.6109924316406 5294.43212890625 404.1010131835938 C 5294.52099609375 404.6239929199219 5294.41015625 405.1029968261719 5294.07177734375 405.5180053710938 C 5293.787109375 405.8689880371094 5293.4169921875 406.0769958496094 5292.9677734375 406.1380004882813 C 5292.91796875 406.145263671875 5292.869140625 406.16357421875 5292.818359375 406.16357421875 C 5292.8056640625 406.16357421875 5292.79345703125 406.1625061035156 5292.78076171875 406.1600036621094 C 5292.544921875 406.1650085449219 5292.544921875 406.1650085449219 5292.49609375 406.4100036621094 C 5292.35302734375 407.1260070800781 5292.0439453125 407.7630004882813 5291.56982421875 408.3169860839844 C 5291.14404296875 408.8150024414063 5290.623046875 409.1940002441406 5290.0419921875 409.4979858398438 C 5289.44384765625 409.8110046386719 5288.80615234375 410.0050048828125 5288.15478515625 410.1679992675781 C 5288.130859375 410.1740112304688 5288.10400390625 410.1740112304688 5288.078125 410.1759948730469 C 5287.875 410.2260131835938 5287.6689453125 410.2619934082031 5287.4619140625 410.2839965820313 C 5287.2861328125 410.3039855957031 5287.11376953125 410.3559875488281 5286.93603515625 410.3559875488281 C 5286.90185546875 410.3559875488281 5286.8828125 410.3760070800781 5286.875 410.4100036621094 C 5286.77587890625 410.8450012207031 5286.73583984375 411.2770080566406 5286.94287109375 411.6960144042969 C 5286.97705078125 411.7650146484375 5287.01904296875 411.8330078125 5287.06787109375 411.8919982910156 C 5287.10888671875 411.9410095214844 5287.10986328125 411.9630126953125 5287.05712890625 412.0029907226563 C 5286.2099609375 412.635009765625 5285.4140625 413.218994140625 5284.56982421875 413.8550109863281 C 5284.53564453125 413.8809204101563 5284.486328125 413.913818359375 5284.4453125 413.913818359375 Z"/></g><path class="l" d="M5285.421,420.359c-.4.036-.8.048-1.216.048-.326,0-.653-.012-.973-.03q.272-1.86.544-3.708c.03-.212.061-.43.1-.641a.133.133,0,0,0-.043-.134c-.151-.145-.3-.3-.447-.441-.049-.048-.049-.073,0-.121.326-.345.647-.684.974-1.028.048-.055.072-.061.127-.006.3.308.587.617.889.925.048.054.036.079,0,.127-.157.175-.3.357-.454.538a.172.172,0,0,0-.042.152l.236,1.887c.079.623.157,1.252.236,1.875C5285.373,419.99,5285.4,420.171,5285.421,420.359Z"/><path class="l" d="M5281.724,410.332a17.816,17.816,0,0,0,5.079.035.51.51,0,0,1-.213.159,12.413,12.413,0,0,1-2.422,1.081,7.938,7.938,0,0,1-1.372.3,8.115,8.115,0,0,1-1.011.024.614.614,0,0,1-.109-.02c-.055-.009-.024-.046-.017-.066a2.472,2.472,0,0,0,.066-1.485A.123.123,0,0,1,5281.724,410.332Z"/><path class="n" d="M5280.7,398.38a3.163,3.163,0,0,1,3.119,2.664,2.672,2.672,0,0,1,.04.432c0,.052.016.071.07.071q.6,0,1.2,0c.07,0,.063-.04.066-.086a3.114,3.114,0,0,1,1.495-2.6,3.166,3.166,0,1,1-1.43,3.336,3.2,3.2,0,0,1-.061-.462c0-.058-.022-.076-.079-.075-.394,0-.788,0-1.182,0-.072,0-.082.028-.087.09A3.166,3.166,0,0,1,5281,404.7a3.164,3.164,0,0,1-.8-6.274A3,3,0,0,1,5280.7,398.38Z"/><path class="n" d="M5284.452,407.767a2.08,2.08,0,0,1-1.094-.315,1.179,1.179,0,0,1-.1-.073c-.061-.049-.1-.109-.041-.179s.12-.038.178.006a1.65,1.65,0,0,0,.462.239,1.827,1.827,0,0,0,1.384-.09,2.6,2.6,0,0,0,.285-.151c.072-.043.132-.05.182.024s0,.128-.061.164a2.538,2.538,0,0,1-.712.307A2.667,2.667,0,0,1,5284.452,407.767Z"/><path class="n" d="M5284.325,405.312a.1.1,0,0,1-.117-.054.1.1,0,0,1,.028-.131c.119-.1.236-.2.359-.3.166-.13.167-.127.044-.292l-.444-.6c-.047-.064-.068-.13.007-.184s.124-.015.169.046c.218.294.436.589.658.881.031.041.025.063-.009.09-.214.172-.426.345-.64.517A.171.171,0,0,1,5284.325,405.312Z"/><path class="d" d="M5277.642,401.551a3.055,3.055,0,1,1,3.071,3.05A3.061,3.061,0,0,1,5277.642,401.551Z"/><path class="d" d="M5285.313,401.547a3.054,3.054,0,1,1,3.066,3.054A3.06,3.06,0,0,1,5285.313,401.547Z"/><path class="n" d="M5281.351,401.559a.515.515,0,0,1-.515.53.541.541,0,0,1-.542-.558.515.515,0,0,1,.515-.529A.539.539,0,0,1,5281.351,401.559Z"/><path class="n" d="M5287.518,401.524a.516.516,0,0,1,.523-.522.539.539,0,0,1,.534.564.513.513,0,0,1-.521.523A.542.542,0,0,1,5287.518,401.524Z"/></g></svg>