<svg xmlns="http://www.w3.org/2000/svg" xmlns:xlink="http://www.w3.org/1999/xlink" width="147.345" height="122.492" viewBox="0 0 147.345 122.492"><defs><style>.a{fill:#0a7da5;opacity:0.15;}.b{fill:url(#a);}.c{fill:url(#b);}.d{fill:#fff;}.e{opacity:0.39;mix-blend-mode:multiply;isolation:isolate;fill:url(#c);}.f{fill:#ffe471;}.g{fill:#abe585;}.h{fill:#ea6e68;}.i,.j,.m{fill:none;stroke:#fff;stroke-linecap:round;stroke-miterlimit:10;}.i{stroke-width:0.283px;}.j{stroke-width:0.306px;}.k{fill:#17d6e9;font-size:11px;font-family:YuGothicUI-Regular, Yu Gothic UI;}.l{fill:url(#d);}.m{stroke-width:4.252px;}</style><linearGradient id="a" x1="0.076" y1="-0.25" x2="0.824" y2="1.073" gradientUnits="objectBoundingBox"><stop offset="0" stop-color="#f1f9fb"/><stop offset="1" stop-color="#2ec0d8"/></linearGradient><linearGradient id="b" x1="0.982" y1="1.002" x2="-0.112" y2="-0.137" gradientUnits="objectBoundingBox"><stop offset="0" stop-color="#f1f9fb"/><stop offset="1" stop-color="#b5eff5"/></linearGradient><linearGradient id="c" x1="0" y1="0.5" x2="1" y2="0.5" xlink:href="#b"/><linearGradient id="d" x1="-0.059" y1="-0.116" x2="1.008" y2="1.06" gradientUnits="objectBoundingBox"><stop offset="0" stop-color="#d3f9fb"/><stop offset="1" stop-color="#17d6e9"/></linearGradient></defs><rect class="a" width="123.754" height="94.066" rx="14.125" transform="translate(11.858 16.693)"/><rect class="b" width="126.617" height="100.927" rx="11.312" transform="translate(0)"/><rect class="c" width="124.007" height="97.511" rx="10.111" transform="translate(1.344)"/><rect class="d" width="117.168" height="82.962" rx="9.065" transform="translate(4.764 11.861)"/><path class="e" d="M5814.1,426.1a29.047,29.047,0,0,1,25.767-14.97c18.506,0,31.792,21.708,53.858,21.708s19.274-13,37.542-13v28.946a8.411,8.411,0,0,1-8.412,8.411H5822.51a8.411,8.411,0,0,1-8.411-8.411Z" transform="translate(-5809.335 -362.37)"/><ellipse class="f" cx="2.195" cy="2.195" rx="2.195" ry="2.195" transform="translate(100.222 4.21)"/><ellipse class="g" cx="2.195" cy="2.195" rx="2.195" ry="2.195" transform="translate(107.458 4.21)"/><ellipse class="h" cx="2.195" cy="2.195" rx="2.195" ry="2.195" transform="translate(114.457 4.21)"/><g transform="translate(115.797 5.549)"><line class="i" x2="1.71" y2="1.71"/><line class="i" x1="1.71" y2="1.71"/></g><g transform="translate(101.168 6.404)"><line class="i" x1="2.479"/></g><rect class="j" width="2.165" height="1.766" rx="0.36" transform="translate(108.57 5.521)"/><path class="d" d="M5867.707,382.359a.285.285,0,0,1,.042-.075.26.26,0,0,0-.042.075m-.79,11.215v.034c.053.011.1.024.159.034-.054-.022-.107-.045-.159-.068" transform="translate(-5812.027 -360.9)"/><text class="k" transform="translate(40.572 77.997)"><tspan x="0" y="0">完成注册</tspan></text><ellipse class="l" cx="18.665" cy="18.665" rx="18.665" ry="18.665" transform="translate(44.683 21.895)"/><path class="m" d="M5867.355,401.813l5.563,5.561a3.154,3.154,0,0,0,4.46,0l18.174-18.174" transform="translate(-5812.049 -361.253)"/></svg>