<svg xmlns="http://www.w3.org/2000/svg" xmlns:xlink="http://www.w3.org/1999/xlink" width="116.984" height="139.069" viewBox="0 0 116.984 139.069"><defs><style>.a{fill:url(#a);}.b{fill:#0a7da5;opacity:0.15;}.c{fill:url(#b);}.d{fill:#fff;}.e{fill:none;stroke:#fff;stroke-miterlimit:10;stroke-width:0.709px;}.f{fill:#e7f7fa;}.g{opacity:0.54;}.h{fill:#96deeb;}.i{fill:#4dcece;opacity:0.3;}.j{fill:#17d6e9;}.k{fill:#90edf7;}.l,.n{fill:#baf0f6;}.m{fill:#04aab2;opacity:0.42;}.n{opacity:0.6;}.o{fill:#19a7f1;opacity:0.2;}</style><linearGradient id="a" x1="-0.062" y1="-0.101" x2="0.93" y2="0.96" gradientUnits="objectBoundingBox"><stop offset="0" stop-color="#f1f9fb"/><stop offset="1" stop-color="#2ec0d8"/></linearGradient><linearGradient id="b" x1="-0.061" y1="-0.102" x2="0.929" y2="0.96" gradientUnits="objectBoundingBox"><stop offset="0" stop-color="#f1f9fb"/><stop offset="1" stop-color="#b5eff5"/></linearGradient></defs><g transform="translate(-5034.546 -355.604)"><rect class="a" width="89.341" height="117.773" rx="12.744" transform="translate(5041.366 355.604)"/><rect class="b" width="80.875" height="106.613" rx="11.537" transform="translate(5058.922 376.328)"/><rect class="c" width="86.876" height="114.258" rx="12.378" transform="translate(5042.598 355.877)"/><rect class="d" width="77.333" height="85.667" rx="8.897" transform="translate(5047.369 364.788)"/><rect class="d" width="14.563" height="3.167" rx="1.583" transform="translate(5074.596 359.288)"/><circle class="d" cx="1.583" cy="1.583" r="1.583" transform="translate(5090.444 359.288)"/><circle class="d" cx="5.373" cy="5.373" r="5.373" transform="translate(5080.663 455.352)"/><path class="e" d="M5042.6,432.494v25.221a12.421,12.421,0,0,0,12.421,12.42h62.034a12.421,12.421,0,0,0,12.421-12.42V435.75"/><rect class="f" width="40.5" height="10.406" rx="5.203" transform="translate(5079 372.989)"/><rect class="f" width="40.5" height="10.406" rx="5.203" transform="translate(5079 387.989)"/><rect class="f" width="18.728" height="25.119" rx="3.317" transform="translate(5054.75 372.881)"/><g class="g"><rect class="h" width="11.053" height="11.053" rx="5.527" transform="translate(5058.588 375.891)"/><path class="d" d="M5066.75,381.665h0a2.636,2.636,0,0,1-2.636,2.636h0a2.636,2.636,0,0,1-2.636-2.636h5.272Z"/><path class="h" d="M6.746,0h0a6.746,6.746,0,0,1,6.746,6.746V8.168a.5.5,0,0,1-.5.5H.5a.5.5,0,0,1-.5-.5V6.746A6.746,6.746,0,0,1,6.746,0Z" transform="translate(5057.368 387.36)"/></g><path class="f" d="M0,0H77.333a0,0,0,0,1,0,0V35.5a8.459,8.459,0,0,1-8.459,8.459H8.459A8.459,8.459,0,0,1,0,35.5V0A0,0,0,0,1,0,0Z" transform="translate(5047.369 406.5)"/><rect class="i" width="15.96" height="10.58" rx="2.114" transform="translate(5059.25 436.078)"/><rect class="i" width="15.96" height="10.58" rx="2.114" transform="translate(5078.295 436.078)"/><rect class="i" width="15.96" height="10.58" rx="2.114" transform="translate(5096.79 436.078)"/><rect class="d" width="15.96" height="9.422" rx="1.995" transform="translate(5059.25 436.078)"/><rect class="d" width="15.96" height="9.422" rx="1.995" transform="translate(5078.295 436.078)"/><rect class="d" width="15.96" height="9.422" rx="1.995" transform="translate(5096.79 436.078)"/><rect class="i" width="15.96" height="10.58" rx="2.114" transform="translate(5059.25 423.187)"/><rect class="i" width="15.96" height="10.58" rx="2.114" transform="translate(5078.295 423.187)"/><rect class="i" width="15.96" height="10.58" rx="2.114" transform="translate(5096.79 423.187)"/><rect class="d" width="15.96" height="9.422" rx="1.995" transform="translate(5059.25 423.187)"/><rect class="d" width="15.96" height="9.422" rx="1.995" transform="translate(5078.295 423.187)"/><rect class="d" width="15.96" height="9.422" rx="1.995" transform="translate(5096.79 423.187)"/><rect class="i" width="15.96" height="10.58" rx="2.114" transform="translate(5059.25 410.155)"/><rect class="i" width="15.96" height="10.58" rx="2.114" transform="translate(5078.295 410.155)"/><rect class="i" width="15.96" height="10.58" rx="2.114" transform="translate(5096.79 410.155)"/><rect class="d" width="15.96" height="9.422" rx="1.995" transform="translate(5059.25 410.155)"/><rect class="d" width="15.96" height="9.422" rx="1.995" transform="translate(5078.295 410.155)"/><rect class="d" width="15.96" height="9.422" rx="1.995" transform="translate(5096.79 410.155)"/><path class="j" d="M2.418,0H14.853a2.418,2.418,0,0,1,2.418,2.418v55.2a0,0,0,0,1,0,0H0a0,0,0,0,1,0,0V2.418A2.418,2.418,0,0,1,2.418,0Z" transform="matrix(0.891, 0.454, -0.454, 0.891, 5125.04, 365.674)"/><path class="k" d="M5100.823,428.944,5098.865,417l15.387,7.846-10.816,5.428A1.819,1.819,0,0,1,5100.823,428.944Z"/><path class="j" d="M5139.533,375.264l-4.35,8.53-2.685-1.37,4.35-8.53c.49-.96-.223-2.31-1.587-3.005l2.685,1.369C5139.31,372.954,5140.023,374.3,5139.533,375.264Z"/><path class="l" d="M5136.749,373.844l-4.35,8.53-12.6-6.425,4.35-8.53a1.9,1.9,0,0,1,2.516-.913l9.344,4.765A1.9,1.9,0,0,1,5136.749,373.844Z"/><rect class="m" width="46.104" height="3.115" transform="matrix(-0.454, 0.891, -0.891, -0.454, 5135.186, 383.795)"/><rect class="k" width="46.104" height="4.812" transform="matrix(-0.454, 0.891, -0.891, -0.454, 5123.982, 378.081)"/><rect class="n" width="17.271" height="4.18" transform="matrix(0.891, 0.454, -0.454, 0.891, 5100.765, 413.278)"/><rect class="o" width="17.271" height="0.725" transform="matrix(0.891, 0.454, -0.454, 0.891, 5119.798, 375.952)"/></g></svg>