<svg xmlns="http://www.w3.org/2000/svg" xmlns:xlink="http://www.w3.org/1999/xlink" width="147.346" height="122.492" viewBox="0 0 147.346 122.492"><defs><style>.a{fill:#0a7da5;opacity:0.15;}.b{fill:url(#a);}.c{fill:url(#b);}.d{fill:#fff;}.e{fill:#ffe471;}.f{fill:#abe585;}.g{fill:#ea6e68;}.h,.i{fill:none;stroke:#fff;stroke-linecap:round;stroke-miterlimit:10;}.h{stroke-width:0.283px;}.i{stroke-width:0.306px;}.j{fill:#e7f7fa;}.k,.l{isolation:isolate;}.l,.n{fill:#f43;}.l{font-size:6px;font-family:YuGothicUI-Regular, Yu Gothic UI;}.m{font-family:MicrosoftJhengHeiUIRegular, Microsoft JhengHei UI;}.o{fill:#90edf7;}.p{fill:#17d6e9;}.q{fill:#62c8d3;}</style><linearGradient id="a" x1="0.076" y1="-0.25" x2="0.824" y2="1.073" gradientUnits="objectBoundingBox"><stop offset="0" stop-color="#f1f9fb"/><stop offset="1" stop-color="#2ec0d8"/></linearGradient><linearGradient id="b" x1="0.982" y1="1.002" x2="-0.112" y2="-0.137" gradientUnits="objectBoundingBox"><stop offset="0" stop-color="#f1f9fb"/><stop offset="1" stop-color="#b5eff5"/></linearGradient></defs><rect class="a" width="123.754" height="94.066" rx="14.125" transform="translate(11.858 16.693)"/><rect class="b" width="126.617" height="100.927" rx="11.312" transform="translate(0)"/><rect class="c" width="124.007" height="97.511" rx="10.111" transform="translate(1.345)"/><rect class="d" width="117.168" height="82.962" rx="9.065" transform="translate(4.764 11.861)"/><ellipse class="e" cx="2.195" cy="2.195" rx="2.195" ry="2.195" transform="translate(100.222 4.21)"/><ellipse class="f" cx="2.195" cy="2.195" rx="2.195" ry="2.195" transform="translate(107.458 4.21)"/><ellipse class="g" cx="2.195" cy="2.195" rx="2.195" ry="2.195" transform="translate(114.458 4.21)"/><g transform="translate(115.797 5.549)"><line class="h" x2="1.71" y2="1.71"/><line class="h" x1="1.71" y2="1.71"/></g><g transform="translate(101.168 6.404)"><line class="h" x1="2.479"/></g><rect class="i" width="2.165" height="1.766" rx="0.36" transform="translate(108.571 5.521)"/><path class="d" d="M5648.972,382.359a.317.317,0,0,1,.043-.075.287.287,0,0,0-.043.075m-.789,11.215v.034c.053.011.1.024.158.034q-.082-.033-.158-.068" transform="translate(-5593.292 -360.9)"/><rect class="j" width="25.512" height="9.876" rx="4.239" transform="translate(44.13 25.191)"/><rect class="j" width="67.951" height="9.876" rx="4.938" transform="translate(15.965 46.407)"/><rect class="j" width="67.951" height="9.876" rx="4.938" transform="translate(15.965 65.64)"/><g transform="translate(67.865 52.309)"><g class="k" transform="translate(6.621 6.038)"><text class="l" transform="translate(3.442 15.802) rotate(-35)"><tspan x="0" y="0">已</tspan><tspan class="m" y="0">认证</tspan></text></g><path class="n" d="M5678.067,447.3a16.213,16.213,0,1,1,16.212-16.212A16.232,16.232,0,0,1,5678.067,447.3Zm0-31.981a15.769,15.769,0,1,0,15.769,15.769A15.787,15.787,0,0,0,5678.067,415.314Z" transform="translate(-5661.854 -414.87)"/><path class="n" d="M5677.941,445.638a14.241,14.241,0,0,1-8.978-3.194.222.222,0,0,1,.281-.344,13.774,13.774,0,0,0,21.467-15.836.22.22,0,0,1,.123-.289.223.223,0,0,1,.29.122,14.184,14.184,0,0,1,.852,3.061,14.412,14.412,0,0,1,.18,2.265A14.231,14.231,0,0,1,5677.941,445.638Zm-12.657-8.019a.221.221,0,0,1-.2-.127,14.085,14.085,0,0,1-1.357-6.067,14.208,14.208,0,0,1,23.228-10.991.222.222,0,1,1-.282.343,13.77,13.77,0,0,0-22.5,10.648,13.646,13.646,0,0,0,1.314,5.877.222.222,0,0,1-.2.317Z" transform="translate(-5661.949 -414.989)"/><path class="n" d="M5673.441,423.036l-.546.946-.419-1.054-1.069-.281.83-.691-.114-1.12.932.627,1-.411-.254,1.078.731.866Z" transform="translate(-5662.341 -415.174)"/><path class="n" d="M5684.832,440.9l.479-.981.492,1.022,1.086.206-.78.747L5686.3,443l-.974-.56-.968.479.179-1.093-.791-.813Z" transform="translate(-5662.97 -416.147)"/><path class="n" d="M5669.447,428l.037,1.092-.913-.671-1.056.329.339-1.027-.689-.889,1.123.037.63-.879.354,1.05,1.078.345Z" transform="translate(-5662.125 -415.437)"/><path class="n" d="M5688.707,435.787l-.113-1.087.958.606,1.03-.4-.267,1.048.749.838-1.122.042-.566.92-.427-1.022-1.1-.269Z" transform="translate(-5663.179 -415.881)"/><path class="n" d="M5680.84,421.184l-.153,1.082-.783-.82-1.1.14.512-.952-.525-.995,1.1.231.772-.756.167,1.1,1,.528Z" transform="translate(-5662.717 -415.086)"/><path class="n" d="M5677.823,443.383l.078-1.09.837.763,1.084-.217-.445.986.593.956-1.112-.154-.718.808-.243-1.081-1.037-.457Z" transform="translate(-5662.619 -416.268)"/></g><g transform="translate(87.523 24.324)"><path class="o" d="M5712.954,417.511a5.248,5.248,0,0,0-.033.625L5706,415l.475-.494a7.35,7.35,0,0,0,2.062-4.545l.037-.359-.012,0,0-.04.029-.279,6.921,3.139a7.694,7.694,0,0,0-1.932,2.573A7.47,7.47,0,0,0,5712.954,417.511Z" transform="translate(-5683.762 -386.6)"/><path class="p" d="M5725.031,438.267l-4.327-1.962,2.058-8.493c.72-2.936-1.876-6.432-4.253-7.51l4.326,1.963c2.836,1.286,4.973,4.572,4.253,7.509Z" transform="translate(-5684.399 -387.162)"/><path class="o" d="M5718.917,435.792,5683.433,419.7l5.034-7.143c1.735-2.476,5.664-3.011,9.125-1.442l19.129,8.675c2.377,1.078,4.973,4.573,4.253,7.51Z" transform="translate(-5682.611 -386.649)"/><ellipse class="q" cx="2.003" cy="21.85" rx="2.003" ry="21.85" transform="translate(0 34.878) rotate(-65.604)"/><path class="p" d="M5728.975,404.27a13.09,13.09,0,0,1-24.048-.49,13.291,13.291,0,0,0,5,3.909,13.5,13.5,0,0,0,18.9-14.587A13.1,13.1,0,0,1,5728.975,404.27Z" transform="translate(-5683.708 -385.776)"/><path class="o" d="M5727.766,400.57a13.519,13.519,0,0,1-17.89,6.726,13.291,13.291,0,0,1-5-3.909,13.1,13.1,0,0,1,23.891-10.695l.005.017A13.439,13.439,0,0,1,5727.766,400.57Z" transform="translate(-5683.656 -385.382)"/><path class="p" d="M5713.716,415a7.471,7.471,0,0,0-.629,2.523l-.186-.084a11.13,11.13,0,0,0-4.2-7.829l-.011,0a.3.3,0,0,0-.082-.065l.086.025,1.645.454,5.306,2.407A7.688,7.688,0,0,0,5713.716,415Z" transform="translate(-5683.895 -386.614)"/></g><ellipse class="j" cx="9.332" cy="9.332" rx="9.332" ry="9.332" transform="translate(15.965 20.797)"/></svg>