<svg xmlns="http://www.w3.org/2000/svg" width="14" height="14" viewBox="0 0 14 14"><defs><style>.a{fill:none;}.b{fill:#666;}</style></defs><rect class="a" width="14" height="13.512" transform="translate(0 0.488)"/><g transform="translate(1.699 0)"><path class="b" d="M10.075,14H1.057A1.024,1.024,0,0,1,0,13.016V.984A1.024,1.024,0,0,1,1.057,0H6.051a1.124,1.124,0,0,1,.42.085l.015.006.006,0L6.511.1l.062.031a1.117,1.117,0,0,1,.212.157l4.022,3.835a.948.948,0,0,1,.3.694v8.2A1,1,0,0,1,10.075,14ZM1.042.984V13.016H10.06V5.25H6.6a1.024,1.024,0,0,1-1.057-.984V.984Zm5.544.525V4.266H9.493ZM7.933,10.5H7.267V7.875H9.033v.52h-1.1v.587h.941V9.5H7.933v1Zm-2.546,0H4.545V7.875h.8c.919,0,1.4.449,1.4,1.3a1.291,1.291,0,0,1-.38,1A1.443,1.443,0,0,1,5.386,10.5ZM5.226,8.381V9.994h.081c.513,0,.763-.267.763-.816s-.235-.8-.763-.8ZM2.664,10.5H2V7.875h.966c.727,0,1.113.294,1.114.852,0,.662-.565.9-1.094.9h-.32V10.5Zm0-2.133v.766H2.95c.315,0,.481-.14.481-.4,0-.25-.154-.361-.5-.361Z" transform="translate(0 0)"/></g></svg>