<svg xmlns="http://www.w3.org/2000/svg" xmlns:xlink="http://www.w3.org/1999/xlink" width="121.637" height="139.069" viewBox="0 0 121.637 139.069"><defs><style>.a{fill:url(#a);}.b{fill:#0a7da5;opacity:0.15;}.c{fill:url(#b);}.d{fill:#fff;}.e{fill:none;stroke:#fff;stroke-miterlimit:10;stroke-width:0.709px;}.f{fill:#26b7b7;opacity:0.22;isolation:isolate;}.g{opacity:0.25;}.h{fill:#96deeb;}.i{fill:#17d6e9;font-size:10.967px;font-family:YuGothicUI-Regular, Yu Gothic UI;}.j{font-family:MicrosoftJhengHeiUIRegular, Microsoft JhengHei UI;}</style><linearGradient id="a" x1="-0.062" y1="-0.101" x2="0.93" y2="0.96" gradientUnits="objectBoundingBox"><stop offset="0" stop-color="#f1f9fb"/><stop offset="1" stop-color="#2ec0d8"/></linearGradient><linearGradient id="b" x1="-0.061" y1="-0.102" x2="0.929" y2="0.96" gradientUnits="objectBoundingBox"><stop offset="0" stop-color="#f1f9fb"/><stop offset="1" stop-color="#b5eff5"/></linearGradient></defs><g transform="translate(-5204.137 -355.604)"><rect class="a" width="89.341" height="117.773" rx="12.744" transform="translate(5214.944 355.604)"/><rect class="b" width="80.875" height="106.613" rx="11.537" transform="translate(5233.167 376.328)"/><rect class="c" width="86.876" height="114.258" rx="12.378" transform="translate(5216.176 355.877)"/><rect class="d" width="77.333" height="85.667" rx="8.897" transform="translate(5220.948 364.788)"/><rect class="d" width="14.563" height="3.167" rx="1.583" transform="translate(5248.174 359.288)"/><circle class="d" cx="1.583" cy="1.583" r="1.583" transform="translate(5264.022 359.288)"/><circle class="d" cx="5.373" cy="5.373" r="5.373" transform="translate(5254.241 455.352)"/><path class="e" d="M5216.176,432.494v25.221a12.421,12.421,0,0,0,12.421,12.42h62.035a12.42,12.42,0,0,0,12.42-12.42V435.75"/><rect class="f" width="62.47" height="23.296" rx="4.17" transform="translate(5227.706 370.726)"/><rect class="d" width="62.798" height="22.181" rx="4.08" transform="translate(5228.215 370.726)"/><rect class="f" width="62.47" height="22.649" rx="4.112" transform="translate(5227.706 423.976)"/><rect class="d" width="62.798" height="22.181" rx="4.08" transform="translate(5228.215 423.976)"/><g class="g"><rect class="h" width="9.642" height="9.642" rx="4.821" transform="translate(5272.846 375.338)"/><path class="h" d="M5.885,0h0A5.885,5.885,0,0,1,11.77,5.885v1.24a.44.44,0,0,1-.44.44H.44A.44.44,0,0,1,0,7.125V5.885A5.885,5.885,0,0,1,5.885,0Z" transform="translate(5271.782 385.342)"/></g><rect class="f" width="100.938" height="35.103" rx="6.507" transform="translate(5209.145 387.61)"/><rect class="d" width="98.214" height="32.797" rx="6.204" transform="translate(5210.507 387.61)"/><text class="i" transform="translate(5230.736 408.509)"><tspan x="0" y="0">企</tspan><tspan class="j" y="0">业</tspan><tspan y="0">用</tspan><tspan class="j" y="0">户</tspan></text><g class="g" transform="translate(-55.846 19.602)"><rect class="h" width="9.642" height="9.642" rx="4.821" transform="translate(5272.846 375.338)"/><path class="h" d="M5.885,0h0A5.885,5.885,0,0,1,11.77,5.885v1.24a.44.44,0,0,1-.44.44H.44A.44.44,0,0,1,0,7.125V5.885A5.885,5.885,0,0,1,5.885,0Z" transform="translate(5271.782 385.342)"/></g></g></svg>