<svg xmlns="http://www.w3.org/2000/svg" xmlns:xlink="http://www.w3.org/1999/xlink" width="126.685" height="139.069" viewBox="0 0 126.685 139.069"><defs><style>.a{fill:url(#a);}.b{fill:#0a7da5;opacity:0.15;}.c{fill:url(#b);}.d{fill:#fff;}.e{fill:none;stroke:#fff;stroke-miterlimit:10;stroke-width:0.709px;}.f{fill:#26b7b7;opacity:0.22;isolation:isolate;}.g,.h{fill:#00c7db;stroke:rgba(0,0,0,0);font-family:SourceHanSansSC-Medium, Source Han Sans SC;font-weight:500;}.g{font-size:40px;opacity:0.18;}.h{font-size:12px;}</style><linearGradient id="a" x1="-0.062" y1="-0.101" x2="0.93" y2="0.96" gradientUnits="objectBoundingBox"><stop offset="0" stop-color="#f1f9fb"/><stop offset="1" stop-color="#2ec0d8"/></linearGradient><linearGradient id="b" x1="-0.061" y1="-0.102" x2="0.929" y2="0.96" gradientUnits="objectBoundingBox"><stop offset="0" stop-color="#f1f9fb"/><stop offset="1" stop-color="#b5eff5"/></linearGradient></defs><g transform="translate(-5199.089 -355.604)"><rect class="a" width="89.341" height="117.773" rx="12.744" transform="translate(5214.944 355.604)"/><rect class="b" width="80.875" height="106.613" rx="11.537" transform="translate(5233.167 376.328)"/><rect class="c" width="86.876" height="114.258" rx="12.378" transform="translate(5216.176 355.877)"/><rect class="d" width="77.333" height="85.667" rx="8.897" transform="translate(5220.948 364.788)"/><rect class="d" width="14.563" height="3.167" rx="1.583" transform="translate(5248.174 359.288)"/><circle class="d" cx="1.583" cy="1.583" r="1.583" transform="translate(5264.022 359.288)"/><circle class="d" cx="5.373" cy="5.373" r="5.373" transform="translate(5254.241 455.352)"/><path class="e" d="M5216.176,432.494v25.221a12.421,12.421,0,0,0,12.421,12.42h62.035a12.42,12.42,0,0,0,12.42-12.42V435.75"/><rect class="f" width="83.303" height="48.975" rx="6.507" transform="translate(5205.645 390.336) rotate(-9)"/><rect class="d" width="80.579" height="46.67" rx="6.204" transform="translate(5206.99 390.123) rotate(-9)"/><text class="g" transform="translate(5217.425 435.637) rotate(-9)"><tspan x="0" y="0">VIP</tspan></text><text class="h" transform="translate(5214.795 404.061) rotate(-9)"><tspan x="0" y="0">企业会员</tspan></text></g></svg>