<svg width="46" height="46" viewBox="0 0 46 46" fill="none" xmlns="http://www.w3.org/2000/svg">
<g id="Group 382">
<circle id="Ellipse 43" cx="23" cy="23" r="23" fill="#FF9919" fill-opacity="0.15"/>
<g id="Group 365">
<rect id="Rectangle 345" x="9" y="22" width="2" height="8" rx="1" fill="url(#paint0_linear_275_4248)"/>
<path id="Union" fill-rule="evenodd" clip-rule="evenodd" d="M23 13.9146C23.5826 13.7087 24 13.1531 24 12.5C24 11.6716 23.3284 11 22.5 11C21.6716 11 21 11.6716 21 12.5C21 13.1531 21.4174 13.7087 22 13.9146V18H15C13.3431 18 12 19.3431 12 21V31C12 32.6569 13.3431 34 15 34H31C32.6569 34 34 32.6569 34 31V21C34 19.3431 32.6569 18 31 18H23V13.9146Z" fill="url(#paint1_linear_275_4248)"/>
<rect id="Rectangle 348" x="17" y="22" width="2" height="7" rx="1" fill="white"/>
<rect id="Rectangle 349" x="27" y="22" width="2" height="7" rx="1" fill="white"/>
<rect id="Rectangle 346" x="35" y="22" width="2" height="8" rx="1" fill="url(#paint2_linear_275_4248)"/>
</g>
</g>
<defs>
<linearGradient id="paint0_linear_275_4248" x1="9.26097" y1="22.413" x2="12.5307" y2="23.2733" gradientUnits="userSpaceOnUse">
<stop stop-color="#FFBF36"/>
<stop offset="0.999287" stop-color="#FEA12C"/>
</linearGradient>
<linearGradient id="paint1_linear_275_4248" x1="14.8706" y1="12.1875" x2="33.9718" y2="31.4154" gradientUnits="userSpaceOnUse">
<stop stop-color="#FFBF36"/>
<stop offset="0.999287" stop-color="#FEA12C"/>
</linearGradient>
<linearGradient id="paint2_linear_275_4248" x1="35.261" y1="22.413" x2="38.5307" y2="23.2733" gradientUnits="userSpaceOnUse">
<stop stop-color="#FFBF36"/>
<stop offset="0.999287" stop-color="#FEA12C"/>
</linearGradient>
</defs>
</svg>
