<svg xmlns="http://www.w3.org/2000/svg" xmlns:xlink="http://www.w3.org/1999/xlink" fill="none" version="1.1" width="46" height="46" viewBox="0 0 46 46"><defs><mask id="master_svg1_37_18798"><path d="M33.3881,18.718389375L23.41325,15.800166675C22.826373,15.628458375,22.21308,15.971001375,22.0434937,16.565248375C22.0146537,16.666300375,22,16.770959375,22,16.876149375L22,30.768359375L34.187200000000004,30.768359375L34.187200000000004,19.794419375C34.187200000000004,19.295599375000002,33.8614,18.856859375,33.3881,18.718389375Z" fill="#FFFFFF" fill-opacity="1"/></mask><linearGradient x1="1.3522961139678955" y1="0.6716360449790955" x2="0.8255599141120911" y2="-0.4137245714664459" id="master_svg2_25_04814"><stop offset="0%" stop-color="#00C7DB" stop-opacity="1"/><stop offset="100%" stop-color="#26E0F3" stop-opacity="1"/></linearGradient></defs><clipPath id="master_svg0_37_18795"><rect x="10" y="10" width="28" height="23" rx="0"/></clipPath><g style="mix-blend-mode:passthrough"><g><g style="mix-blend-mode:passthrough"><ellipse cx="23" cy="23" rx="23" ry="23" fill="#00C7DB" fill-opacity="0.15000000596046448"/></g><g clip-path="url(#master_svg0_37_18795)"><g><g style="mix-blend-mode:passthrough"><g><g mask="url(#master_svg1_37_18798)"><g><path d="M38.8807,17.45959L27.59843,14.05174C26.934546,13.851226,26.240986,14.251233,26.0490924,14.945189C26.0165184,15.0632,26,15.18542,26,15.30825L26,32.7345L39.7846,32.7345L39.7846,18.71609C39.7846,18.133589999999998,39.416,17.62128,38.8807,17.45959Z" fill="#00C6DC" fill-opacity="0.5"/></g></g></g></g><path d="M25.460416796875002,10.65039065L14.686526796875,14.12695125C14.328146796875,14.25358125,14.079586796875,14.67792125,14.079586796875,15.16016125L14.079586796875,30.66018125L11.875749796875,30.65928125C11.335321796875,30.65928125,10.897216796875,31.18348125,10.897216796875,31.83008125C10.897216796875,32.47678125,11.335321796875,33.00108125,11.875749796875,33.00108125L36.339116796875004,33.00108125C36.879616796875,33.00108125,37.317716796875004,32.47678125,37.317716796875004,31.83008125C37.317716796875004,31.18348125,36.879616796875,30.65928125,36.339116796875004,30.65928125L26.500016796875002,30.66018125L26.500016796875002,11.68164125C26.500016796875002,11.58683425,26.490416796875,11.49382825,26.471216796874998,11.40234325C26.351816796875,10.83273125,25.899216796875002,10.49538525,25.460416796875002,10.65039065Z" fill-rule="evenodd" fill="url(#master_svg2_25_04814)" fill-opacity="1"/><path d="M16.066650390625,20.11921875C16.066650390625,19.61110275,16.484522390625,19.19921875,16.999983390625,19.19921875L22.599980390625,19.19921875C23.115460390625,19.19921875,23.533320390625,19.61110275,23.533320390625,20.11921875C23.533320390625,20.62733875,23.115460390625,21.03921875,22.599980390625,21.03921875L16.999983390625,21.03921875C16.484522390625,21.03921875,16.066650390625,20.62733875,16.066650390625,20.11921875Z" fill="#E7F6FF" fill-opacity="1"/><path d="M16.066650390625,23.800859375C16.066650390625,23.292743375,16.484522390625,22.880859375,16.999983390625,22.880859375L22.599980390625,22.880859375C23.115460390625,22.880859375,23.533320390625,23.292743375,23.533320390625,23.800859375C23.533320390625,24.308979375,23.115460390625,24.720859375,22.599980390625,24.720859375L16.999983390625,24.720859375C16.484522390625,24.720859375,16.066650390625,24.308979375,16.066650390625,23.800859375Z" fill="#E7F6FF" fill-opacity="1"/></g></g></g></g></svg>