<svg width="46" height="46" viewBox="0 0 46 46" fill="none" xmlns="http://www.w3.org/2000/svg">
<g id="Group 375">
<circle id="Ellipse 38" cx="23" cy="23" r="23" fill="#6786F1" fill-opacity="0.15"/>
<g id="&#231;&#188;&#150;&#231;&#187;&#132; 22&#229;&#164;&#135;&#228;&#187;&#189; 4">
<g id="&#231;&#188;&#150;&#231;&#187;&#132; 22&#229;&#164;&#135;&#228;&#187;&#189; 3">
<g id="&#231;&#156;&#139;&#232;&#181;&#132;&#232;&#174;&#175;&#229;&#164;&#135;&#228;&#187;&#189;">
<g id="&#231;&#188;&#150;&#231;&#187;&#132; 15">
<rect id="&#231;&#159;&#169;&#229;&#189;&#162;" opacity="0.324636" x="23.874" y="11.3843" width="10.8398" height="10.8398" rx="1.3464" transform="rotate(30 23.874 11.3843)" fill="url(#paint0_linear_275_4174)"/>
<g id="&#231;&#159;&#169;&#229;&#189;&#162;_2">
<path id="&#229;&#189;&#162;&#231;&#138;&#182;&#231;&#187;&#147;&#229;&#144;&#136;" fill-rule="evenodd" clip-rule="evenodd" d="M13.1321 12.2371L13.8177 16.0002H16.0849L15.164 10.1022C15.1548 10.0434 15.1041 10 15.0446 10H10.1018C9.49328 10 9 10.4933 9 11.1018C9 11.7103 9.49328 12.2035 10.1018 12.2035H13.0919C13.1116 12.2035 13.1286 12.2177 13.1321 12.2371ZM35.112 16.0019H13.8173L15.9061 29.3172C16.0088 29.9722 16.5732 30.455 17.2362 30.455H33.1519C33.8101 30.455 34.3718 29.9791 34.48 29.3299L36.4401 17.5696C36.5768 16.749 35.944 16.0019 35.112 16.0019ZM19.8398 33.4678C19.8398 34.4655 19.031 35.2744 18.0332 35.2744C17.0354 35.2744 16.2266 34.4655 16.2266 33.4678C16.2266 32.47 17.0354 31.6611 18.0332 31.6611C19.031 31.6611 19.8398 32.47 19.8398 33.4678ZM32.4863 35.2744C33.4841 35.2744 34.293 34.4655 34.293 33.4678C34.293 32.47 33.4841 31.6611 32.4863 31.6611C31.4885 31.6611 30.6797 32.47 30.6797 33.4678C30.6797 34.4655 31.4885 35.2744 32.4863 35.2744Z" fill="url(#paint1_linear_275_4174)"/>
<mask id="mask0_275_4174" style="mask-type:alpha" maskUnits="userSpaceOnUse" x="9" y="10" width="28" height="26">
<path id="&#229;&#189;&#162;&#231;&#138;&#182;&#231;&#187;&#147;&#229;&#144;&#136;_2" fill-rule="evenodd" clip-rule="evenodd" d="M13.1321 12.2371L13.8177 16.0002H16.0849L15.164 10.1022C15.1548 10.0434 15.1041 10 15.0446 10H10.1018C9.49328 10 9 10.4933 9 11.1018C9 11.7103 9.49328 12.2035 10.1018 12.2035H13.0919C13.1116 12.2035 13.1286 12.2177 13.1321 12.2371ZM35.112 16.0019H13.8173L15.9061 29.3172C16.0088 29.9722 16.5732 30.455 17.2362 30.455H33.1519C33.8101 30.455 34.3718 29.9791 34.48 29.3299L36.4401 17.5696C36.5768 16.749 35.944 16.0019 35.112 16.0019ZM19.8398 33.4678C19.8398 34.4655 19.031 35.2744 18.0332 35.2744C17.0354 35.2744 16.2266 34.4655 16.2266 33.4678C16.2266 32.47 17.0354 31.6611 18.0332 31.6611C19.031 31.6611 19.8398 32.47 19.8398 33.4678ZM32.4863 35.2744C33.4841 35.2744 34.293 34.4655 34.293 33.4678C34.293 32.47 33.4841 31.6611 32.4863 31.6611C31.4885 31.6611 30.6797 32.47 30.6797 33.4678C30.6797 34.4655 31.4885 35.2744 32.4863 35.2744Z" fill="white"/>
</mask>
<g mask="url(#mask0_275_4174)">
</g>
</g>
<rect id="&#231;&#159;&#169;&#229;&#189;&#162;_3" x="18.5317" y="26.1021" width="13.955" height="2.14692" rx="1.07346" fill="#E2E8FF"/>
</g>
</g>
</g>
</g>
</g>
<defs>
<linearGradient id="paint0_linear_275_4174" x1="19.9069" y1="15.9398" x2="28.8417" y2="25.8301" gradientUnits="userSpaceOnUse">
<stop stop-color="#7893F9"/>
<stop offset="1" stop-color="#4C73E4"/>
</linearGradient>
<linearGradient id="paint1_linear_275_4174" x1="-1.04926" y1="20.6218" x2="19.5396" y2="45.3822" gradientUnits="userSpaceOnUse">
<stop stop-color="#7893F9"/>
<stop offset="1" stop-color="#4C73E4"/>
</linearGradient>
</defs>
</svg>
