<svg width="46" height="46" viewBox="0 0 46 46" fill="none" xmlns="http://www.w3.org/2000/svg">
<g id="Group 377">
<circle id="Ellipse 44" cx="23" cy="23" r="23" fill="#00C7DB" fill-opacity="0.15"/>
<g id="&#230;&#139;&#155;&#230;&#160;&#135;(1) 1" clip-path="url(#clip0_275_4204)">
<g id="&#233;&#161;&#181;&#233;&#157;&#162;1">
<g id="iPhone-8&#229;&#164;&#141;&#229;&#136;&#182;-3">
<g id="&#231;&#188;&#150;&#231;&#187;&#132;-18">
<g id="&#230;&#139;&#155;&#230;&#160;&#135;">
<g id="&#231;&#188;&#150;&#231;&#187;&#132;-3">
<path id="&#230;&#164;&#173;&#229;&#156;&#134;&#229;&#189;&#162;" d="M22.8107 26.4287C24.6973 26.4287 26.2268 24.8689 26.2268 22.9448C26.2268 21.0207 24.6973 19.4609 22.8107 19.4609C20.924 19.4609 19.3945 21.0207 19.3945 22.9448C19.3945 24.8689 20.924 26.4287 22.8107 26.4287Z" fill="url(#paint0_linear_275_4204)"/>
<path id="&#229;&#189;&#162;&#231;&#138;&#182;&#231;&#187;&#147;&#229;&#144;&#136;" fill-rule="evenodd" clip-rule="evenodd" d="M22.8105 9.875C25.3714 9.875 27.7569 10.6275 29.7583 11.9238L27.5105 13.6472C27.1415 13.9302 26.9033 14.3512 26.8507 14.8137L26.6981 16.1565C25.5576 15.4856 24.2289 15.1008 22.8105 15.1008C18.6503 15.1008 15.2622 18.4103 15.1283 22.5436L15.1242 22.7976V23.0814C15.1242 27.3322 18.5654 30.7782 22.8105 30.7782C26.9706 30.7782 30.3588 27.4687 30.4926 23.3355L30.4967 23.0814V22.7976C30.4967 22.1809 30.4243 21.5811 30.2875 21.0063L31.6001 21.1978C32.0578 21.2643 32.5229 21.1424 32.8894 20.8599L35.1205 19.1408C35.4463 20.2718 35.6209 21.467 35.6209 22.7031V23.176C35.6209 30.2607 29.8855 36.004 22.8105 36.004C15.7354 36.004 10 30.2607 10 23.176V22.7031C10 15.6183 15.7354 9.875 22.8105 9.875Z" fill="url(#paint1_linear_275_4204)"/>
<g id="&#230;&#139;&#155;&#230;&#160;&#135;_2">
<path id="&#229;&#189;&#162;&#231;&#138;&#182;" fill-rule="evenodd" clip-rule="evenodd" d="M23.4875 23.497L28.5823 19.7253C28.6473 19.6772 28.7036 19.6215 28.7541 19.5618L31.8794 20.0017C32.0476 20.0253 32.2186 19.9826 32.3526 19.8806L37.6243 15.9779C37.7724 15.8684 37.8514 15.7204 37.8728 15.5676C37.9179 15.2462 37.707 14.9048 37.3262 14.8512L34.0962 14.3966L34.5331 11.2833C34.6111 10.728 33.9679 10.3544 33.5129 10.6912L28.2376 14.5965C28.1004 14.6981 28.0119 14.8447 27.9887 15.01L27.5504 18.1327C27.5052 18.155 27.4623 18.1839 27.4194 18.2129L22.3247 21.9845C21.9022 22.2973 21.8186 22.8931 22.139 23.3072C22.4595 23.7213 23.0655 23.8066 23.4875 23.497Z" fill="#8EF4FF"/>
</g>
</g>
</g>
</g>
</g>
</g>
</g>
</g>
<defs>
<linearGradient id="paint0_linear_275_4204" x1="24.4555" y1="26.1706" x2="20.8116" y2="20.4284" gradientUnits="userSpaceOnUse">
<stop stop-color="#00C7DB"/>
<stop offset="1" stop-color="#3AEDFF"/>
</linearGradient>
<linearGradient id="paint1_linear_275_4204" x1="28.9785" y1="35.0363" x2="15.3141" y2="13.5028" gradientUnits="userSpaceOnUse">
<stop stop-color="#00C7DB"/>
<stop offset="1" stop-color="#3AEDFF"/>
</linearGradient>
<clipPath id="clip0_275_4204">
<rect width="28" height="27" fill="white" transform="translate(10 9)"/>
</clipPath>
</defs>
</svg>
