<svg xmlns="http://www.w3.org/2000/svg" xmlns:xlink="http://www.w3.org/1999/xlink" fill="none" version="1.1" width="46" height="46" viewBox="0 0 46 46"><defs><linearGradient x1="-0.576901376247406" y1="0.6334445476531982" x2="0.6340134143829346" y2="1.852160096168518" id="master_svg0__4157"><stop offset="0%" stop-color="#5CC7FF" stop-opacity="1"/><stop offset="25.40423274040222%" stop-color="#33A6EC" stop-opacity="1"/><stop offset="100%" stop-color="#118BDD" stop-opacity="1"/></linearGradient><linearGradient x1="-0.576901376247406" y1="0.6334445476531982" x2="0.6340134143829346" y2="1.852160096168518" id="master_svg1__4577"><stop offset="0%" stop-color="#5CC7FF" stop-opacity="1"/><stop offset="25.40423274040222%" stop-color="#33A6EC" stop-opacity="1"/><stop offset="100%" stop-color="#118BDD" stop-opacity="1"/></linearGradient></defs><g style="mix-blend-mode:passthrough"><g><g style="mix-blend-mode:passthrough"><ellipse cx="23" cy="23" rx="23" ry="23" fill="#1BA8F1" fill-opacity="0.15000000596046448"/></g><g style="mix-blend-mode:passthrough"><g><g style="mix-blend-mode:passthrough"><path d="M13.58715,13.49195C12.77779,13.82628,12.24957,14.617560000000001,12.24957,15.49564L12.24957,31.5019L11.12481,31.5019C10.503593,31.5019,10,32.0072,10,32.6304C10,33.2536,10.503593,33.7588,11.12481,33.7588L24.0039,33.7588C24.035600000000002,32.8127,24.2536,31.9141,24.6224,31.0988L24.6224,12.16913C24.6224,10.626757,23.061700000000002,9.578178,21.64,10.165433L13.58715,13.49195ZM24.622500000000002,31.0986C25.1677,29.8938,26.0421,28.8707,27.1305,28.1451C26.424,27.28,26,26.1737,26,24.9682C26,22.1979,28.2386,19.9521,30.9999,19.9521C31.1249,19.9521,31.2488,19.95676,31.3715,19.96575L31.3715,17.86986C31.3715,16.67311,30.4043,15.702950000000001,29.2115,15.702950000000001L24.622500000000002,15.702950000000001L24.622500000000002,31.0986ZM22.3729,17.96297L15.62405,17.96297L15.62405,19.09138L22.3729,19.09138L22.3729,17.96297ZM15.624089999999999,22.4724L22.3729,22.4724L22.3729,23.6009L15.624089999999999,23.6009L15.624089999999999,22.4724Z" fill-rule="evenodd" fill="url(#master_svg0__4157)" fill-opacity="1"/></g><g style="mix-blend-mode:passthrough"><path d="M33.06837002716065,28.54792063140869C34.19665002716064,27.83500063140869,34.948760027160645,26.516110631408694,34.948760027160645,25.054530631408692C34.948760027160645,22.808850631408692,33.17097002716064,20.95517063140869,31.017130027160643,20.95517063140869C28.863290027160645,20.95517063140869,27.051370027160644,22.77321063140869,27.051370027160644,25.054530631408692C27.051370027160644,26.516110631408694,27.803480027160646,27.83500063140869,28.931650027160643,28.54792063140869C26.641080027160644,29.439060631408694,25.000020027160645,31.756170631408693,25.000020027160645,34.50097063140869C25.000020027160645,34.786170631408694,25.205112027160645,34.999970631408694,25.478676027160645,34.999970631408694L36.52132002716064,34.999970631408694C36.79492002716064,34.999970631408694,37.000020027160645,34.786170631408694,37.000020027160645,34.50097063140869C37.000020027160645,31.756170631408693,35.359020027160646,29.439060631408694,33.06837002716065,28.54792063140869Z" fill-rule="evenodd" fill="url(#master_svg1__4577)" fill-opacity="1"/></g></g></g></g></g></svg>