<svg width="46" height="46" viewBox="0 0 46 46" fill="none" xmlns="http://www.w3.org/2000/svg">
<g id="Group 381">
<g id="Group 380">
<circle id="Ellipse 45" cx="23" cy="23" r="23" fill="#FF9919" fill-opacity="0.15"/>
<g id="Group 49">
<g id="&#230;&#143;&#144;&#233;&#134;&#146; (1)">
<path id="&#229;&#189;&#162;&#231;&#138;&#182;" d="M33.6881 28.5997C33.6881 28.5997 33.6881 28.5997 33.6881 28.5997L32.5946 27.2887C32.5394 27.2225 32.4888 27.1526 32.4444 27.0788C31.9817 26.3103 31.5923 25.4758 31.3932 24.5755C31.3499 24.38 31.3333 24.1798 31.3294 23.9796L31.2448 19.6084C31.1565 16.1702 28.8312 13.0672 25.5273 12.0975C25.378 12.0537 25.2722 11.9186 25.2722 11.763V11.763C25.2722 10.7933 24.4577 10 23.4623 10C22.4668 10 21.6524 10.7933 21.6524 11.763V11.763C21.6524 11.8666 21.5815 11.9567 21.4815 11.984C18.0416 12.9238 15.5907 16.0528 15.6797 19.6084V23.702C15.6797 23.911 15.6656 24.1201 15.624 24.3249C15.4343 25.2593 15.0646 26.1334 14.566 26.9473C14.4664 27.1099 14.3496 27.2612 14.2236 27.4044L13.3269 28.4234C12.6029 29.2168 13.1459 30.5391 14.3223 30.5391H32.7832C33.7786 30.6272 34.4121 29.3931 33.6881 28.5998C33.6881 28.5998 33.6881 28.5997 33.6881 28.5997V28.5997Z" fill="url(#paint0_linear_275_4267)"/>
</g>
<g id="Group 48">
<path id="&#232;&#183;&#175;&#229;&#190;&#132;" d="M23.5001 35.1998C25.1135 35.1998 26.4196 33.8498 26.6501 32.0498H20.3501C20.5806 33.8498 21.8867 35.1998 23.5001 35.1998V35.1998Z" fill="url(#paint1_linear_275_4267)"/>
</g>
</g>
</g>
<g id="Group 54">
<g id="Group 55">
<rect id="Rectangle 179" x="20" y="18.6528" width="6.83747" height="1.69218" rx="0.846092" fill="#FFF2D9"/>
<rect id="Rectangle 182" x="21.8442" y="16" width="4.14848" height="1.69218" rx="0.846092" transform="rotate(60 21.8442 16)" fill="#FFF2D9"/>
<rect id="Rectangle 183" width="4.13879" height="1.69218" rx="0.846092" transform="matrix(-0.5 0.866025 0.866025 0.5 24.9438 16.0088)" fill="#FFF2D9"/>
<rect id="Rectangle 181" x="24.1348" y="19.1626" width="6.83747" height="1.69218" rx="0.846092" transform="rotate(90 24.1348 19.1626)" fill="#FFF2D9"/>
<path id="Rectangle 180" d="M20 22.4784C20 22.0111 20.3788 21.6323 20.8461 21.6323H25.9914C26.4587 21.6323 26.8375 22.0111 26.8375 22.4784V22.4784C26.8375 22.9457 26.4587 23.3245 25.9914 23.3245H20.8461C20.3788 23.3245 20 22.9457 20 22.4784V22.4784Z" fill="#FFF2D9"/>
</g>
</g>
</g>
<defs>
<linearGradient id="paint0_linear_275_4267" x1="15.7402" y1="11.0606" x2="32.7563" y2="29.3662" gradientUnits="userSpaceOnUse">
<stop stop-color="#FFBF36"/>
<stop offset="0.999287" stop-color="#FEA12C"/>
</linearGradient>
<linearGradient id="paint1_linear_275_4267" x1="17.7305" y1="33.4903" x2="19.922" y2="38.2689" gradientUnits="userSpaceOnUse">
<stop stop-color="#FFBF36"/>
<stop offset="0.999287" stop-color="#FEA12C"/>
</linearGradient>
</defs>
</svg>
