<svg width="46" height="46" viewBox="0 0 46 46" fill="none" xmlns="http://www.w3.org/2000/svg">
<g id="Group 383">
<circle id="Ellipse 42" cx="23" cy="23" r="23" fill="#6786F1" fill-opacity="0.15"/>
<g id="Group 366">
<rect id="Rectangle 350" x="13.2173" y="10" width="18.4783" height="23.913" rx="2" fill="url(#paint0_linear_275_4259)"/>
<path id="Vector 39" d="M16.4785 15.978H24.6307" stroke="white" stroke-width="2" stroke-linecap="round"/>
<path id="Vector 40" d="M16.4785 20.8696H24.6307" stroke="white" stroke-width="2" stroke-linecap="round"/>
<path id="&#232;&#183;&#175;&#229;&#190;&#132;" d="M34.1691 31.3143L34.169 31.3139C34.1668 31.3009 34.168 31.2904 34.1712 31.2804C34.1744 31.2704 34.1809 31.2578 34.193 31.2443L36.2379 29.1607L36.2389 29.1598C36.8148 28.5698 36.536 27.4966 35.6678 27.3687C35.6671 27.3686 35.6664 27.3685 35.6657 27.3684L32.8274 26.9341L32.8274 26.9341L32.8244 26.9337C32.8244 26.9336 32.8243 26.9336 32.8242 26.9335C32.8204 26.9305 32.8133 26.9234 32.8073 26.9108C32.8072 26.9107 32.8072 26.9107 32.8072 26.9106L31.5345 24.2257C31.5344 24.2255 31.5343 24.2254 31.5342 24.2252C31.1597 23.4321 30.0575 23.4321 29.683 24.2252C29.6829 24.2254 29.6828 24.2255 29.6827 24.2257L28.41 26.9106C28.41 26.9107 28.41 26.9107 28.4099 26.9108C28.4039 26.9234 28.3969 26.9305 28.393 26.9335C28.3929 26.9336 28.3928 26.9336 28.3927 26.9337L28.3898 26.9341L25.5494 27.3687C24.6812 27.4966 24.4024 28.5698 24.9784 29.1598L24.9793 29.1607L27.0243 31.2443C27.0363 31.2578 27.0428 31.2704 27.046 31.2804C27.0492 31.2904 27.0504 31.3009 27.0482 31.3139L27.0481 31.3143L26.5589 34.2649L26.5589 34.2649L26.5579 34.2712C26.4347 35.0791 27.2563 35.8099 28.0585 35.3767L28.0585 35.3767L28.0621 35.3748L30.6011 33.9772C30.6011 33.9772 30.6011 33.9772 30.6011 33.9772C30.6044 33.9755 30.6068 33.9751 30.6086 33.9751C30.6105 33.9751 30.6129 33.9755 30.6161 33.9772L33.1552 35.3748L33.1552 35.3748L33.1587 35.3767C33.961 35.8099 34.7825 35.0791 34.6593 34.2712L34.6593 34.2712L34.6583 34.2649L34.1691 31.3143Z" fill="url(#paint1_linear_275_4259)" stroke="#E8EDFD"/>
<path id="Rectangle 351" d="M9.95654 15.3477C9.95654 14.7954 10.4043 14.3477 10.9565 14.3477H13.2174V30.652H10.9565C10.4043 30.652 9.95654 30.2043 9.95654 29.652V15.3477Z" fill="#C2CFFB"/>
</g>
</g>
<defs>
<linearGradient id="paint0_linear_275_4259" x1="6.58962" y1="19.8919" x2="25.8493" y2="36.366" gradientUnits="userSpaceOnUse">
<stop stop-color="#7893F9"/>
<stop offset="1" stop-color="#4C73E4"/>
</linearGradient>
<linearGradient id="paint1_linear_275_4259" x1="21.2752" y1="28.6267" x2="30.0911" y2="38.3854" gradientUnits="userSpaceOnUse">
<stop stop-color="#7893F9"/>
<stop offset="1" stop-color="#4C73E4"/>
</linearGradient>
</defs>
</svg>
