<svg width="46" height="46" viewBox="0 0 46 46" fill="none" xmlns="http://www.w3.org/2000/svg">
<g id="Group 379">
<circle id="Ellipse 41" cx="23" cy="23" r="23" fill="#E8EDFD"/>
<g id="&#229;&#174;&#162;&#230;&#186;&#144;(2) 1" clip-path="url(#clip0_275_4216)">
<g id="&#233;&#161;&#181;&#233;&#157;&#162;1">
<g id="iPhone-8&#229;&#164;&#141;&#229;&#136;&#182;-3">
<g id="&#231;&#188;&#150;&#231;&#187;&#132;-18">
<g id="&#229;&#174;&#162;&#230;&#186;&#144;">
<g id="&#231;&#188;&#150;&#231;&#187;&#132;-22">
<g id="&#231;&#188;&#150;&#231;&#187;&#132;-13">
<g id="&#231;&#188;&#150;&#231;&#187;&#132;-10">
<g id="&#229;&#174;&#162;&#230;&#186;&#144;_2">
<path id="&#232;&#183;&#175;&#229;&#190;&#132;" fill-rule="evenodd" clip-rule="evenodd" d="M24.2278 23.5732C26.2205 22.3134 27.549 19.9827 27.549 17.4001C27.549 13.4317 24.4089 10.1562 20.6046 10.1562C16.8002 10.1562 13.5998 13.3688 13.5998 17.4001C13.5998 19.9827 14.9282 22.3134 16.921 23.5732C12.8751 25.1479 9.97656 29.2423 9.97656 34.0926C9.97656 34.5965 10.3389 34.9744 10.822 34.9744H30.3268C30.8099 34.9744 31.1722 34.5965 31.1722 34.0926C31.1722 29.2423 28.2737 25.1479 24.2278 23.5732Z" fill="url(#paint0_linear_275_4216)"/>
<path id="&#232;&#183;&#175;&#229;&#190;&#132; 7" fill-rule="evenodd" clip-rule="evenodd" d="M20.7158 25.3745L18.666 31.5509L20.5919 34.0412L22.5179 31.5509L20.7158 25.3745Z" fill="#E8EEFF"/>
<circle id="&#230;&#164;&#173;&#229;&#156;&#134;&#229;&#189;&#162;" cx="20.7382" cy="25.5156" r="1.10933" fill="#E8EEFF"/>
<path id="&#232;&#183;&#175;&#229;&#190;&#132;_2" fill-rule="evenodd" clip-rule="evenodd" d="M30.6487 23.2655C32.1533 22.3663 33.1346 20.6963 33.1346 18.8336C33.1346 16.0718 30.845 13.7595 28.0974 13.6953C28.6207 14.7872 28.8824 16.0076 28.8824 17.2921C28.8824 19.6044 28.032 21.7239 26.4619 23.3297C29.4712 25.1281 31.63 28.0184 32.415 31.4226H35.228C35.6205 31.4226 35.8822 31.1656 35.8822 30.7803C35.8822 27.3119 33.7234 24.3574 30.6487 23.2655Z" fill="url(#paint1_linear_275_4216)" fill-opacity="0.5"/>
</g>
</g>
</g>
</g>
</g>
</g>
</g>
</g>
</g>
</g>
<defs>
<linearGradient id="paint0_linear_275_4216" x1="2.37424" y1="20.4225" x2="22.5754" y2="39.5202" gradientUnits="userSpaceOnUse">
<stop stop-color="#7893F9"/>
<stop offset="1" stop-color="#4C73E4"/>
</linearGradient>
<linearGradient id="paint1_linear_275_4216" x1="23.0831" y1="21.0284" x2="35.7148" y2="28.4588" gradientUnits="userSpaceOnUse">
<stop stop-color="#7893F9"/>
<stop offset="1" stop-color="#4C73E4"/>
</linearGradient>
<clipPath id="clip0_275_4216">
<rect width="26" height="26" fill="white" transform="translate(10 9)"/>
</clipPath>
</defs>
</svg>
