<svg width="20" height="20" viewBox="0 0 20 20" fill="none" xmlns="http://www.w3.org/2000/svg">
<g id="&#231;&#187;&#132; 2418">
<g id="&#231;&#187;&#132; 2418_2" clip-path="url(#clip0_275_4298)">
<path id="&#232;&#183;&#175;&#229;&#190;&#132;" fill-rule="evenodd" clip-rule="evenodd" d="M9.87896 5.74805H9.72896C9.56896 5.74805 9.40896 5.81805 9.29896 5.92805C9.17896 6.04805 9.11896 6.19805 9.11896 6.35805V9.19805L8.72896 8.80805C8.48896 8.56805 8.09896 8.56805 7.86896 8.80805C7.62896 9.03805 7.62896 9.42805 7.86896 9.66805L9.40896 11.178C9.52896 11.298 9.67896 11.358 9.83896 11.358C9.99897 11.358 10.149 11.298 10.269 11.178L11.769 9.67805C12.009 9.44805 12.009 9.05805 11.769 8.81805L11.739 8.79805C11.499 8.56805 11.119 8.57805 10.889 8.80805L10.499 9.19805V6.35805C10.499 6.19805 10.429 6.04805 10.319 5.92805C10.199 5.81805 10.039 5.74805 9.87896 5.74805Z" fill="#0099FF"/>
<path id="&#232;&#183;&#175;&#229;&#190;&#132; 321" fill-rule="evenodd" clip-rule="evenodd" d="M5.42152 1.81055H14.5715C16.5715 1.81055 18.1915 3.43055 18.1915 5.43055V14.5705C18.1915 16.5705 16.5715 18.1905 14.5715 18.1905H5.42152C3.43152 18.1905 1.81152 16.5705 1.81152 14.5705V5.43055C1.81152 3.43055 3.43152 1.81055 5.42152 1.81055ZM17.0497 14.5692C17.0497 15.9392 15.9397 17.0492 14.5697 17.0492H5.42971C4.05971 17.0492 2.94971 15.9392 2.94971 14.5692V5.42922C2.94971 4.05922 4.05971 2.94922 5.42971 2.94922H14.5697C15.9397 2.94922 17.0497 4.05922 17.0497 5.42922V14.5692Z" fill="#0099FF"/>
<path id="&#231;&#159;&#169;&#229;&#189;&#162; 1830" fill-rule="evenodd" clip-rule="evenodd" d="M6.76172 13.4391C6.76172 13.0841 7.04948 12.7964 7.40445 12.7964H12.4404C12.7954 12.7964 13.0832 13.0841 13.0832 13.4391C13.0832 13.7941 12.7954 14.0818 12.4404 14.0818H7.40445C7.04948 14.0818 6.76172 13.7941 6.76172 13.4391Z" fill="#0099FF"/>
</g>
</g>
<defs>
<clipPath id="clip0_275_4298">
<rect width="16.3779" height="16.3787" fill="white" transform="translate(1.81152 1.81055)"/>
</clipPath>
</defs>
</svg>
