<svg width="16" height="16" viewBox="0 0 16 16" fill="none" xmlns="http://www.w3.org/2000/svg">
<g id="Group 170">
<g id="filter">
<path id="Shape" d="M9.16541 14.5098C9.08991 14.5099 9.01516 14.4947 8.94564 14.4653C8.87611 14.4359 8.81323 14.3927 8.76074 14.3384L6.80341 12.3098C6.70236 12.2048 6.64576 12.0648 6.64541 11.9191V7.82843L2.38141 3.71443C2.20093 3.53359 2.07812 3.3033 2.0285 3.05267C1.97889 2.80203 2.00469 2.54232 2.10266 2.30635C2.20063 2.07039 2.36636 1.86877 2.5789 1.72698C2.79144 1.58519 3.04125 1.5096 3.29674 1.50977H12.6967C12.9524 1.50955 13.2024 1.58523 13.415 1.72724C13.6277 1.86924 13.7934 2.07117 13.8911 2.30743C13.9888 2.54369 14.0143 2.80365 13.9641 3.05437C13.914 3.30509 13.7905 3.53528 13.6094 3.71577L9.72808 7.80177V13.9458C9.72841 14.0578 9.6951 14.1674 9.63247 14.2604C9.56983 14.3533 9.48075 14.4253 9.37674 14.4671C9.3096 14.4944 9.23791 14.5089 9.16541 14.5098ZM3.29674 2.6351C3.26368 2.63491 3.23131 2.64455 3.20374 2.66281C3.17618 2.68107 3.15466 2.70712 3.14194 2.73764C3.12922 2.76815 3.12586 2.80177 3.1323 2.8342C3.13873 2.86663 3.15467 2.89642 3.17808 2.91977L7.60941 7.1971C7.71516 7.30333 7.77439 7.44721 7.77408 7.5971V11.6971L8.60341 12.6004V7.5691C8.60293 7.49483 8.61724 7.42121 8.64551 7.35254C8.67378 7.28386 8.71545 7.2215 8.76808 7.1691L12.8147 2.91777C12.8384 2.89466 12.8545 2.86504 12.8612 2.83269C12.8679 2.80033 12.8648 2.76672 12.8523 2.73615C12.8397 2.70558 12.8184 2.67944 12.7909 2.66108C12.7634 2.64273 12.7311 2.63298 12.6981 2.6331L3.29674 2.6351Z" fill="#00C7DB"/>
</g>
</g>
</svg>
