<?xml version="1.0" encoding="utf-8"?>
<!-- Generator: Adobe Illustrator 20.0.0, SVG Export Plug-In . SVG Version: 6.00 Build 0)  -->
<svg version="1.1" id="图层_1" xmlns="http://www.w3.org/2000/svg" xmlns:xlink="http://www.w3.org/1999/xlink" x="0px" y="0px"
	 viewBox="0 0 900 100" style="enable-background:new 0 0 900 100;" xml:space="preserve">
<style type="text/css">
	.st0{fill:#FFFFFF;}
	.st1{fill:#E73828;}
	.st2{fill:#231815;}
	.st3{fill:none;stroke:#231815;stroke-width:0.232;stroke-miterlimit:22.926;}
	.st4{fill:none;stroke:#231815;stroke-width:0.269;}
</style>
<g>
	<rect x="118.7" y="18" transform="matrix(0.7071 -0.7071 0.7071 0.7071 9.4103 121.481)" class="st0" width="65.4" height="62.8"/>
	<polygon class="st1" points="149.8,9.3 192.5,52 192.6,52 192.6,48.2 197,52 197,52 197.1,52 197.1,52 197.1,52 199.5,50 199.5,50 
		197.1,48 151.8,2.9 151.8,2.9 151.8,2.9 151.8,2.9 149.8,0.3 149.8,0.3 147.8,2.9 102.6,48 102.6,48 107,52.1 	"/>
	<polygon class="st1" points="149.8,90.7 107,47.9 107,48 107,51.8 102.8,48 102.8,48 102.7,48 102.6,48 102.6,48 100.1,50 
		100.1,50 102.7,52 147.7,97.3 147.8,97.3 147.8,97.3 149.8,99.7 149.8,99.7 151.8,97.3 197.1,52 197.1,52 192.5,47.9 	"/>
	<rect x="135.2" y="67.4" class="st2" width="29.7" height="3.1"/>
	<path class="st2" d="M130.9,45.2L130.9,45.2l-0.1-0.1l-0.1,0.1c2.2,13.1,3.9,18.3,18.8,19.2l0.1,0l-0.1-0.1
		c-5.9-0.8-7.3-2.7-9.5-7.7l-0.4-0.9l0.4,0.3c1,0.8,1.6,1.1,2.3,1.3l1.3,0.3l2,0.3c-1.8-2.5-2.5-3.3-2.7-4.3c-0.1-0.5-0.1-1,0-1.7
		l0.1-1.3l0-1.8l0.9,2.1c0.3,0.5,0.5,0.9,0.8,1.2c0.3,0.3,0.7,0.6,1.2,0.9l2,1c0-1.1,0-2,0.1-2.7c0.1-0.7,0.3-1.3,0.5-1.9
		c0.4-1.2,0.7-2.5,0.7-5c0.1-0.6,0.1-1.2,0.1-1.7l-0.1-1.8c2.3,2.3,3.4,4,3.9,5.9c0.3,0.9,0.4,1.9,0.4,3.1l0,1.9l0,2.2
		c0.6-0.8,1.2-1.3,1.7-1.7l0.9-0.5l1.1-0.7c0.4-0.3,0.6-0.7,0.7-1.1l0.4-1.2l0,2.9c0,0.8-0.1,1.5-0.3,2.2c-0.4,1.3-1.1,2.5-2.7,4.1
		c1.4,0,2.2-0.1,3-0.3l1.1-0.5l1.5-0.9c-1.9,3.4-3.8,6.5-7.4,8.3c10.9,0,13.2-7,14-16.6L167,49c-0.5,1.7-3.1,2.3-4.8,2.2
		c3.8-5.6,4.1-6.9,2.2-13.5c-1.7,3.3-1.9,3.7-5.2,5.7c2.3-5.3,1.6-8.9-0.9-14c0,3.3-0.3,7.9-3.9,9.2c0.5-2.9,0-5.3-0.9-7.6
		c-0.5-1.2-1-2.3-1.6-3.5l-1.8-3.7c-0.6-1.3-0.8-2.4-0.9-4.4l-0.9,2.6c-0.3,1.6-0.5,3-0.6,4.2l-0.2,3.5c-0.1,2.3-0.5,4.6-1.9,8
		c-0.6-0.7-1-1.6-1.2-2.5l-0.7-2.6c-0.5-1.7-1.2-3.1-3.3-3.6c0.3,1.5,0.4,2.6,0.3,3.6l-0.2,1.4l-0.2,1.3c-0.3,1.7-0.5,3.4,0.5,6.4
		c-2-0.7-2.6-1.6-3.1-2.6l-0.4-0.8l-0.5-0.8c-0.4-0.6-0.9-1.2-1.7-1.8c0.2,1.7,0.3,3,0.4,4.2l0.1,1.6l0.2,1.5c0.3,2,0.8,3.9,2.4,7.1
		c-2.6-0.4-3.6-0.7-4.4-1.4l-0.6-0.6l-0.6-0.7l-1.5-1.8L130.9,45.2z"/>
</g>
<g>
	
		<rect x="216.8" y="18.6" transform="matrix(0.7071 -0.7071 0.7071 0.7071 37.6994 191.0903)" class="st0" width="65.4" height="62.8"/>
	<polygon class="st1" points="249.9,9.3 292.6,52.1 292.7,52 292.7,48.2 297.1,52 297.1,52 297.1,52 297.2,52 297.2,52 299.6,50 
		299.6,50 297.2,48 251.9,2.9 251.9,2.9 251.8,2.9 249.9,0.3 249.9,0.3 247.9,2.9 202.7,48 202.7,48 207.1,52.1 	"/>
	<polygon class="st1" points="249.9,90.7 207.1,47.9 207.1,48 207.1,51.8 202.8,48 202.8,48 202.8,48 202.7,48 202.7,48 200.1,50 
		200.1,50 202.7,52 247.8,97.3 247.8,97.3 247.9,97.3 249.9,99.7 249.9,99.7 251.8,97.3 297.2,52 297.2,52 292.6,47.9 	"/>
	<rect x="237.5" y="68.7" class="st2" width="26.2" height="4"/>
	<path class="st2" d="M250,47.5c4.8,0,8.8,3.9,8.8,8.8c0,4.8-3.9,8.8-8.8,8.8c-4.8,0-8.8-3.9-8.8-8.8
		C241.2,51.4,245.2,47.5,250,47.5z M262.6,52.2l-0.4-1.2c-0.5-1.2-1.2-2.3-2-3.3l-0.2-0.2l0.9-0.6l0.8-0.5c0.3-0.2,0.6-0.6,1-1.1
		l0.2,2.5c0.2,1,0.1,2,0,3L262.6,52.2z M257.7,45.5l-0.3-0.2c-1.1-0.7-2.2-1.3-3.5-1.7l-0.1,0l0.3-0.6c0.3-0.5,0.6-0.8,0.9-1.1
		l0.9-0.9c0.3-0.4,0.6-0.8,0.9-1.5c0.4,0.4,0.5,0.8,0.6,1.3l0,0.9l0,1C257.4,43.5,257.5,44.4,257.7,45.5L257.7,45.5z M252.8,43.3
		l-0.2,0c-0.9-0.2-1.8-0.3-2.7-0.3c-0.9,0-1.8,0.1-2.7,0.3l-0.4,0.1v0c-0.2-1.8,0.1-2.7,0.5-3.5L248,39l0.4-1.1
		c0.3-0.8,0.5-1.8,0.5-3.4c2,2,2.7,3.4,3.1,4.8l0.5,2.4L252.8,43.3L252.8,43.3z M245.5,43.8l-0.7,0.2l-1.7,0.9l-0.7,0.5l-0.1-0.2
		c-0.4-1.6-0.4-2.5-0.1-3.4l0.6-1.8c0.2-0.7,0.5-1.4,0.6-2.5l0.5,2.7c0.1,0.7,0.3,1.4,0.5,1.9C244.7,42.7,245,43.2,245.5,43.8
		L245.5,43.8z M241.1,46.5l-0.5,0.4c-0.9,0.9-1.7,1.9-2.3,3.1l0,0.1l0-0.3c-0.2-1.6-0.4-3.4-0.8-5.7c1.6,1.6,2.1,2.1,2.6,2.3
		L241.1,46.5L241.1,46.5z M236.8,56.9l0,0.7c0.7,6.7,6.3,11.9,13.2,11.9c6.4,0,11.7-4.5,13-10.6l0.2-1.1l1-1.6
		c3.7-6.4,3.5-10.6,1.1-17.2c-0.8,2.2-1.4,2.6-3.5,3.5c0-1.2,0.2-2,0.3-2.6l0.6-1.4c0.3-0.9,0.4-2-0.4-5.4c-0.4,1.2-0.7,1.8-1.2,2.3
		l-0.9,0.6l-1.4,0.7c0.5-2.9,0.6-4.2,0.3-5.6c-0.2-0.7-0.4-1.3-0.8-2.2l-1.5-3.3v1l-0.4,2c-0.1,0.5-0.3,1-0.5,1.4
		c-0.4,0.8-1.1,1.3-2.6,2.1c0.2-3.7-0.3-5.9-1-8l-1.2-3.2c-0.4-1.2-0.9-2.5-1.3-4.2c-0.5,1.6-0.7,2.9-0.9,4.2l-0.2,1.8l-0.1,1.6
		c-0.1,2.2-0.4,4.3-1.8,7.3c-1.6-1.4-1.9-2.5-2.3-3.6l-0.3-0.8l-0.4-0.8c-0.3-0.6-0.8-1.1-1.5-1.8c0.3,1.3,0.3,2.2,0.2,3.1l-0.2,1.2
		l-0.3,1.1c-0.4,1.5-0.8,3-0.2,6.1c-1.4-0.7-2.2-1.3-2.8-2.1l-2.2-2.9c0.6,2.9,0.7,4.6,0.7,6l0,2c0,0.7,0.1,1.4,0.3,2.3
		c-1.4-0.7-3.2-2.1-4.5-3c0.5,2.7,0.6,4.9,0.7,6.7l0,2.5l0,2.2c0.1,2.1,0.4,3.8,1.9,6L236.8,56.9z"/>
</g>
<g>
	
		<rect x="16.8" y="18.1" transform="matrix(0.7071 -0.7071 0.7071 0.7071 -20.4827 49.4501)" class="st0" width="65.4" height="62.8"/>
	<polygon class="st1" points="49.7,9.3 92.5,52.1 92.5,52 92.5,48.2 96.9,52 96.9,52 97,52 97.1,52 97.1,52 99.4,50 99.4,50 
		97.1,48 51.8,2.9 51.7,2.9 51.7,2.9 49.7,0.3 49.7,0.3 47.7,2.9 2.6,48 2.6,48 7,52 	"/>
	<polygon class="st1" points="49.7,90.7 7,47.9 6.9,48 6.9,51.8 2.7,48 2.7,48 2.6,48 2.6,48 2.6,48 0,50 0,50 2.6,52 47.7,97.3 
		47.7,97.3 47.7,97.3 49.7,99.7 49.7,99.7 51.7,97.3 97.1,52 97.1,52 92.5,47.9 	"/>
	<path class="st2" d="M64.2,38.2L64.2,38.2l0-0.1l-0.1,0l-16,11.3l0,0.1v0l0.1,0h0l0.1,0l15.9-10l0-0.1l0,0V38.2z M75.8,42.8
		L75.8,42.8L75.8,42.8l-28.2,7.1l0,0l0,0.1l0.1,0l28.6-6.6l0-0.1l-0.1,0l0,0L75.8,42.8z M63.6,31.2L63.6,31.2L63.6,31.2L63.6,31.2
		L46.2,50v0l0,0v0.1h0.1l0,0h0l0.1-0.1l17.8-18.1v-0.1h-0.1l0,0L63.6,31.2z M67.9,38.7L67.6,40l1.3,0.6l0.9-0.9l1.9,1.3v-2.2
		l-1.3-2.2l-0.6,1.9h-1.6L67.9,38.7z"/>
	<polygon class="st2" points="75.5,52.8 75.4,52.8 50.9,51.9 49.1,51.8 49,51.9 49.1,51.9 49.1,51.9 49.1,51.9 49.1,51.9 49.1,51.9 
		50.1,52 76.1,53.2 76.1,53.2 76.1,53.1 76,53.1 	"/>
	<path class="st2" d="M55.1,59.4l-7.2-5.4l-0.3-0.3l-0.1,0l0,0.1l7.9,6.3l0.1,0l0-0.1l-0.1-0.1L55.1,59.4L55.1,59.4z M57,57.9
		L57,57.9L57,57.9l-8.1-4.6l-0.3-0.2l-0.1,0l0,0.1l8.8,5.4l0.1,0l0-0.1l-0.1-0.1L57,57.9z"/>
	<polygon class="st2" points="57.9,50.9 58.2,52.2 59.8,51.9 60.4,52.5 62.3,52.5 63.5,51.3 61.6,50.3 60.1,49.7 59.1,50.6 	"/>
	<polygon class="st2" points="62,43.1 62,43.4 61.6,44 64.5,44.4 62.6,42.5 	"/>
	<polygon class="st2" points="54.4,37.5 54.1,37.2 53.8,37.8 53.5,39 54.1,39.7 54.4,39.7 55.1,38.7 55.1,38.1 54.8,37.2 	"/>
	<path class="st2" d="M59.1,44.7L59.1,44.7L59.1,44.7L59.1,44.7L49.7,49v0h0l0,0.1l0.1,0l9.4-3.8l0-0.1l-0.1,0V44.7z M79.5,45.7
		L79.5,45.7L79.5,45.7l0-0.1l-31.4,5.3l0,0l0,0.1l0.1,0.1l31.4-4.4l0.1-0.1l-0.1-0.1h0V45.7z"/>
	<path class="st2" d="M49.6,47c-2.2-3.1-8.4-3.3-10.2,2l0.9,0.9l2.2-0.3l2.5,1.3l1.3-1.6l-0.6-1.6l1.9,0.3l0.3-1.3L49.6,47z
		 M39.7,51.9h-0.3c1.6,6.2,9.5,6,11.2,0.6h-0.2l-0.6-0.3l-0.3-0.6l-1.3-0.9v1.3l-1.9,1.2l-2.5-2.2l-1.9,1.6L39.7,51.9z"/>
	<path class="st2" d="M25.6,51.2L25.6,51.2L25.6,51.2L40,51.9l1,0.1l0.1-0.1L41,51.8l0,0l-0.7,0l-15-0.9l-0.1,0.1l0.1,0.1l0.1,0
		L25.6,51.2z M32.2,58.4L32.2,58.4l-0.1,0.1l0.1,0l9.1-5.3l0,0l0-0.1l-0.1,0l-9.1,5.1l0,0.1l0.1,0V58.4z M25.3,56.8L25.3,56.8
		L25.3,56.8l0,0.1l16.6-4.1l0,0l0,0l0-0.1l-0.1,0l-16.7,3.8l0,0.1l0.1,0h0V56.8z"/>
	<path class="st2" d="M33.5,50L33.5,50l-0.1,0l0.1,0.1l7.5,1.2l0,0l0-0.1l0,0l-7.2-1.6l-0.1,0l0,0L33.5,50z M41.2,50.9l0.1,0.1
		l0.1-0.1L36,48l-0.1,0.1l0.3,0.3l0,0L41.2,50.9z"/>
	<polygon class="st2" points="27.8,59.4 28.7,60.7 29.1,59.7 29.7,59.7 30,59.4 30.3,58.8 29.4,58.5 29.1,58.8 28.1,58.1 	"/>
	<polygon class="st2" points="33.1,51.2 32.5,52.2 33.4,52.8 34.7,53.1 35,52.5 35.6,52.5 35.6,51.6 34.7,51.9 34.4,51.2 	"/>
	<polygon class="st2" points="31.9,55.6 32.8,56.6 33.5,56.3 33.5,55.6 	"/>
	<polygon class="st2" points="38.5,57.2 37.8,57.8 37.5,58.1 38.1,58.8 38.8,58.5 39.1,58.8 39.7,58.5 40,57.5 39.4,57.2 	"/>
	<path class="st2" d="M35,55.3L35,55.3L35,55.3l0,0.1l5.6-1.9l0-0.1l0-0.1h-0.1L35,55l0,0.1l0.1,0V55.3z M30.3,53.8l-1.9-1.2
		l-0.6,0.3l-0.3,0.3v0.3L30.3,53.8L20.3,55L20.2,55l0.1,0.1h0v0.2h0l-0.1,0.1l0.1,0.1l21-2.8l0,0h0l0,0l0,0v0l0,0l-0.1,0L30.3,53.8z
		"/>
	<polygon class="st2" points="41.9,50.6 41.9,50.6 41.9,50.6 41.6,50.3 37.2,47.1 37.2,47.2 37.5,47.5 37.5,47.5 41.9,50.7 	"/>
	<polygon class="st2" points="51.6,44.4 50.4,45.3 50.7,45.9 51.9,45.3 52.2,46.2 54.4,44.4 55.4,42.5 53.5,44.1 52.2,44.1 	"/>
	<polygon class="st2" points="48.2,32.4 47.9,33.4 47.2,33.1 46.9,34.6 47.5,35 47.9,36.2 48.5,35.3 49.4,34.3 48.8,32.4 	"/>
	<path class="st2" d="M32.1,62.8L32.1,62.8L32.1,62.8l10.6-9.6l0.1-0.1l0-0.1l-0.1,0l-11.3,9.1l0,0.1l0.1,0l0,0L32.1,62.8z
		 M61.6,54.7l-12.8-1.9L61.3,56L61.6,54.7z M57.9,60.3l-11.3-8.2l-0.3-0.3l-0.1,0l0,0.1l11.3,8.8l0.1,0l0-0.1l0,0L57.9,60.3
		L57.9,60.3z M54.4,54.7l-1.3-0.3L52.9,55l1.2,0.9l1.9,0.3l1.6,0.3v-0.9L56.9,55l-2.2-0.6L54.4,54.7z"/>
	<path class="st2" d="M50.4,31.5L50.4,31.5L50.4,31.5l-0.1,0l-3.5,13.2l0,0l0.1,0.1v0l0.1-0.1l0.1-0.5l4-12.4l0-0.1l-0.1,0l0,0
		L50.4,31.5z M48.4,45.1l7-19.5l-1.3-0.6l-7.3,20.4L48,46l0.1-0.3l0,0l0,0l0,0l0.2-0.3L54.5,35l0-0.1l-0.1,0l0,0l-0.5-0.3l0-0.1
		l-0.1,0L48.4,45.1z"/>
</g>
<g>
	
		<rect x="416.1" y="18.3" transform="matrix(0.7071 -0.7071 0.7071 0.7071 96.3417 331.9053)" class="st0" width="65.4" height="62.8"/>
	<path class="st2" d="M448.2,37.1l-14.5,1.3l-0.4-2.4l0.3,0.1h0.5l13.1-2.3h0c1.4-0.3,2.3,0.4,2.5,1.3
		C449.7,35.8,449.4,36.7,448.2,37.1L448.2,37.1z M449.4,37.1l0.6-0.2l-0.4,0l0.1-0.1c0.5-0.5,0.7-1.2,0.6-1.9
		c-0.2-1.2-1.4-2.2-3.1-1.7l-13,2.3h-0.4l-0.3-0.1l-0.2-0.2l-0.7-0.7l1.1,6.4l0.5-0.4l0.1-0.1l0.3-0.2l0.3-0.2l0.1,0l6.2-1l6.7-1.2
		l0.1,0C448.4,37.6,448.9,37.4,449.4,37.1L449.4,37.1z"/>
	<path class="st2" d="M453.5,36.6L453.5,36.6c-0.8-0.4-1.1-1.2-0.9-2c0.2-0.9,1-1.8,2.4-1.4l14.5,2.6l0.5,0l0.1,0l-0.3,2.4
		L453.5,36.6z M470.3,38.1l0.5-3.7l-0.6,0.6l-0.1,0.1l-0.2,0.1l-0.4,0l-14.4-2.5c-1.8-0.4-2.8,0.7-3.1,1.9c-0.2,1.2,0.4,2.6,2,2.8
		l3.5,0.6l4.4,0.6l1.6,0.2l0.7,0.1l3.3,0.6l0,0l1.1,0.3l0.6,0.5l0.2,0.1l0.5,0.5l0.2-1.5L470.3,38.1L470.3,38.1z"/>
	<polygon class="st2" points="419.4,53.3 419.4,57.8 446.3,57.8 446.3,53.3 436.7,53.3 436.4,53.6 436.1,53.8 435.3,54.2 
		434.4,54.5 433.4,54.6 432.4,54.6 431.9,54.6 431.4,54.5 431.1,54.3 430.7,54.1 430.4,53.8 430,53.3 	"/>
	<path class="st2" d="M432.6,42.7L432.6,42.7l0,0.4l0.1,0.4c0.1,0.3,0.3,0.5,0.7,0.6l0.1,0l0.1,0c0.8-0.3,0.8-1,0.9-1.5v0
		c0-0.4-0.1-0.8-0.3-1.2l-0.7-1.9l-0.4,1.4l-0.2,0.5l-0.2,0.6L432.6,42.7z"/>
	<path class="st2" d="M432.2,48.2L432.2,48.2c0,0.6,0.1,1.4,0.9,1.7l0.1,0l0.1,0c0.7-0.3,0.9-0.9,0.9-1.6c0-0.4-0.2-0.9-0.3-1.3
		l-0.2-0.6l-0.4-1.5l-0.4,1.5l-0.2,0.5C432.4,47.4,432.3,47.8,432.2,48.2z"/>
	<path class="st3" d="M462.3,41.4c0.6,0.5,0.8,1.2,0.8,1.8l0,0.9c0,0.3,0.1,0.5,0.2,0.6l0.9,0.7c0.3,0.2,0.4,0.6,0.3,1.3
		c0.1,0.7,0.4,1.2,1.2,1.4 M465.3,41.8l0,0.5l-0.1,0.4c-0.1,0.3-0.2,0.6-0.1,0.9c0.1,0.3,0.3,0.4,0.6,0.6l0.3,0.3l0.3,0.3l0.1,0.7
		l0,0.7c0.1,0.5,0.2,0.9,0.8,1.2l0,0 M477.2,40.5L477.2,40.5c-0.6,0.6-1.1,1.2-1.2,2.1l0.1,0.5l0,0.4c0,0.3-0.1,0.5-0.4,0.6
		l-0.7,0.4c-0.3,0.2-0.3,0.5-0.3,0.8l0,0.4l0,0.4c0,0.3-0.2,0.5-0.4,0.7l-0.7,0.5 M473.6,41.1l0,0.5l0.1,0.5l0.1,0.5l0,0.5l-0.3,0.5
		l-0.3,0.2c-0.2,0.1-0.4,0.3-0.5,0.8l-0.1,0.9l0,0.5c0,0.3-0.1,0.5-0.8,1.2l0,0 M426.7,45.7L426.7,45.7l0.7,0.8
		c0.2,0.3,0.4,0.6,0.5,1l0,0.5l-0.1,0.3c0,0.2-0.1,0.3,0,0.7l0.3,0.3l0.3,0.1c0.2,0.1,0.4,0.2,0.5,0.5c0.1,0.2,0.1,0.4,0.1,0.6
		l0,0.3l0.1,0.3c0,0.5,0.3,0.7,0.5,1l0.6,0.5 M429.6,47.1l0,0.5l-0.1,0.5l-0.1,0.5V49c0.1,0.2,0.3,0.4,0.5,0.5l0.5,0.5
		c0.2,0.3,0.2,0.6,0.1,0.8l-0.1,0.8c0.1,0.4,0.2,0.6,0.4,0.8l0.7,0.6 M439.3,45.5L439.3,45.5c-0.5,0.5-1.1,1.2-1.2,1.8l0,0.3
		l0.1,0.3c0.1,0.2,0.1,0.4-0.1,0.8c-0.3,0.4-0.5,0.5-0.7,0.6l-0.3,0.1l-0.2,0.2c-0.1,0.2-0.1,0.4-0.2,0.6l0,0.6
		c-0.1,0.6-0.9,1.2-1.2,1.2 M436.3,46.4l0,0.5l0.1,0.4c0.1,0.3,0.2,0.6,0.1,1c-0.2,0.4-0.4,0.6-0.6,0.8l-0.3,0.3l-0.2,0.4
		c0,0.2,0,0.4,0,0.5l0.1,0.5c-0.1,0.3-0.2,0.6-0.4,0.8l-0.6,0.6"/>
	<path class="st2" d="M468.9,42L468.9,42c0,0.5,0.1,1.2,0.8,1.5l0.1,0l0.1,0c0.9-0.1,1-1,1-1.6v0l-0.2-0.6l-0.2-0.5l-0.6-1.9
		l-0.6,1.9C469.1,41.2,469,41.6,468.9,42z"/>
	<path class="st3" d="M477.6,51.9c-1.1,0-2.4,0-3.4-0.3l-0.8-0.4l-0.8-0.5c-0.5-0.3-1-0.6-1.6-0.8c-1.4,1.2-3.8,0.9-5.1-0.3
		c-1.2,0.5-1.9,0.5-2.8,0.6c0,0.5,0.2,0.8,0.4,1l0.4,0.3l0.5,0.2c1.8,0.1,3.5,0.2,5.2-0.1l-1.7,0.2c0.2,2.3,1.4,2.9,3.6,3.2
		 M464.5,51.7l-4,0c-0.7,0.1-1,0.5-0.9,0.9c0,0.4,0.4,0.8,1,0.9h4.8h-6.6c-0.8,0-1.2,0.6-1.2,1.1c0,0.5,0.4,1,1.2,1h6.6h-4.9
		l-0.5,0.1c-0.6,0.3-0.7,0.7-0.6,1c0.1,0.3,0.5,0.6,1,0.6l5.9,0.1l-4,0c-0.5,0.2-0.8,0.5-0.8,0.9c0,0.3,0.2,0.6,0.8,0.8l3,0.2l3,0.2
		l2.6,0c0.8,0,1.6-0.1,2.3-0.4l1.3-0.6c0.4-0.2,0.9-0.3,1.3-0.4l1.9-0.2"/>
	<path class="st2" d="M468.9,46.9c0,0.2,0,0.6,0.1,1c0.1,0.4,0.4,0.8,1,0.7c0.9-0.1,1-1.4,0.8-1.9l-0.1-0.5l-0.2-0.6l-0.2-0.5
		l-0.4-1.5l-0.7,2.1l-0.2,0.6L468.9,46.9z"/>
	<polygon class="st1" points="450,9.2 492.9,52.1 492.9,52 492.9,48.2 497.3,52 497.3,52 497.4,52.1 497.5,52 497.5,52 499.8,50 
		499.8,50 497.5,48 452,2.8 452,2.7 452,2.7 450,0.2 450,0.2 448,2.7 402.7,48 402.7,48 407.2,52.1 	"/>
	<polygon class="st1" points="450,90.8 407.2,47.9 407.1,48 407.1,51.8 402.9,48 402.9,48 402.8,47.9 402.7,48 402.7,48 400.2,50 
		400.2,50 402.7,52 447.9,97.4 447.9,97.4 448,97.5 448,97.5 450,99.8 450,99.8 452,97.5 497.5,52 497.5,52 492.9,47.9 	"/>
</g>
<g>
	
		<rect x="316" y="17.7" transform="matrix(0.7071 -0.7071 0.7071 0.7071 67.4092 260.9878)" class="st0" width="65.4" height="62.8"/>
	<polygon class="st1" points="349.9,9.2 392.8,52.1 392.8,52 392.8,48.2 397.3,52 397.3,52 397.3,52 397.4,52 397.4,52 399.8,50 
		399.8,50 397.4,48 352,2.8 352,2.7 351.9,2.7 349.9,0.2 349.9,0.2 347.9,2.7 302.7,48 302.7,48 307.1,52.1 	"/>
	<polygon class="st1" points="349.9,90.8 307.1,47.9 307,48 307,51.8 302.8,48 302.8,48 302.7,48 302.7,48 302.7,48 300.1,50 
		300.1,50 302.7,52 347.9,97.4 347.9,97.4 347.9,97.5 347.9,97.5 349.9,99.8 349.9,99.8 351.9,97.5 397.4,52 397.4,52 392.8,47.9 	
		"/>
	<path class="st2" d="M328.2,48.5l31.7-8.4c1.3-0.2,2.1,0.4,2.8,1l1.1,0.8c0.4,0.2,0.7,0.3,1.2,0.2l7.3-1.7c0.7-0.1,1.2,0.5,1.4,1.3
		c0.2,0.8,0,1.6-0.6,1.9l-3.5,0.9l-3.5,0.9c-1.1,0.4-1.4,1.2-1.6,2.1l-0.2,0.6l-0.2,0.6c-0.2,0.3-0.4,0.6-0.9,0.7l-32.6,8.9
		c-2,0.5-3.6-1.7-4.1-4.1C325.9,51.6,326.3,48.9,328.2,48.5z"/>
</g>
<g>
	
		<rect x="616.3" y="17.4" transform="matrix(0.7071 -0.7071 0.7071 0.7071 155.5674 473.18)" class="st0" width="65.4" height="62.8"/>
	<polygon class="st1" points="650.1,9.2 693,52.1 693.1,52 693.1,48.2 697.3,52 697.3,52 697.4,52 697.4,52 697.4,52 700,50 700,50 
		697.4,48 652.2,2.8 652.2,2.7 652.1,2.7 650.2,0.2 650.1,0.2 648.1,2.7 602.9,48 602.9,48 607.3,52.1 	"/>
	<polygon class="st1" points="650.2,90.8 607.3,47.9 607.2,48 607.2,51.8 603,48 603,48 602.9,48 602.9,48 602.9,48 600.3,50 
		600.3,50 602.9,52 648.1,97.2 648.1,97.3 648.2,97.3 650.1,99.8 650.2,99.8 652.1,97.3 697.4,52 697.4,52 693,48 	"/>
	<path class="st2" d="M643.3,30.4v0.2v0l0.1,0.5l3.4,22.7c0.1,1.9,1.7,3.5,3.6,3.5c1.9,0,3.5-1.5,3.6-3.4l3.4-22.7l0.1-0.5v-0.2
		c0-2.6-3.2-4.7-7.1-4.7C646.5,25.7,643.3,27.8,643.3,30.4z M650.4,60.5c-3,0-5.4,2.6-5.4,5.8c0,3.2,2.4,5.8,5.4,5.8
		c3,0,5.4-2.6,5.4-5.8C655.9,63,653.4,60.5,650.4,60.5z"/>
</g>
<g>
	
		<rect x="816.7" y="20.2" transform="matrix(0.7071 -0.7071 0.7071 0.7071 212.3056 615.7108)" class="st0" width="65.4" height="62.8"/>
	<polygon class="st1" points="850.4,9.3 893.1,52.2 893.1,52.2 893.1,48.2 897.4,52.1 897.4,52.2 897.5,52.2 897.6,52.2 897.6,52.1 
		900,50.1 900,50.1 897.6,48.1 852.5,2.8 852.5,2.7 852.4,2.7 850.4,0.3 850.4,0.3 848.4,2.7 803,48.1 803,48.1 807.5,52.2 	"/>
	<polygon class="st1" points="850.4,90.7 807.5,48 807.4,48 807.4,52 803.1,48.1 803.1,48 803.1,48 803,48 803,48.1 800.6,50.1 
		800.6,50.1 803,52.1 848.3,97.2 848.3,97.3 848.4,97.3 850.4,99.7 850.4,99.7 852.4,97.3 897.6,52.1 897.6,52.1 893.1,48 	"/>
	<rect x="830.2" y="49.9" class="st2" width="39.7" height="0.6"/>
	<line class="st4" x1="830.2" y1="50.1" x2="869.9" y2="50.1"/>
	<path class="st2" d="M840.2,57.5l-4.7,2.7l0.2,0.5l5.6-0.5l2.2,1.9l1.6-2.4l7.1-1l-5.8-2.9v-7.9l3.8-4.3c0.3-0.4,0.9-0.6,1.5-0.7
		l1-0.1l0.1,0l4.1-6.4l-0.4-0.3l-1.4,1.6l-2.2,2.2c-0.5,0.4-1.1,0.6-1.7,0.7l-1,0.1l-0.9,0l0,0c-0.7,0.1-1.7,1-2.4,1.8l-0.3,0.3
		l0.7-1.6c0.4-0.9,0.6-1.6,0.6-2.3v0l-0.1-0.9l-0.1-0.9c0-0.3,0.1-0.8,0.6-1.6l1.5-2.4l1.6-2.2l0.7-0.9l0.1-0.1v-1.5l-4.9,5.7
		l-0.8-5.8h-1.1l0,0.3l0.1,3l0.2,3.9c0.1,0.6,0.1,1.3,0.1,1.9l0,0.9l-2.6,3.7l-0.9-3.3c-0.6-2-1.2-4.3-1.5-4.9v0l0,0
		c-0.2-0.6-0.2-2-0.1-3.3l0.3-2.4l0-0.4l-1.2,0.3l-0.9,2.7l-2.8-4.3l-0.8,0.7l0.1,0.2l0.6,1.2l1.5,2.7c0.6,1,0.8,2.3,0.9,3.4l0,1.4
		v0.1l-6-3.7v1.5l5.7,4.5c0.5,0.4,0.9,1.3,1.1,2.3l0.3,1.2l-4.5-2.1l-0.1,0c-0.4-0.2-1.5,0.6-2.3,1.2l-1.7,1.4l0.2,0.5l1.1-0.3
		c0.6-0.2,1.1-0.1,1.4,0l0.6,0.2l5.9,3.2L840.2,57.5z"/>
	<path class="st2" d="M865.2,62.6l3.9-1.9L864,57l-6.6,2.1l-4.4,1.4l-1.4,0.4l-0.5,0.1l-0.5,0.1l-1.3,0.5l-4,1.6l-6.8,2.9l-0.2-0.1
		c-0.9-0.2-2.8,0.1-4.3,0.4l-2.5,0.6l-1.1,0.3l0.1,0.6l41.8,0.2l-0.1-2.9h-3l1.6-2.1L865.2,62.6z"/>
	<path class="st0" d="M848.7,61.1c1.4-0.6,3.8-1.6,5.2-3.6l1.7-2.5c0.8-1.1,1.8-2.3,2.9-3.5c2.3-2.3,5.3-4.3,8.8-4
		c-0.4,0.9-1.6,2.9-1.6,2.9l5-1.5c0,0,0.1,6.6-9.3,10.8l-4.3,1.4c-0.8,0.3-1.1,0.4-1.3,0.7l-2.1,3.2l-7.8-3.4
		C845.9,61.6,847.8,61.5,848.7,61.1L848.7,61.1z"/>
	<path class="st4" d="M848.7,61.1c1.4-0.6,3.8-1.6,5.2-3.6l1.7-2.5c0.8-1.1,1.8-2.3,2.9-3.5c2.3-2.3,5.3-4.3,8.8-4
		c-0.4,0.9-1.6,2.9-1.6,2.9l5-1.5c0,0,0.1,6.6-9.3,10.8l-4.3,1.4c-0.8,0.3-1.1,0.4-1.3,0.7l-2.1,3.2l-7.8-3.4
		C845.9,61.6,847.8,61.5,848.7,61.1L848.7,61.1z"/>
	<ellipse class="st2" cx="867" cy="52.8" rx="0.8" ry="0.7"/>
</g>
<g>
	
		<rect x="717.6" y="17.9" transform="matrix(0.7071 -0.7071 0.7071 0.7071 184.8569 544.9593)" class="st0" width="65.4" height="62.8"/>
	<polygon class="st1" points="750.3,9.1 793.2,52.2 793.3,52.2 793.3,48.2 797.6,52.1 797.6,52.2 797.7,52.2 797.8,52.2 797.8,52.2 
		800.2,50.1 800.2,50.1 797.8,48.1 752.4,2.5 752.4,2.4 752.4,2.4 750.3,0 750.3,0 748.3,2.4 702.6,48.1 702.6,48.1 707.2,52.2 	"/>
	<polygon class="st1" points="750.3,90.9 707.2,48 707.1,48 707.1,52 702.8,48.1 702.8,48 702.7,48 702.7,48 702.7,48.1 700.2,50.1 
		700.2,50.1 702.7,52.2 748.2,97.5 748.2,97.6 748.3,97.6 750.3,100 750.3,100 752.4,97.6 797.8,52.1 797.8,52.1 793.2,48 	"/>
	<path class="st2" d="M749.8,67.8L749.8,67.8l-0.4,0.2c-0.1,0.2-0.2,0.4-0.1,0.6l0.1,0.1l0.1,0l-0.1,0.1l-0.2,0.4
		c-0.1,0.5,0.3,0.9,0.8,0.9c0.4,0,0.7-0.3,0.8-0.7c0.1-0.3-0.1-0.6-0.3-0.8l-0.1-0.1l0-0.1l0-0.2l-0.1-0.2l-0.3-0.3L749.8,67.8z
		 M753,64.7h-0.2c-0.4,0.1-0.8,0.5-0.8,1l0.1,0.3l0,0.1L752,66c-0.4-0.2-1,0-1.1,0.5l0,0.3L751,67c0.1,0.2,0.3,0.3,0.5,0.4l0,0.1
		l-0.1,0.5c0,0.4,0.1,0.7,0.4,1l0.1,0.1l0,0.1c-0.1,0.2-0.2,0.5-0.2,0.8c0,0.3,0.1,0.6,0.3,0.9l0.1,0.1l0,0.1l-0.1,0.6V72l-0.1-0.1
		l-0.2,0l-0.1-0.1c0.1-0.1,0.1-0.3,0.1-0.5l-0.2-0.4l-0.2-0.1c-0.3-0.2-0.7-0.2-1,0.1c-0.3,0.3-0.3,0.7-0.1,1l0.1,0.1l-0.1,0.1
		l-0.4,0.4l-0.1,0.3l0,0.3c0.1,0.3,0.4,0.5,0.7,0.6l0.1,0l0,0.1c-0.2,0.3-0.2,0.8-0.1,1.2l0.2,0.4l0.3,0.4l0.1,0.1l-0.1,0l-0.2,0.1
		c-0.9,0.6-1,1.8-0.3,2.5l0.1,0.1l-0.1,0.1l-0.3,0.4c-0.1,0.2-0.1,0.3-0.1,0.6l0,0.4l0,0.1l0,0.1c-0.1,0.3-0.1,0.7,0.1,1l0,0.1
		l-0.1,0.1c-0.2,0.2-0.1,0.5,0,0.6l0.1,0.1l-0.1,0c-0.1,0.1-0.1,0.2-0.1,0.3l0,0.2c-0.1,0.1-0.1,0.2-0.1,0.3l0,0.2l0.2,0.2l7.3-6.7
		l7.3-6.7V70l0-0.4c-0.1-0.2-0.3-0.4-0.5-0.5c-0.1,0-0.4,0-0.5,0l-0.1,0l-0.1-0.2c-0.1-0.2-0.3-0.4-0.5-0.5
		c-0.2-0.1-0.3-0.1-0.5-0.1l-0.5,0.1l-0.1,0.1l0-0.1c-0.1-0.7-0.5-1.2-1.2-1.3l-0.6,0l-0.1,0l0-0.1c0-0.2-0.2-0.4-0.4-0.5
		c-0.2-0.1-0.4-0.1-0.6-0.1c-0.3,0.1-0.6,0.4-0.6,0.8h0l-0.4-0.3c-0.2-0.1-0.3-0.1-0.5-0.1h-0.2l0-0.1c0-0.4-0.3-0.8-0.7-1.1
		c-0.2-0.1-0.3-0.1-0.6-0.1h-0.2l0-0.1c0-0.2-0.2-0.4-0.4-0.5c-0.4-0.2-0.8,0-1,0.3l0,0.1h-0.1l-0.3,0l-0.1,0l-0.1-0.1l-0.3-0.4
		L753,64.7z M745.4,64.5l-0.2,0c-0.3,0.1-0.4,0.3-0.5,0.5l0,0.3l0.1,0.3l0.2,0.2l0.1,0.1l-0.5-0.1c-0.4,0-0.8,0.2-1.1,0.5l-0.1,0.1
		l-0.1-0.1l-0.4-0.2l-0.3,0l-0.3,0c-0.3,0.1-0.6,0.4-0.7,0.7l0,0.1l-0.1-0.1l-0.5-0.1c-0.4,0-0.8,0.2-1,0.6
		c-0.1,0.2-0.1,0.3-0.1,0.5l0,0.2l0,0l-0.6-0.3l-0.4,0l-0.4,0l-0.5,0.2c-0.2,0.1-0.4,0.4-0.6,0.6l0,0.1l-0.1-0.1
		c-0.4-0.2-0.9-0.2-1.2,0.1c-0.2,0.2-0.3,0.4-0.4,0.6v0.5l6.5,6.6l6.7,6.8l0.2,0.3l0.1,0l0.2-0.2l0-0.2l-0.1-0.2l-0.1-0.2l-0.1-0.1
		l0.1,0c0.2-0.1,0.3-0.4,0.2-0.6l-0.2-0.2l0.1-0.1c0.1-0.1,0.2-0.2,0.2-0.4c0-0.2,0-0.3-0.1-0.4l-0.3-0.2l-0.1,0l0.1-0.1
		c0.8-0.6,1-1.7,0.6-2.6l-0.1-0.2l0-0.1l0.1,0c0.5-0.4,0.7-1.1,0.4-1.7c-0.1-0.2-0.3-0.5-0.5-0.6l-0.1-0.1l0.1-0.1
		c0.1-0.1,0.2-0.3,0.2-0.5c0-0.2-0.1-0.4-0.2-0.6l-0.1-0.1l0.1-0.1c0.2-0.3,0.1-0.7-0.1-0.9c-0.2-0.2-0.4-0.3-0.6-0.3l-0.1,0
		c0.1-0.3,0.1-0.7,0-1l0.1-0.1c0.2,0,0.4-0.2,0.5-0.4c0.2-0.4,0.1-0.9-0.3-1.1l-0.1,0l0.1-0.1c0.3-0.3,0.4-0.6,0.4-1
		c0-0.3-0.1-0.5-0.2-0.7l-0.3-0.3l0-0.1l0.2-0.4l0-0.4c0-0.3,0-0.4-0.1-0.6l-0.1-0.2l0.1-0.1l0.2-0.3l0-0.2l0-0.2l-0.3-0.3l-0.3,0
		c-0.2,0-0.3,0-0.4,0.1l-0.1,0.1l-0.1-0.1l-0.4-0.3c-0.3-0.2-0.7-0.2-1-0.1l-0.1,0l0,0c-0.1-0.1-0.3-0.3-0.5-0.4H745.4z M744.5,63
		L744.5,63c-0.2,0.1-0.4,0.2-0.4,0.3l0,0.2l0,0.2l0.3,0.3l0.2,0c0.2,0,0.3,0,0.4-0.2c0.3-0.3,0.2-0.7-0.1-0.9l-0.2-0.1H744.5z
		 M748.7,62.9l-0.2,0c-0.2,0.1-0.3,0.2-0.4,0.4l0,0.3l0,0.3c0.2,0.4,0.7,0.5,1.1,0.2c0.4-0.3,0.3-0.9-0.2-1.2L748.7,62.9z
		 M754.3,61.9l-0.1,0c-0.2,0.1-0.3,0.2-0.4,0.4l-0.1,0.3l0,0.2l0,0.1l-0.1,0l-0.3,0.3l-0.1,0.3l0.1,0.3l0.2,0.3l0.2,0.1
		c0.2,0,0.3,0,0.4-0.1l0.2-0.4l0-0.1l0.1,0c0.6-0.1,0.9-0.8,0.4-1.3l-0.2-0.1l-0.3-0.1H754.3z M744.7,58.4l-0.2,0
		c-0.2,0.1-0.3,0.3-0.3,0.5c0,0.2,0.1,0.4,0.3,0.5c0.1,0.1,0.3,0.1,0.4,0l0.1,0l0.2,0.4c0.4,0.3,0.9,0.2,1.1-0.2l0-0.3l0-0.3
		l-0.3-0.3l-0.3-0.1c-0.2,0-0.3,0-0.4,0.1l-0.1,0.1l0-0.1l-0.2-0.2L744.7,58.4L744.7,58.4z M752.5,57.1h-0.2
		c-0.2,0.1-0.3,0.3-0.4,0.5c0,0.2,0.1,0.4,0.2,0.5l0.3,0.1l0.1,0l0,0.1c0,0.2,0.2,0.4,0.4,0.5c0.2,0.1,0.5,0.1,0.7,0l0.3-0.3
		l0.1-0.3V58l-0.1-0.1c-0.1-0.3-0.3-0.4-0.6-0.5l-0.4,0l-0.1,0l0-0.1l-0.3-0.3L752.5,57.1z M744.3,55.8l-0.1,0l-0.4,0.3
		c-0.1,0.1-0.1,0.2-0.1,0.4l0,0.3c0.2,0.4,0.8,0.5,1.1,0.2c0.4-0.3,0.3-1-0.2-1.2l-0.3-0.1H744.3z M749,55.3L749,55.3
		c-0.2,0.1-0.3,0.2-0.4,0.3c-0.1,0.1-0.1,0.3,0,0.4c0.1,0.2,0.3,0.3,0.5,0.3l0.2,0c0.2-0.1,0.3-0.3,0.3-0.5c0-0.1,0-0.3-0.1-0.4
		C749.3,55.3,749.1,55.3,749,55.3z M750,52.3h-0.2c-0.2,0.1-0.3,0.2-0.4,0.4l-0.1,0.3l0.1,0.3l0.2,0.3l0,0.1
		c-0.2,0.1-0.3,0.2-0.3,0.4l0,0.2c0.1,0.2,0.3,0.3,0.5,0.3c0.2,0,0.3,0,0.4-0.1c0.1-0.1,0.2-0.2,0.2-0.4l0-0.2l-0.1-0.1l-0.1,0
		l0.1,0l0.3-0.3c0.1-0.1,0.1-0.2,0.1-0.4l-0.1-0.3l-0.3-0.3L750,52.3z M766.8,51.6h-0.1c-0.2,0.1-0.4,0.3-0.5,0.5l0,0.1l-0.1,0
		c-0.3-0.1-0.7,0-0.9,0.3l-0.1,0.4V53l-0.1-0.1c-0.5-0.3-1.2-0.2-1.6,0.2c-0.3,0.2-0.4,0.5-0.4,0.8l0,0.2l-0.1,0
		c-0.5-0.1-0.9,0-1.3,0.2c-0.2,0.1-0.5,0.4-0.6,0.6c-0.2,0.3-0.3,0.6-0.3,1l0,0.2l-0.1,0c-0.3-0.1-0.6,0-0.8,0.2l-0.1,0.1l-0.1,0
		c-0.4-0.1-0.8,0-1.1,0.1c-0.4,0.2-0.8,0.6-0.9,1.1l0,0.2l0,0.1l-0.2,0l-0.3,0c-0.3,0.1-0.5,0.3-0.5,0.5c0,0.1,0,0.4,0,0.6l-0.1,0.1
		l-0.5,0l-0.5,0.3c-0.2,0.2-0.3,0.4-0.3,0.7c0,0.2,0.1,0.4,0.2,0.6l0,0.1l-0.3,0.2L755,61l0,0.2l0,0.2c0.2,0.4,0.8,0.4,1,0l0.1-0.1
		l0.4,0.1h0.2l0,0.2l0.1,0.5l-0.1,0l-0.3,0.2c-0.3,0.3-0.2,0.9,0.2,1.1l0.3,0.1l0.3-0.1l0.3-0.3l0.1-0.1l0.1,0
		c0.2,0.1,0.5,0.1,0.7,0.1l0.1,0l0,0.1l0,0.3l0.1,0.4l-0.1,0c-0.2,0-0.4,0.2-0.5,0.4l0,0.2c0,0.2,0.1,0.3,0.2,0.4
		c0.1,0.1,0.2,0.1,0.4,0.1c0.2,0,0.4-0.2,0.5-0.4l0,0.1c0.1,0.4,0.4,0.7,0.8,0.8l0.6,0.1l0.6-0.1l0.1-0.1l0,0.1l0.3,0.5l0.5,0.3
		l0.3,0l0.3,0l0.3-0.2l0.1-0.1v0.1c0,0.7,0.6,1.3,1.4,1.3l0.5-0.1l0.1,0c-0.3,0.5,0.1,1.2,0.8,1.2c0.3,0,0.4-0.1,0.7-0.3l3.8-3.5
		l3.6-3.3v-2.7v-2.7l0-0.2l-0.3-0.8c-0.2-0.5-0.6-0.9-1-1.3c-0.6-0.6-1.3-1.1-2.1-1.4L766.8,51.6z M733.4,51.4h-0.1l-0.2,0.1
		l-0.8,0.3l-3.6,1.4c-1.1,0.6-1.9,1.8-2.1,3v2.5v2.3l3.7,3.7l3.7,3.8h0.5c0.2-0.1,0.5-0.3,0.6-0.4l0.1-0.1l0.1,0
		c0.2,0,0.6,0.1,0.7,0c0.4-0.1,0.7-0.4,0.9-0.7l0.1-0.6v-0.2l0.1,0.1l0.4,0.2l0.3,0l0.4,0c0.3-0.1,0.6-0.4,0.7-0.7l0-0.3l-0.1-0.5
		l0.1-0.1l0.3-0.2l0.1-0.1l0.1,0.1l0.2,0.1l0.3,0.1l0.3-0.1c0.5-0.2,0.6-0.8,0.3-1.2l0-0.1l0.1-0.1c0.2-0.1,0.4-0.3,0.4-0.5l0-0.1
		l0.1,0.1l0.5,0.3l0.1,0l-0.1,0.1c-0.2,0.4,0.1,1,0.5,1.1c0.6,0.1,1-0.4,0.9-0.9c0-0.2-0.2-0.4-0.4-0.5l-0.1,0l0,0
		c0.1-0.1,0.3-0.4,0.3-0.6v-0.5l0,0l0.1,0l0.3-0.1l0,0.1l0.2,0.3l0.1,0.1l0.2,0l0.2,0l0.3-0.3c0.1-0.1,0.1-0.3,0-0.4
		c-0.1-0.2-0.2-0.3-0.4-0.3l-0.1,0c0.1-0.2,0.1-0.4,0.1-0.6l0-0.1l0.3-0.1c0.2-0.2,0.2-0.5,0-0.7l-0.3-0.2h-0.1l0-0.1
		c0-0.3-0.2-0.6-0.4-0.8l-0.1-0.1l0-0.2l-0.1-0.5c-0.1-0.3-0.3-0.5-0.6-0.6c-0.2-0.1-0.3-0.1-0.6-0.2c-0.3,0-0.4,0-0.6,0.1l-0.1,0
		l0-0.3c-0.1-0.4-0.4-0.7-0.8-0.6l-0.1,0v-0.2c0-0.4-0.1-0.7-0.4-1c-0.2-0.2-0.3-0.3-0.6-0.3l-0.4,0c-0.2,0-0.4,0-0.6,0.1l-0.1,0.1
		l0-0.1l-0.4-0.4l-0.2-0.1l-0.1-0.1l0-0.1l0-0.2c0-0.3-0.2-0.5-0.4-0.6l-0.3-0.1l-0.2,0l-0.1,0l0-0.1c0-0.3-0.2-0.6-0.4-0.8
		c-0.2-0.2-0.5-0.4-0.8-0.4l-0.5,0l-0.1-0.1l-0.3-0.3c-0.2-0.1-0.5-0.1-0.7,0l-0.1,0l0-0.1c-0.1-0.2-0.3-0.4-0.5-0.5H733.4z
		 M750.1,19.4h-0.9c-1.3,0.1-2.7,0.4-3.9,1.1c-1.3,0.6-2.3,1.5-3.3,2.5c-0.9,1-1.7,2.4-2.2,3.8c-0.7,1.9-0.8,3.9-0.5,6.4
		c0.3,2.3,0.9,4.6,1.8,6.7l0.8,1.7c0.5,0.9,1,1.6,1.5,2.3l0.1,0.2l-0.4,3.7l-3.9,1.4l-4,1.4l-0.1,0v0.1c0.1,0.5,0.6,0.8,1,1l0.6,0
		l0.1,0l0.1,0.1c0.1,0.3,0.4,0.6,0.7,0.7l0.6,0.1l0.2,0l0,0.1c0.1,0.4,0.4,0.6,0.7,0.8c0.3,0.1,0.6,0.2,1,0l0.1,0.1
		c0.1,0.3,0.4,0.6,0.7,0.6l0.2,0l0.1,0l0.1,0l0,0.1c0.1,0.4,0.4,0.7,0.8,0.9c0.2,0.1,0.3,0.1,0.6,0.1l0.4,0c0.3-0.1,0.5-0.3,0.7-0.5
		l0.1-0.2l0,0l0.1,0.1c0.3,0.2,0.7,0.2,1.1,0.1l0.1,0l0.1,0.1c0.2,0.2,0.4,0.5,0.7,0.6l0.1,0l0,0.1c0,0.2,0,0.3,0.1,0.4
		c0.1,0.1,0.2,0.1,0.4,0.1c0.3,0,0.5-0.2,0.5-0.5l0-0.2l0-0.1l0.1-0.1c0.4-0.2,0.7-0.5,0.8-1l0-0.4c0-0.3,0-0.4-0.1-0.7l-0.1-0.1
		l0.1,0c0.3-0.1,0.4-0.4,0.3-0.7l-0.2-0.2l0,0l0.1-0.1l0.2-0.4l0-0.3l0-0.2l0.1,0c0.4-0.2,0.7-0.6,0.8-1c0.1-0.4,0-0.7-0.3-1.1
		l-0.1-0.1h0.1c0.1,0,0.3,0,0.3-0.1c0.1-0.1,0.1-0.2,0.1-0.4c0-0.1,0-0.2-0.1-0.3l-0.3-0.1l-0.2,0l-0.1,0l-0.1-0.1l-0.1-0.1
		l-0.3-0.1l0-0.1l0.2-0.5l0-0.7l0-0.2l0.1-0.1c0.3-0.1,0.5-0.4,0.7-0.7l0.1-0.5l0-0.3l-0.2-0.5l-0.1-0.1l0.1-0.1
		c0.2-0.1,0.4-0.4,0.5-0.6V43c-0.1-0.2-0.2-0.4-0.4-0.5l-0.1-0.1l0.1-0.1c0.1-0.1,0.1-0.3,0.1-0.5v-0.2l0.1,0l0.2-0.1l0.1-0.1l0,0.1
		c0,0.3,0.1,0.5,0.3,0.7l0.1,0.1l0,0.1c0,0.2,0,0.5,0,0.7c0.1,0.4,0.3,0.7,0.7,0.9l0.1,0.1l0,0.2c-0.1,0.5,0.2,1.1,0.6,1.5l0.1,0.1
		l-0.1,0c-0.2,0.1-0.4,0.3-0.5,0.5c-0.2,0.4-0.1,1,0.3,1.3l0.1,0.1l0.1,0l0,0.1c-0.2,0.4,0,0.8,0.3,1.1l0.1,0.1l0,0.1
		c-0.1,0.4-0.1,0.9,0,1.3l0,0.1l-0.1,0.1l-0.1,0.1l-0.1,0c-0.3-0.2-0.6-0.1-0.7,0.2c-0.1,0.1-0.1,0.3,0,0.4c0.1,0.2,0.2,0.3,0.4,0.3
		h0.1l0,0.2c0,0.3,0.1,0.5,0.2,0.8l0.1,0.1l0,0.1c-0.1,0.2-0.2,0.6-0.2,0.9c0,0.4,0.1,0.8,0.4,1.1l0.1,0.1l0,0.1
		c-0.1,0.2-0.1,0.5-0.1,0.6c0.1,0.3,0.3,0.6,0.6,0.7h0.5c0.3-0.1,0.6-0.4,0.6-0.7l0.1-0.1l0.5-0.1h0.2l0.3,0.3
		c0.4,0.2,0.8,0,0.9-0.3l0.1-0.3l-0.1-0.3l-0.3-0.3l-0.1,0l0-0.1l0.1-0.2l0-0.1l0.1,0l0.3,0l0.2,0l0.1,0.1c0.1,0.2,0.3,0.3,0.5,0.4
		l0.4,0l0.4-0.2l0.1-0.1l0,0.1c0,0.1,0.2,0.3,0.4,0.4l0.3,0.1c0.3,0,0.5-0.1,0.6-0.2l0.1-0.1l0.1,0l0.4,0.1l0.2,0
		c0.3-0.1,0.6-0.3,0.7-0.7c0.1-0.2,0-0.5-0.1-0.6l0-0.1l0.1,0l0.4-0.1c0.3-0.1,0.4-0.4,0.4-0.7l0.1,0c0.1,0.2,0.4,0.3,0.6,0.4h0.4
		c0.3-0.1,0.6-0.4,0.7-0.7l0-0.2l0.1-0.1c0.2-0.1,0.3-0.3,0.3-0.5l0-0.1h0.1c0.2,0,0.3,0,0.4-0.1l0.1-0.1l0.1-0.2v-0.2l-4.4-1.4
		l-4.4-1.4v-0.7l0-1.7l0-1l0.1-0.1c0.6-0.7,1-1.2,1.4-1.9c0.6-1,1.1-2,1.5-3.2c0.9-2.6,1.6-5.3,1.8-7.6l0-1.6
		c-0.2-2.6-1.6-5.4-3.6-7.5c-1.2-1.3-2.6-2.2-4.1-2.7C751.8,19.6,750.9,19.4,750.1,19.4z"/>
</g>
<g>
	<polygon class="st0" points="550.1,0 501.5,50 550.1,100 598.6,50 	"/>
	<path class="st2" d="M546.7,38.5h-4.5c-0.4,0-1,0.3-1,1.1c0,0.8,1,3.9,3.4,3.9c0.8,0,1.4-0.3,1.8-0.7l0.6-0.7l0.6-0.8
		c0.5-0.6,0.7-1.2,0.7-1.5C548.3,38.9,547.2,38.5,546.7,38.5z M558.8,38.5h-4.5c-0.5,0-1.6,0.4-1.6,1.2c0,0.3,0.2,0.9,0.7,1.5
		l0.6,0.8l0.6,0.7c0.5,0.4,1.1,0.7,1.9,0.7c2.4,0,3.4-3.1,3.4-3.9C559.8,38.9,559.2,38.5,558.8,38.5z"/>
	<path class="st2" d="M557,46.5l-1,0.6l-0.7,0.6c-0.4,0.4-0.6,0.9-0.6,1.8v0.9c0,0.5-2,1.9-4.1,1.9c-1.9,0-4.1-1.4-4.2-1.9l0-1
		c0-0.8-0.2-1.3-0.6-1.7c-0.4-0.4-0.9-0.8-1.7-1.2l-1.6-1l-0.4-0.3l-1-0.6l-0.7-0.7c-0.4-0.5-0.7-1.1-0.7-2.1c0-1.1,0.1-1.8,0.2-2.3
		l0.2-0.7l0.1-0.5c0-0.3-0.2-1.1-0.3-1.9l-0.3-1.7v-0.5c0-1,0.1-1.7,1.5-3.1c0.1-0.1,0.3-0.4,0.2-0.6l-0.4-0.5
		c-0.2-0.2-0.6-0.2-0.7,0c-1.7,1.5-2,2.7-2,4.2v0.5l0,0.4l0.2,0.7c-0.6-1.1-1.1-2.3-1.1-3.5c0-0.7,1.4-2,2.9-3.4l0.6-0.6l1.4-1.4
		c1-1,1.7-1.8,2.6-2.2c2-1.1,3.9-1.4,5.8-1.4c4,0,5.9,1.7,8.3,4l1.3,1.2l0.5,0.4c1.6,1.4,3,2.7,3,3.5c0,1-0.3,1.9-0.8,2.8l0-1
		c0-1.6-0.4-2.3-2-3.9l-1,1c1.5,1.6,1.6,1.9,1.6,2.9l0,0.7l-0.3,1.3l-0.4,1.9l0.1,0.2c0,0,0.5,1.8,0.5,3.6c0,0.9-0.3,1.5-0.7,2
		l-0.8,0.7l-0.9,0.6l-0.4,0.3L557,46.5z M571.1,55.3c-0.5,0-1,0.1-1.4,0.2l-1.1,0.4l-0.7,0.2l-0.6,0.1l-0.6,0l-0.3-0.1l-0.5-0.2
		l-7.1-3.5L559,52l8.5-4.4l0.9-0.3l0.6,0h0.2c0.3,0,0.8,0.2,1.2,0.5l1,0.5c0.4,0.1,0.7,0.2,1.1,0.2c1.2,0,2.1-1,2.1-2.3v-1.4
		c0-0.8-0.5-1.8-1.5-2.4c-0.1-0.9-0.2-1.8-0.8-2.4c-0.4-0.4-0.9-0.6-1.5-0.6c-1.5,0-2.7,0.9-3.3,1.7l-0.2,0.3l-0.9,1.3
		c-0.4,0.5-0.8,0.9-1.3,1.1l-4.2,2.1c1.1-0.8,2-1.9,2-3.9c0-1.2-0.2-2.4-0.4-3.2l0.3-0.4c0.5-0.8,1.1-1.7,1.6-2.7
		c0.5-1,0.8-2.1,0.8-3.3c0-0.7-0.4-1.4-1-2.1l-1.1-1.1l-1.4-1.3l-0.5-0.4l-1.3-1.2c-1.2-1.2-2.4-2.3-3.9-3.1
		c-1.4-0.8-3.2-1.4-5.4-1.4c-2.1,0-4.2,0.6-6.4,1.7c-0.6,0.3-1,0.7-1.5,1.1l-1.5,1.4l-1.3,1.3l-0.6,0.6c-1.9,1.8-3.3,3.1-3.3,4.5
		c0,1.2,0.3,2.3,0.8,3.3c0.5,1,1.1,1.9,1.6,2.7l0.2,0.3c-0.1,1.1-0.3,2.5-0.3,3.5c0,1.4,0.6,2.3,1.4,3.1l-3-1.5
		c-0.5-0.2-0.9-0.7-1.3-1.1l-0.9-1.3l-0.2-0.3c-0.6-0.8-1.8-1.7-3.2-1.7c-0.6,0-1.2,0.2-1.5,0.6c-0.6,0.6-0.7,1.4-0.8,2.4
		c-1,0.6-1.5,1.7-1.5,2.4v1.4c0,1.4,0.9,2.3,2.1,2.3c0.4,0,0.8-0.1,1.1-0.2l1-0.5c0.5-0.2,0.9-0.5,1.2-0.5h0.2c0.3,0,0.7,0,1.5,0.3
		l7.8,4.1l0.2,1l-6.6,3.2l-0.5,0.2l-0.3,0.1l-0.6,0l-0.6-0.1l-0.6-0.2l-1.1-0.4c-0.4-0.1-0.9-0.2-1.4-0.2c-1.5,0-3.6,1.1-3.6,2.7
		c0,1.5,0.9,1.9,2.4,2.6L530,61l0.4,1.9c0.2,1.3,1.5,2.1,2.6,2.1c1.6,0,3-1.6,3.1-2.6c0.2-1.3,0.8-2.2,1.9-2.8L539,59l6-2.9l1.3,0.8
		c1.2,0.6,3.4,1.5,4.4,1.5c0.5,0,1-0.2,1.7-0.4l2.1-1l0.1,0c0.6-0.3,1.2-0.7,1.6-1.1l7.4,3.7c1.1,0.5,1.7,1.5,1.9,2.8
		c0.1,1,1.5,2.6,3.1,2.6c1.1,0,2.4-0.8,2.6-2.1l0.3-1.9l0.7-0.3c1.5-0.7,2.4-1.2,2.4-2.6C574.7,56.3,572.6,55.3,571.1,55.3z
		 M550.9,44c-0.5,0-0.8,0.2-1.2,0.7c-0.3,0.4-0.5,0.9-0.6,1.4l-0.2,0.7l-0.2,0.5c-0.4,0.5-0.5,1-0.5,1.3c0,0.3,0.1,1,1.2,1
		c0.6,0,0.7-0.1,0.9-0.2l0.3-0.2l0.5-0.1l0.4,0.1l0.3,0.2c0.2,0.1,0.4,0.2,0.9,0.2c1,0,1.2-0.8,1.2-1.1c0-0.2-0.1-0.4-0.3-0.6
		l-0.3-0.3L553,47l-0.2-0.7l-0.4-1C552,44.6,551.6,44,550.9,44z"/>
	<path class="st1" d="M550.1,92.1L509.2,50l40.9-42.1L590.9,50L550.1,92.1z M550.1,0l-48.6,50l48.6,50l48.5-50L550.1,0z"/>
	<path class="st0" d="M573.1,46.2L573.1,46.2l0.1-1.5l0,0l0-0.2l-0.1,0l0,0.1l0.1,0.2l0,0l0,0l0,0c0,0.4-0.3,0.7-0.7,0.7l-0.1,0.1h0
		c-0.4,0-0.6-0.3-0.6-0.7l0-0.8l0-1.7c0-0.6-0.1-1-0.4-1.3c-0.1-0.1-0.2-0.2-0.5-0.2c-1,0-1.7,0.6-2.1,1.1l-0.2,0.3
		c-0.6,0.8-1.5,2.2-2.7,2.9l-6.7,3.2v2l7.8-4.1l0,0c1-0.5,1.8-0.5,2.1-0.4l0.1,0c0.6,0,1.2,0.3,1.8,0.6l0.8,0.4
		c0.3,0.1,0.5,0.2,0.7,0.2C573,47,573.1,46.6,573.1,46.2L573.1,46.2z M556.4,43.5c-0.8,0-1.4-0.3-1.9-0.7l-0.6-0.7l-0.6-0.8
		c-0.5-0.6-0.7-1.2-0.7-1.5c0-0.8,1.2-1.2,1.6-1.2h4.5c0.4,0,1,0.3,1,1.1C559.8,40.4,558.8,43.5,556.4,43.5z M557.6,47.9
		c-1.4,0.8-1.5,0.9-1.5,1.6v0.9c0,1.7-3.2,3.4-5.6,3.4c-2.2,0-5.6-1.5-5.6-3.3l0-1c0-0.7-0.1-0.8-1.6-1.6l-0.1,0v3.6
		c0,1,1.3,3,3.6,4.3c1.4,0.8,3.3,1.3,3.8,1.3c0.6,0,2-0.7,3.1-1.3l0.1,0c2.3-1.2,3.6-3.3,3.6-4.3V47.9z M552.5,49.5
		c-0.5,0-0.7-0.1-0.9-0.2l-0.3-0.2l-0.4-0.1l-0.5,0.1l-0.3,0.2c-0.2,0.1-0.3,0.2-0.9,0.2c-1.1,0-1.2-0.7-1.2-1
		c0-0.3,0.1-0.8,0.5-1.3l0.2-0.5l0.2-0.7c0.1-0.5,0.3-1,0.6-1.4c0.4-0.5,0.7-0.7,1.2-0.7c0.7,0,1.2,0.6,1.5,1.3l0.4,1L553,47
		l0.2,0.4l0.3,0.3c0.2,0.2,0.3,0.4,0.3,0.6C553.7,48.8,553.5,49.5,552.5,49.5z M571.1,56.8c-0.8,0-1.4,0.2-2,0.5l-0.8,0.3l-0.9,0.1
		c-0.9,0-1.2-0.1-1.6-0.3l-0.3-0.2l-7.2-3.5l-0.8,1.1l6.9,3.4c1.1,0.5,2.4,1.6,2.7,3.9c0,0.4,0.9,1.4,1.7,1.4c0.5,0,1.1-0.3,1.2-0.9
		l0.8-4.2c0.1-0.4,0.5-0.6,0.8-0.6c0.4,0.1,0.6,0.5,0.6,0.9l-0.1,0.5c1.2-0.6,1.3-0.7,1.3-1.2C573.3,57.5,572.1,56.8,571.1,56.8z
		 M536.2,57.1l-0.3,0.2c-0.4,0.2-0.7,0.3-1.6,0.3c-0.6,0-1.2-0.2-1.7-0.4l-0.9-0.3c-0.3-0.1-0.7-0.1-1.1-0.1c-1,0-2.2,0.7-2.2,1.2
		c0,0.4,0.1,0.5,1.3,1.2l-0.1-0.5c-0.1-0.4,0.2-0.8,0.5-0.9c0.4-0.1,0.8,0.2,0.8,0.6l0.8,4.2c0.1,0.5,0.7,0.9,1.2,0.9
		c0.8,0,1.7-1,1.7-1.4c0.3-2.3,1.6-3.4,2.7-3.9l1.1-0.5l5.4-2.6l-0.9-1.1L536.2,57.1z M528.6,44.8L528.6,44.8l0-0.4l-0.1-0.1
		l-0.1,0.1L528.6,44.8L528.6,44.8l-0.1,1.3c0,0.4,0.1,0.9,0.7,0.9c0.4,0,1-0.3,1.6-0.6c0.6-0.3,1.2-0.6,1.8-0.6l0.1,0l0.8,0
		c0.4,0.1,0.8,0.2,1.3,0.4l7.2,3.7v-2l-6-2.9c-0.6-0.3-1.2-0.8-1.6-1.4l-1.1-1.5l-0.2-0.3c-0.4-0.5-1.1-1.1-2.1-1.1
		c-0.3,0-0.5,0.1-0.5,0.2c-0.2,0.2-0.3,0.7-0.4,1.3l0,0.9l0,0.8l0,0.8c0,0.4-0.3,0.7-0.7,0.7C528.9,45.5,528.6,45.2,528.6,44.8
		L528.6,44.8z M544.6,43.5c-2.4,0-3.4-3.1-3.4-3.9c0-0.8,0.6-1.1,1-1.1h4.5c0.5,0,1.6,0.4,1.6,1.2c0,0.3-0.2,0.9-0.7,1.5l-0.6,0.8
		l-0.6,0.7C546,43.2,545.4,43.5,544.6,43.5z M561.4,42c0-1.7-0.5-3.6-0.5-3.6l-0.1-0.2l0.4-1.9l0.3-1.3l0-0.7c0-1-0.1-1.3-1.6-2.9
		l1-1c1.6,1.7,2,2.4,2,3.9l0,1c0.4-0.9,0.8-1.8,0.8-2.8c0-0.8-1.5-2.1-3-3.5l-0.5-0.4l-1.3-1.2c-2.4-2.3-4.4-4-8.3-4
		c-1.9,0-3.8,0.4-5.8,1.4c-0.9,0.5-1.7,1.2-2.6,2.2l-1.4,1.4l-0.6,0.6c-1.5,1.4-2.9,2.7-2.9,3.4c0,1.2,0.5,2.4,1.1,3.5l-0.2-0.7
		l0-0.4v-0.5c0-1.4,0.4-2.6,2-4.2c0.1-0.1,0.6-0.2,0.7,0l0.4,0.5c0.1,0.2,0,0.5-0.2,0.6c-1.4,1.3-1.5,2.1-1.5,3.1v0.5l0.3,1.7
		c0.2,0.8,0.3,1.6,0.3,1.9l-0.1,0.5l-0.2,0.7c-0.1,0.5-0.2,1.2-0.2,2.3c0,1,0.2,1.6,0.7,2.1l0.7,0.6l1,0.6l0.4,0.3l1.5,1
		c1.5,0.9,2.3,1.4,2.3,3l0,1c0.1,0.5,2.2,1.9,4.2,1.9c2.1,0,4.1-1.4,4.1-1.9v-0.9c0-0.8,0.2-1.3,0.6-1.8l0.7-0.6l1-0.6l1.5-0.9
		l0.4-0.3l0.9-0.6l0.8-0.7C561.1,43.5,561.4,42.9,561.4,42z M572.3,60.6l-0.7,0.3l-0.4,1.9c-0.2,1.3-1.5,2.1-2.6,2.1
		c-1.6,0-3-1.6-3.1-2.6c-0.2-1.3-0.8-2.2-1.9-2.8l-7.4-3.7c-0.5,0.4-1,0.8-1.6,1.1l-0.1,0c-1.5,0.8-2.8,1.5-3.8,1.5
		c-1,0-3.3-0.9-4.4-1.5l-1.3-0.8l-6,2.9l-1.1,0.5c-1.1,0.5-1.7,1.5-1.9,2.8c-0.1,1-1.5,2.6-3.1,2.6c-1.1,0-2.4-0.8-2.6-2.1L530,61
		l-0.7-0.3c-1.5-0.7-2.4-1.2-2.4-2.6c0-1.6,2.1-2.7,3.6-2.7c0.5,0,1,0.1,1.4,0.2l1.1,0.4c0.5,0.2,0.9,0.3,1.2,0.3l0.6,0l0.3-0.1
		l0.5-0.2l6.6-3.2l-0.2-1l-7.8-4.1c-0.4-0.2-0.6-0.3-0.9-0.3l-0.6,0h-0.2c-0.3,0-0.8,0.2-1.2,0.5c-0.7,0.3-1.4,0.7-2.2,0.7
		c-1.2,0-2.1-1-2.1-2.3v-1.4c0-0.8,0.5-1.8,1.5-2.4c0-0.9,0.2-1.8,0.8-2.3c0.4-0.4,0.9-0.6,1.6-0.6c1.5,0,2.7,0.9,3.2,1.7l0.2,0.3
		l0.9,1.3c0.4,0.5,0.8,0.9,1.3,1.1l3,1.5c-0.8-0.7-1.4-1.7-1.4-3.1c0-1,0.1-2.4,0.3-3.5l-0.2-0.3l-0.8-1.2l-0.8-1.4
		c-0.5-1-0.8-2.1-0.8-3.3c0-1.4,1.4-2.7,3.3-4.5l0.6-0.6l1.3-1.3l1.5-1.4c0.5-0.4,1-0.8,1.5-1.1c2.2-1.2,4.3-1.7,6.4-1.7
		c2.3,0,4,0.6,5.4,1.4c0.7,0.4,1.4,0.9,2,1.4l1.9,1.7l1.3,1.2l0.5,0.4l1.4,1.3l1.1,1.1c0.6,0.7,1,1.4,1,2.1c0,1.2-0.4,2.3-0.8,3.3
		c-0.5,1-1.1,1.9-1.6,2.7l-0.3,0.4c0.2,0.8,0.4,2,0.4,3.2c0,2-0.9,3-2,3.9l4.2-2.1c0.5-0.2,0.9-0.7,1.3-1.1l0.9-1.3l0.2-0.3
		c0.6-0.8,1.8-1.7,3.3-1.7c0.6,0,1.2,0.2,1.5,0.6c0.6,0.6,0.7,1.4,0.8,2.3c1,0.6,1.5,1.7,1.5,2.4v1.4c0,1.4-0.9,2.3-2.1,2.3
		c-0.8,0-1.5-0.4-2.2-0.7c-0.5-0.2-0.9-0.5-1.2-0.5h-0.2l-0.6,0l-0.9,0.3L559,52l-0.1,0.3l7.1,3.5l0.5,0.2l0.3,0.1l0.6,0
		c0.4,0,0.8-0.1,1.2-0.3l1.1-0.4c0.4-0.1,0.9-0.2,1.4-0.2c1.5,0,3.6,1.1,3.6,2.7C574.7,59.5,573.8,59.9,572.3,60.6z M550.1,7.9
		L509.2,50l40.9,42.1L590.9,50L550.1,7.9z"/>
</g>
</svg>
