<svg xmlns="http://www.w3.org/2000/svg" width="24" height="24" viewBox="0 0 24 24"><defs><style>.a{fill:none;}.b{fill:#fff;}</style></defs><g transform="translate(-5173.5 -2632.688)"><rect class="a" width="24" height="24" transform="translate(5173.5 2632.688)"/><g transform="translate(5174.728 2634.491)"><path class="b" d="M5188.551,2654.884a1.9,1.9,0,0,1-1.39-.595,3.282,3.282,0,0,0-1.731-1.064,3.361,3.361,0,0,0-1.712,1.044,1.9,1.9,0,0,1-2.1.434l-2.565-1.435a1.787,1.787,0,0,1-.673-2.183,2.441,2.441,0,0,0,.185-.79,2.088,2.088,0,0,0-2.087-2.086h-.1a1.542,1.542,0,0,1-1.421-1.411,12.772,12.772,0,0,1-.221-2.1,13.026,13.026,0,0,1,.2-1.961l.015-.1c.162-.9.721-1.482,1.467-1.452a2.108,2.108,0,0,0,2.165-2.087,2.208,2.208,0,0,0-.184-.781l-.014-.039a1.773,1.773,0,0,1,.573-2.08l.119-.087,2.734-1.494a1.909,1.909,0,0,1,2.051.443,3.287,3.287,0,0,0,1.693,1,3.184,3.184,0,0,0,1.666-.976,1.935,1.935,0,0,1,2.069-.437l.1.045,2.63,1.457a1.772,1.772,0,0,1,.605,2.144,2.406,2.406,0,0,0-.185.788,2.085,2.085,0,0,0,2.125,2.087,1.564,1.564,0,0,1,1.5,1.4,12.808,12.808,0,0,1,.222,2.11,13.065,13.065,0,0,1-.2,1.961l-.015.1a1.553,1.553,0,0,1-1.431,1.452h-.036a2.108,2.108,0,0,0-2.165,2.088,2.211,2.211,0,0,0,.182.781l.014.037a1.775,1.775,0,0,1-.571,2.082l-.117.086-2.6,1.437A1.822,1.822,0,0,1,5188.551,2654.884Zm-3.121-2.793a4.423,4.423,0,0,1,2.572,1.439.825.825,0,0,0,.817.174l2.543-1.417a.642.642,0,0,0,.212-.756l-.048-.127a3.292,3.292,0,0,1-.233-1.119,3.224,3.224,0,0,1,3.22-3.22h.109c.107.011.266-.2.316-.481h0c0-.034.009-.074.017-.12a8.846,8.846,0,0,0-.014-3.655c-.065-.323-.243-.523-.32-.5h-.109a3.225,3.225,0,0,1-3.22-3.22,3.553,3.553,0,0,1,.28-1.242.643.643,0,0,0-.171-.728l-.028-.012-2.548-1.415a.819.819,0,0,0-.24-.035.769.769,0,0,0-.549.21,4.155,4.155,0,0,1-2.491,1.334,4.308,4.308,0,0,1-2.512-1.355.761.761,0,0,0-.826-.168l-2.57,1.422a.643.643,0,0,0-.214.756l.049.126a3.262,3.262,0,0,1,.234,1.119,3.224,3.224,0,0,1-3.22,3.219h-.109c-.131-.039-.267.2-.316.482h0c0,.033-.01.073-.017.12a8.875,8.875,0,0,0,.013,3.655c.062.334.206.5.313.5h.1a3.224,3.224,0,0,1,3.22,3.219,3.513,3.513,0,0,1-.282,1.244.642.642,0,0,0,.214.758l2.479,1.386a.8.8,0,0,0,.777-.181A4.407,4.407,0,0,1,5185.43,2652.091Zm.012-3.309a4.1,4.1,0,1,1,4.1-4.1,4.094,4.094,0,0,1-4.1,4.1Zm0-7.059a2.963,2.963,0,1,0,2.107,5.048,2.912,2.912,0,0,0,.857-2.082A2.967,2.967,0,0,0,5185.442,2641.723Z" transform="translate(-5174.728 -2634.491)"/></g></g></svg>