<svg xmlns="http://www.w3.org/2000/svg" width="24" height="24" viewBox="0 0 24 24"><defs><style>.a{fill:none;}.b{fill:#00c7db;}</style></defs><g transform="translate(-5173.5 -2632.688)"><rect class="a" width="24" height="24" transform="translate(5173.5 2632.688)"/><g transform="translate(5174.728 2634.491)"><path class="b" d="M5188.551,2654.884a1.9,1.9,0,0,1-1.39-.595,3.282,3.282,0,0,0-1.731-1.064,3.361,3.361,0,0,0-1.712,1.044,1.9,1.9,0,0,1-2.1.434l-2.565-1.435a1.787,1.787,0,0,1-.673-2.183,2.441,2.441,0,0,0,.185-.79,2.088,2.088,0,0,0-2.087-2.086h-.1a1.542,1.542,0,0,1-1.421-1.411,12.772,12.772,0,0,1-.221-2.1,13.026,13.026,0,0,1,.2-1.961l.015-.1c.162-.9.721-1.482,1.467-1.452a2.108,2.108,0,0,0,2.165-2.087,2.208,2.208,0,0,0-.184-.781l-.014-.039a1.773,1.773,0,0,1,.573-2.08l.119-.087,2.734-1.494a1.909,1.909,0,0,1,2.051.443,3.287,3.287,0,0,0,1.693,1,3.184,3.184,0,0,0,1.666-.976,1.935,1.935,0,0,1,2.069-.437l.1.045,2.63,1.457a1.772,1.772,0,0,1,.605,2.144,2.406,2.406,0,0,0-.185.788,2.085,2.085,0,0,0,2.125,2.087,1.564,1.564,0,0,1,1.5,1.4,12.808,12.808,0,0,1,.222,2.11,13.065,13.065,0,0,1-.2,1.961l-.015.1a1.553,1.553,0,0,1-1.431,1.452h-.036a2.108,2.108,0,0,0-2.165,2.088,2.211,2.211,0,0,0,.182.781l.014.037a1.775,1.775,0,0,1-.571,2.082l-.117.086-2.6,1.437A1.822,1.822,0,0,1,5188.551,2654.884Zm-3.108-13.161a2.963,2.963,0,1,0,2.107,5.048,2.912,2.912,0,0,0,.857-2.082A2.967,2.967,0,0,0,5185.442,2641.723Z" transform="translate(-5174.728 -2634.491)"/></g></g></svg>