<svg xmlns="http://www.w3.org/2000/svg" width="23.917" height="23.917" viewBox="0 0 23.917 23.917"><defs><style>.a{fill:#fff;}.b{fill:none;}</style></defs><g transform="translate(-4532.384 -2645.398)"><path class="a" d="M4541.7,2655.759a1.879,1.879,0,1,1-1.878,1.878,1.881,1.881,0,0,1,1.878-1.878m0-1a2.879,2.879,0,1,0,2.878,2.878,2.878,2.878,0,0,0-2.878-2.878Z"/><path class="a" d="M4548.039,2652.6a.826.826,0,1,1-.826.827.828.828,0,0,1,.826-.827m0-1a1.826,1.826,0,1,0,1.827,1.827,1.826,1.826,0,0,0-1.827-1.827Z"/><path class="a" d="M4546.73,2661.168a.474.474,0,1,1-.473.473.474.474,0,0,1,.473-.473m0-1a1.474,1.474,0,1,0,1.474,1.473,1.473,1.473,0,0,0-1.474-1.473Z"/><rect class="a" width="3.44" height="0.999" transform="translate(4543.847 2655.728) rotate(-31.329)"/><rect class="a" width="1" height="3.113" transform="matrix(0.588, -0.809, 0.809, 0.588, 4543.081, 2659.462)"/><path class="a" d="M4551.855,2648.877a.988.988,0,0,1,.987.987v14.986a.988.988,0,0,1-.987.987H4536.83a.989.989,0,0,1-.988-.987v-14.986a.988.988,0,0,1,.988-.987h15.025m0-1.15H4536.83a2.137,2.137,0,0,0-2.138,2.137v14.986a2.138,2.138,0,0,0,2.138,2.137h15.025a2.137,2.137,0,0,0,2.137-2.137v-14.986a2.137,2.137,0,0,0-2.137-2.137Z"/><rect class="b" width="23.917" height="23.917" transform="translate(4532.384 2645.398)"/></g></svg>