<svg xmlns="http://www.w3.org/2000/svg" width="24" height="24" viewBox="0 0 24 24"><defs><style>.a{fill:#00c7db;stroke:rgba(0,0,0,0);stroke-miterlimit:10;}.b{fill:none;}</style></defs><g transform="translate(-4529.918 -2552.208)"><path class="a" d="M21672.152,3764.555h-15.088a2.15,2.15,0,0,1-2.145-2.149v-15.051a2.15,2.15,0,0,1,2.145-2.149h15.088a2.152,2.152,0,0,1,2.148,2.149v15.051A2.152,2.152,0,0,1,21672.152,3764.555Zm-8.311-7.213h0l1.779,1.294a1.523,1.523,0,0,0-.094.528,1.472,1.472,0,1,0,1.469-1.474,1.452,1.452,0,0,0-.717.19l-1.807-1.311a2.883,2.883,0,0,0,.168-2.47l2.666-1.621a1.849,1.849,0,0,0,1,.3,1.828,1.828,0,1,0-1.826-1.828,1.779,1.779,0,0,0,.168.762l-2.529,1.539a2.878,2.878,0,1,0-.277,4.091Z" transform="translate(-17122.691 -1190.672)"/><rect class="b" width="24" height="24" transform="translate(4529.918 2552.208)"/></g></svg>