<svg xmlns="http://www.w3.org/2000/svg" width="14.744" height="16.799" viewBox="0 0 14.744 16.799"><defs><style>.a{fill:#fff;}</style></defs><path class="a" d="M-801.3-13h-11.587a1.578,1.578,0,0,0-1.575,1.575V2.224A1.578,1.578,0,0,0-812.887,3.8h11.595a1.577,1.577,0,0,0,1.575-1.575V-11.425A1.585,1.585,0,0,0-801.3-13Zm-7.385,2.872a1.578,1.578,0,0,1,1.575,1.574,1.578,1.578,0,0,1-1.575,1.575,1.578,1.578,0,0,1-1.575-1.575,1.573,1.573,0,0,1,.461-1.114,1.572,1.572,0,0,1,1.114-.46Zm-2.627,4.471c0-.582.708-1.053,1.575-1.053h2.1c.867,0,1.574.471,1.574,1.052v1.052h-5.245V-5.658Zm8.378,5.245h-8.378V-1.464h8.378Zm0-2.1h-8.378V-3.561h8.378Zm0,0" transform="translate(814.462 13)"/></svg>