<svg xmlns="http://www.w3.org/2000/svg" width="12" height="12" viewBox="0 0 12 12"><defs><style>.a{fill:#00c7db;}</style></defs><g transform="translate(0.11 0.006)"><path class="a" d="M6,12A6,6,0,0,1,1.757,1.757a6,6,0,0,1,8.486,8.486A5.961,5.961,0,0,1,6,12ZM4.544,8.269a.422.422,0,1,0,0,.844h2.84a.422.422,0,1,0,0-.844h-1v-4.1a.423.423,0,0,0-.422-.422H4.84a.422.422,0,0,0,0,.844h.7V8.269Zm1.42-6.106a.422.422,0,1,0,.422.422A.422.422,0,0,0,5.965,2.162Z" transform="translate(-0.11 -0.006)"/></g></svg>
