<svg width="20" height="20" viewBox="0 0 20 20" fill="none" xmlns="http://www.w3.org/2000/svg">
<g id="&#231;&#187;&#132; 2416">
<g id="&#231;&#187;&#132; 2415" clip-path="url(#clip0_275_4290)">
<path id="&#232;&#183;&#175;&#229;&#190;&#132;" fill-rule="evenodd" clip-rule="evenodd" d="M7.46119 15.8813C7.77119 15.8813 8.03119 15.6313 8.03119 15.3113C8.03119 15.0013 7.77119 14.7513 7.46119 14.7513H5.64119C4.24119 14.7513 3.10119 13.6113 3.10119 12.2113V5.30135C3.10119 3.90135 4.24119 2.76135 5.65119 2.76135H14.3512C15.7512 2.76135 16.8912 3.90135 16.8912 5.30135V12.2113C16.8912 13.6113 15.7512 14.7513 14.3512 14.7513H12.0712C11.9212 14.7513 11.7712 14.8113 11.6712 14.9213L9.28119 17.4113C9.17119 17.5213 9.12119 17.6613 9.12119 17.8113C9.12119 17.9613 9.18119 18.1013 9.30119 18.2113C9.40119 18.3113 9.54119 18.3713 9.69119 18.3713H9.70119C9.85119 18.3713 9.99119 18.3013 10.1012 18.1913L12.3212 15.8813H14.3512C16.3812 15.8813 18.0312 14.2313 18.0312 12.2113V5.30135C18.0312 3.28135 16.3812 1.63135 14.3512 1.63135H5.65119C3.62119 1.63135 1.97119 3.28135 1.97119 5.30135V12.2113C1.97119 14.2313 3.62119 15.8813 5.64119 15.8813H7.46119Z" fill="#00C7DB"/>
<path id="&#232;&#183;&#175;&#229;&#190;&#132;_2" fill-rule="evenodd" clip-rule="evenodd" d="M14.606 9.89178C14.606 9.57178 14.356 9.32178 14.036 9.32178H5.966C5.646 9.32178 5.396 9.57178 5.396 9.89178C5.396 10.2018 5.646 10.4518 5.956 10.4518H14.036C14.356 10.4518 14.606 10.2018 14.606 9.89178Z" fill="#00C7DB"/>
<path id="&#232;&#183;&#175;&#229;&#190;&#132;_3" fill-rule="evenodd" clip-rule="evenodd" d="M12.8072 6.53516H5.95721C5.63721 6.53516 5.38721 6.78516 5.38721 7.10516C5.38721 7.41516 5.63721 7.66516 5.95721 7.66516H12.8072C13.1172 7.66516 13.3672 7.41516 13.3672 7.10516C13.3672 6.78516 13.1172 6.53516 12.8072 6.53516Z" fill="#00C7DB"/>
</g>
</g>
<defs>
<clipPath id="clip0_275_4290">
<rect width="16.0571" height="16.7378" fill="white" transform="translate(1.97119 1.63135)"/>
</clipPath>
</defs>
</svg>
