<svg width="22" height="22" viewBox="0 0 22 22" fill="none" xmlns="http://www.w3.org/2000/svg">
<circle cx="11" cy="11" r="10.5" fill="#00C7DB" fill-opacity="0.15" stroke="#00C7DB"/>
<path d="M12.6457 13.0961C12.6674 13.0816 12.8631 12.8858 12.9211 12.8278C13.0154 12.7408 13.1096 12.6611 13.2111 12.5814C13.8635 12.1029 14.5377 12.2189 15.5671 13.0743C16.1108 13.4078 16.4225 14.0239 16.3645 14.6691C16.2413 15.1186 15.9803 15.5173 15.6033 15.7928C15.5743 15.8217 15.3134 16.0537 15.2481 16.119C14.2115 17.1121 11.1596 15.8942 8.62961 13.299C6.09965 10.6966 4.96877 7.60842 6.01991 6.60079L6.15764 6.46305L6.30987 6.31081C6.63609 5.87586 7.12903 5.59315 7.66547 5.53516C8.23816 5.57865 8.7601 5.89761 9.05731 6.39055C10.0215 7.62292 9.99246 8.2971 9.20955 9.05826C9.15155 9.11625 8.95582 9.30473 8.93408 9.31923C8.7456 9.50771 9.29654 10.3849 10.4202 11.5375C11.5583 12.7118 12.4354 13.299 12.6457 13.0961Z" fill="#00C7DB"/>
</svg>
