<svg xmlns="http://www.w3.org/2000/svg" width="12" height="12" viewBox="0 0 12 12"><defs><style>.a{opacity:0.65;}.b{fill:none;}</style></defs><g class="a" transform="translate(0.243 0.243)"><rect class="b" width="12" height="12" transform="translate(-0.243 -0.243)"/><g transform="translate(-0.001 -0.001)"><path d="M6,12a5.976,5.976,0,0,1-3.317-1A6.047,6.047,0,0,1,.844,9.07v1.008a.422.422,0,0,1-.844,0V7.922A.422.422,0,0,1,.422,7.5H2.578a.422.422,0,1,1,0,.844H1.406A5.157,5.157,0,0,0,11.141,6.39a.424.424,0,0,1,.42-.39h.032a.422.422,0,0,1,.389.452A6,6,0,0,1,6,12ZM.437,6H.405a.422.422,0,0,1-.389-.452,6,6,0,0,1,11.14-2.617V1.922a.422.422,0,1,1,.844,0V4.078a.423.423,0,0,1-.422.422H9.422a.422.422,0,0,1,0-.844h1.172A5.157,5.157,0,0,0,.858,5.61.425.425,0,0,1,.437,6Z" transform="translate(-0.242 -0.242)"/></g></g></svg>