<svg width="21" height="20" viewBox="0 0 21 20" fill="none" xmlns="http://www.w3.org/2000/svg">
<g id="&#231;&#188;&#150;&#231;&#187;&#132; 4">
<rect id="&#231;&#159;&#169;&#229;&#189;&#162;" width="15.6469" height="17.5751" rx="2.08" fill="#00C7DB"/>
<path id="&#231;&#159;&#169;&#229;&#189;&#162;_2" d="M8.10258 2.87535C8.46446 1.82654 9.5463 1.24752 10.519 1.58207L18.2412 4.23815C19.2138 4.57269 19.7089 5.69412 19.3471 6.74293L15.4282 18.1009C15.0663 19.1497 13.9844 19.7287 13.0118 19.3942L5.28959 16.7381C4.31694 16.4035 3.8218 15.2821 4.18368 14.2333L8.10258 2.87535Z" fill="#00C7DB" fill-opacity="0.3"/>
<rect id="&#231;&#159;&#169;&#229;&#189;&#162;_3" x="3" y="11.9011" width="2" height="3" fill="white"/>
<rect id="&#231;&#159;&#169;&#229;&#189;&#162;&#229;&#164;&#135;&#228;&#187;&#189; 3" x="6.78125" y="9.93408" width="1.93723" height="4.83547" fill="white"/>
<rect id="&#231;&#159;&#169;&#229;&#189;&#162;&#229;&#164;&#135;&#228;&#187;&#189; 4" x="10.6562" y="8" width="1.93723" height="6.76966" fill="white"/>
<rect id="&#231;&#159;&#169;&#229;&#189;&#162;_4" x="2.46484" y="2" width="3.87446" height="3.86838" rx="1.04" fill="white"/>
<path id="&#231;&#159;&#169;&#229;&#189;&#162;&#229;&#164;&#135;&#228;&#187;&#189;" fill-rule="evenodd" clip-rule="evenodd" d="M7.75 3.45059C7.75 3.18353 7.96649 2.96704 8.23355 2.96704H11.4099C11.6769 2.96704 11.8934 3.18353 11.8934 3.45059V3.45059C11.8934 3.71764 11.6769 3.93414 11.4099 3.93414H8.23355C7.96649 3.93414 7.75 3.71764 7.75 3.45059V3.45059Z" fill="white"/>
<rect id="&#231;&#159;&#169;&#229;&#189;&#162;&#229;&#164;&#135;&#228;&#187;&#189; 2" x="7.75" y="4.90137" width="6.08063" height="0.967095" rx="0.483547" fill="white"/>
</g>
</svg>
