<svg xmlns="http://www.w3.org/2000/svg" width="24" height="24" viewBox="0 0 24 24"><defs><style>.a{fill:none;}.b{fill:#00d3e8;}</style></defs><rect class="a" width="24" height="24"/><g transform="translate(2.883 3.586)"><path class="b" d="M16.12,6.336A7.045,7.045,0,0,0,11.1,4.259H3.248L5.906,1.6A.938.938,0,0,0,4.58.275L.274,4.583a.939.939,0,0,0,0,1.327l4.184,4.184A.938.938,0,1,0,5.784,8.767L3.15,6.134H11.1a5.217,5.217,0,0,1,5.217,5.217v4.5a.938.938,0,1,0,1.875,0v-4.5A7.035,7.035,0,0,0,16.12,6.336Z" transform="translate(0.019 0.018)"/></g></svg>