<svg xmlns="http://www.w3.org/2000/svg" width="12" height="12" viewBox="0 0 12 12"><defs><style>.a{fill:none;}.b{fill:#666;}</style></defs><g transform="translate(0 0.292)"><rect class="a" width="12" height="12" transform="translate(0 -0.292)"/><g transform="translate(1.415 1.758)"><path class="b" d="M7.864,3.091A3.437,3.437,0,0,0,5.417,2.078H1.585l1.3-1.3A.458.458,0,0,0,2.234.134l-2.1,2.1a.458.458,0,0,0,0,.647L2.175,4.924a.458.458,0,1,0,.647-.647L1.537,2.993H5.417A2.545,2.545,0,0,1,7.962,5.538v2.2a.457.457,0,1,0,.915,0v-2.2A3.432,3.432,0,0,0,7.864,3.091Z" transform="translate(0 0)"/></g></g></svg>