<svg xmlns="http://www.w3.org/2000/svg" width="12.359" height="14.08" viewBox="0 0 12.359 14.08"><defs><style>.a{fill:#fff;}</style></defs><g transform="translate(814.462 13)"><path class="a" d="M-803.43-13h-9.712a1.322,1.322,0,0,0-1.32,1.32V-.239a1.322,1.322,0,0,0,1.32,1.32h9.719a1.322,1.322,0,0,0,1.32-1.32V-11.68A1.329,1.329,0,0,0-803.43-13Zm-6.19,2.407a1.322,1.322,0,0,1,1.32,1.319,1.322,1.322,0,0,1-1.32,1.32,1.322,1.322,0,0,1-1.32-1.32,1.318,1.318,0,0,1,.386-.934,1.318,1.318,0,0,1,.934-.386Zm-2.2,3.748c0-.487.593-.883,1.32-.883h1.758c.727,0,1.319.4,1.319.882v.882h-4.4v-.882Zm7.022,4.4h-7.022v-.882h7.022Zm0-1.758h-7.022v-.882h7.022Zm0,0"/></g></svg>