<svg width="22" height="22" viewBox="0 0 22 22" fill="none" xmlns="http://www.w3.org/2000/svg">
<circle cx="11" cy="11" r="10.5" fill="#00C7DB" fill-opacity="0.15" stroke="#00C7DB"/>
<path fill-rule="evenodd" clip-rule="evenodd" d="M10.1543 5.4873C10.9827 5.4873 11.6543 6.15888 11.6543 6.9873V13.7471C11.6543 14.5755 10.9827 15.2471 10.1543 15.2471C9.32587 15.2471 8.6543 14.5755 8.6543 13.7471V6.9873C8.6543 6.15888 9.32587 5.4873 10.1543 5.4873Z" fill="#00C7DB"/>
<path fill-rule="evenodd" clip-rule="evenodd" d="M15.811 14.0244C15.811 14.8528 15.1395 15.5244 14.311 15.5244H10.1542C9.32574 15.5244 8.65416 14.8528 8.65416 14.0244C8.65416 13.196 9.32574 12.5244 10.1542 12.5244H14.311C15.1395 12.5244 15.811 13.196 15.811 14.0244Z" fill="#00C7DB"/>
</svg>
