<svg width="228" height="266" viewBox="0 0 228 266" fill="none" xmlns="http://www.w3.org/2000/svg">
<g id="Frame 503" clip-path="url(#clip0_433_10440)">
<g id="Group">
<path id="Vector" d="M112.643 359.448C174.854 359.448 225.286 309.016 225.286 246.805C225.286 184.594 174.854 134.162 112.643 134.162C50.4319 134.162 0 184.594 0 246.805C0 309.016 50.4319 359.448 112.643 359.448Z" fill="url(#paint0_linear_433_10440)"/>
<g id="Group_2">
<path id="Vector_2" d="M166.808 30.6471L99.8817 17.638C97.2032 17.1174 94.6099 18.8666 94.0893 21.545L77.3094 107.87C76.7888 110.548 78.538 113.142 81.2165 113.662L148.142 126.671C150.821 127.192 153.414 125.443 153.935 122.764L170.715 36.4395C171.235 33.7611 169.486 31.1677 166.808 30.6471Z" fill="url(#paint1_linear_433_10440)"/>
<path id="Vector_3" d="M154.143 33.5928H76.0833C73.9005 33.5928 72.1309 35.3623 72.1309 37.5452V135.367C72.1309 137.549 73.9005 139.319 76.0833 139.319H154.143C156.326 139.319 158.095 137.549 158.095 135.367V37.5452C158.095 35.3623 156.326 33.5928 154.143 33.5928Z" fill="url(#paint2_linear_433_10440)"/>
<path id="Vector_4" opacity="0.824" d="M144.262 103.748H85.9642C83.7814 103.748 82.0118 105.518 82.0118 107.7C82.0118 109.883 83.7814 111.653 85.9642 111.653H144.262C146.445 111.653 148.214 109.883 148.214 107.7C148.214 105.518 146.445 103.748 144.262 103.748Z" fill="white"/>
<path id="Vector_5" opacity="0.875" d="M144.756 120.546H85.4702C83.5602 120.546 82.0118 122.094 82.0118 124.004C82.0118 125.914 83.5602 127.463 85.4702 127.463H144.756C146.666 127.463 148.214 125.914 148.214 124.004C148.214 122.094 146.666 120.546 144.756 120.546Z" fill="white"/>
<path id="Vector_6" opacity="0.622" d="M82.0118 33.5928V63.2356L88.9285 57.2586L95.8452 63.2356V33.5928H82.0118Z" fill="white"/>
<path id="&#229;&#189;&#162;&#231;&#138;&#182;&#231;&#187;&#147;&#229;&#144;&#136;" fill-rule="evenodd" clip-rule="evenodd" d="M164.105 26.0662C165.553 27.5149 166.54 29.3607 166.94 31.3702C167.339 33.3796 167.134 35.4625 166.35 37.3554C165.566 39.2483 164.238 40.8661 162.535 42.0044C160.831 43.1426 158.829 43.7502 156.78 43.7502C154.731 43.7502 152.728 43.1427 151.025 42.0044C149.321 40.8661 147.993 39.2482 147.209 37.3554C146.425 35.4625 146.22 33.3796 146.62 31.3702C147.019 29.3607 148.006 27.5149 149.455 26.0662C151.397 24.1235 154.032 23.0321 156.78 23.0321C159.527 23.0321 162.162 24.1235 164.105 26.0662V26.0662ZM160.724 29.4469C160.575 29.2975 160.372 29.2135 160.16 29.2135C159.949 29.2135 159.746 29.2975 159.597 29.4469L156.498 32.5459L153.681 29.7287C153.543 29.5907 153.359 29.5081 153.164 29.4967C152.969 29.4853 152.777 29.5458 152.624 29.6667L152.554 29.7287C152.404 29.8781 152.32 30.0808 152.32 30.2921C152.32 30.5035 152.404 30.7061 152.554 30.8556L155.371 33.6729L152.272 36.7719C152.134 36.9099 152.052 37.0938 152.04 37.2886C152.029 37.4835 152.089 37.6757 152.21 37.8289L152.272 37.8988C152.422 38.0482 152.624 38.1322 152.836 38.1322C153.047 38.1322 153.25 38.0482 153.399 37.8988L156.498 34.7998L159.315 37.6171C159.453 37.7551 159.637 37.8376 159.832 37.849C160.027 37.8605 160.219 37.8 160.372 37.6791L160.442 37.6171C160.592 37.4676 160.676 37.265 160.676 37.0536C160.676 36.8423 160.592 36.6396 160.442 36.4902L157.625 33.6729L160.724 30.5738C160.862 30.4358 160.944 30.2519 160.956 30.0571C160.967 29.8623 160.907 29.67 160.786 29.5168L160.724 29.4469Z" fill="url(#paint3_linear_433_10440)"/>
</g>
<g id="Group_3">
<path id="Vector_7" d="M114.863 160.072C136.419 160.072 153.893 158.081 153.893 155.625C153.893 153.169 136.419 151.179 114.863 151.179C93.3076 151.179 75.8334 153.169 75.8334 155.625C75.8334 158.081 93.3076 160.072 114.863 160.072Z" fill="#D7DEE1"/>
<g id="Group_4" opacity="0.495">
<path id="Vector_8" opacity="0.495" d="M176.952 141.958C177.234 141.597 177.17 141.077 176.81 140.795C176.449 140.514 175.929 140.577 175.647 140.938L168.907 149.56C168.625 149.92 168.689 150.441 169.049 150.723C169.409 151.004 169.93 150.941 170.212 150.58L176.952 141.958Z" fill="#DCE2E2"/>
<path id="Vector_9" opacity="0.495" d="M173.351 145.519C174.778 146.652 176.596 147.17 178.406 146.962C180.216 146.753 181.868 145.835 183.001 144.408C185.32 141.44 190.36 129.964 187.35 127.611C184.34 125.258 174.42 132.919 172.1 135.886C170.989 137.33 170.496 139.155 170.731 140.962C170.965 142.768 171.908 144.408 173.351 145.519V145.519Z" fill="url(#paint4_linear_433_10440)"/>
</g>
<g id="Group_5" opacity="0.495">
<path id="Vector_10" opacity="0.495" d="M61.5972 139.302C61.4184 138.88 60.932 138.684 60.5108 138.863C60.0896 139.042 59.8932 139.528 60.072 139.949L62.9016 146.614C63.0804 147.035 63.5668 147.232 63.9879 147.053C64.4091 146.874 64.6056 146.388 64.4268 145.967L61.5972 139.302Z" fill="#DCE2E2"/>
<path id="Vector_11" opacity="0.495" d="M62.9684 144.179C64.6508 143.478 65.9862 142.139 66.6809 140.454C67.3756 138.769 67.3727 136.877 66.6729 135.195C65.2005 131.727 57.6007 121.754 54.0825 123.248C50.5643 124.741 52.46 137.136 53.9324 140.604C54.6567 142.276 56.0156 143.592 57.7101 144.262C59.4047 144.933 61.2961 144.903 62.9684 144.179V144.179Z" fill="url(#paint5_linear_433_10440)"/>
</g>
<g id="Group_6" opacity="0.495">
<path id="Vector_12" opacity="0.495" d="M161.441 137.973C161.578 137.736 161.497 137.434 161.261 137.298C161.024 137.161 160.722 137.242 160.586 137.479L157.127 143.469C156.991 143.705 157.072 144.007 157.308 144.144C157.544 144.28 157.847 144.199 157.983 143.963L161.441 137.973Z" fill="#DCE2E2"/>
<path id="Vector_13" opacity="0.495" d="M159.542 141.2C160.009 141.455 160.522 141.615 161.051 141.672C161.58 141.729 162.116 141.68 162.626 141.53C163.137 141.38 163.613 141.131 164.027 140.796C164.441 140.462 164.785 140.05 165.04 139.582C166.186 137.597 168.349 130.311 166.459 129.22C164.568 128.129 159.34 133.645 158.194 135.63C157.917 136.084 157.732 136.588 157.649 137.114C157.567 137.64 157.589 138.177 157.714 138.694C157.839 139.211 158.065 139.699 158.379 140.129C158.692 140.559 159.088 140.923 159.542 141.2V141.2Z" fill="url(#paint6_linear_433_10440)"/>
</g>
<g id="Group_7" opacity="0.495">
<path id="Vector_14" opacity="0.495" d="M43.1743 149.557C43.0379 149.321 42.7358 149.24 42.4995 149.376C42.2632 149.512 42.1822 149.815 42.3186 150.051L45.777 156.041C45.9134 156.277 46.2155 156.358 46.4518 156.222C46.6881 156.085 46.7691 155.783 46.6327 155.547L43.1743 149.557Z" fill="#DCE2E2"/>
<path id="Vector_15" opacity="0.495" d="M44.2179 153.278C43.7507 153.533 43.2379 153.693 42.7087 153.75C42.1795 153.806 41.6444 153.758 41.1338 153.608C40.6232 153.458 40.1473 153.208 39.7331 152.874C39.319 152.54 38.9747 152.127 38.7201 151.66C37.5739 149.675 35.411 142.389 37.3013 141.298C39.1915 140.206 44.4196 145.722 45.5658 147.707C45.8432 148.162 46.0284 148.666 46.1108 149.192C46.1932 149.718 46.1711 150.255 46.046 150.772C45.9208 151.289 45.6949 151.777 45.3813 152.207C45.0676 152.637 44.6723 153.001 44.2179 153.278V153.278Z" fill="url(#paint7_linear_433_10440)"/>
</g>
<path id="Vector_16" d="M46.9919 57.3086C46.9919 57.3086 46.9415 61.9645 48.8139 63.5889C49.8612 64.5393 51.1967 65.1113 52.6072 65.2134C51.0534 65.6278 49.6176 66.3989 48.4138 67.4652C46.5413 69.1855 46.8634 73.1181 46.8634 73.1181C46.8634 73.1181 47.0462 69.3495 45.4475 67.4652C44.3307 66.2778 42.857 65.4871 41.2501 65.2134C41.2501 65.2134 42.5099 65.6333 44.8951 63.5889C47.2804 61.5446 46.9919 57.3086 46.9919 57.3086Z" fill="#E9ECEC"/>
<path id="Vector_17" d="M198.412 0C198.412 0 198.369 4.07392 199.993 5.4948C200.904 6.32664 202.068 6.82754 203.298 6.91667C201.945 7.28022 200.695 7.95529 199.65 8.88792C198.02 10.3928 198.301 13.8333 198.301 13.8333C198.301 13.8333 198.456 10.5361 197.073 8.88792C196.102 7.84878 194.818 7.15634 193.417 6.91667C193.417 6.91667 194.513 7.28424 196.588 5.4948C198.663 3.70536 198.412 0 198.412 0Z" fill="#E9ECEC"/>
<path id="Vector_18" d="M23.5088 85.9648C23.5088 85.9648 23.4732 89.4568 24.7765 90.6751C25.4846 91.3809 26.4202 91.8126 27.4167 91.8934C26.3208 92.2109 25.3189 92.7909 24.4979 93.5831C23.1956 94.8725 23.4189 97.822 23.4189 97.822C23.4189 97.822 23.5463 94.9951 22.4308 93.5831C21.6788 92.7037 20.649 92.1076 19.5119 91.8934C19.5119 91.8934 20.3894 92.2086 22.0494 90.6751C23.7094 89.1416 23.5088 85.9648 23.5088 85.9648Z" fill="#E9ECEC"/>
<path id="Vector_19" d="M224.092 126.478C224.092 126.478 224.057 129.969 225.36 131.188C226.068 131.894 227.004 132.325 228 132.406C226.904 132.724 225.902 133.304 225.081 134.096C223.779 135.385 224.002 138.335 224.002 138.335C224.002 138.335 224.13 135.508 223.014 134.096C222.262 133.216 221.232 132.62 220.095 132.406C220.095 132.406 220.973 132.721 222.633 131.188C224.293 129.654 224.092 126.478 224.092 126.478Z" fill="#E9ECEC"/>
<path id="Vector_20" d="M190.764 101.277C190.764 101.277 188.823 105.512 189.873 107.759C190.444 109.054 191.431 110.12 192.679 110.788C191.198 110.641 189.703 110.817 188.296 111.302C185.884 112.112 184.212 115.675 184.212 115.675C184.212 115.675 185.408 112.08 184.714 109.707C184.307 108.299 183.461 107.058 182.299 106.165C182.299 106.165 183.279 107.062 186.291 106.164C189.304 105.266 190.764 101.277 190.764 101.277Z" fill="#E9ECEC"/>
<g id="Group_8">
<path id="Vector_21" d="M46.6204 182.414L48.7882 197.922L70.308 192.933L64.913 178.19L46.6204 182.414Z" fill="url(#paint8_linear_433_10440)"/>
<path id="Vector_22" d="M56.7671 184.634C61.8185 183.468 65.4656 180.583 64.9132 178.19C64.3608 175.798 59.818 174.803 54.7666 175.969C49.7153 177.136 46.0681 180.021 46.6206 182.414C47.173 184.806 51.7157 185.801 56.7671 184.634Z" fill="#F9FBFB"/>
<path id="Vector_23" d="M56.2118 182.227C59.4022 181.491 61.7894 180.032 61.5439 178.968C61.2984 177.905 58.5131 177.64 55.3227 178.376C52.1324 179.113 49.7452 180.572 49.9907 181.636C50.2362 182.699 53.0215 182.964 56.2118 182.227Z" fill="#E6EEF1"/>
</g>
<g id="Group_9">
<path id="Vector_24" d="M191.312 161.467L179.135 171.313L194.495 187.189L204.353 174.972L191.312 161.467Z" fill="url(#paint9_linear_433_10440)"/>
<path id="Vector_25" d="M194.634 171.309C198.236 175.038 202.587 176.678 204.353 174.972C206.12 173.267 204.633 168.861 201.031 165.131C197.43 161.402 193.079 159.762 191.312 161.468C189.546 163.174 191.033 167.58 194.634 171.309Z" fill="#F9FBFB"/>
<path id="Vector_26" d="M196.411 169.594C198.686 171.949 201.166 173.244 201.951 172.486C202.736 171.728 201.529 169.204 199.254 166.849C196.98 164.493 194.499 163.199 193.714 163.957C192.929 164.715 194.137 167.239 196.411 169.594Z" fill="#E6EEF1"/>
</g>
</g>
</g>
</g>
<defs>
<linearGradient id="paint0_linear_433_10440" x1="112.643" y1="134.162" x2="112.643" y2="281.048" gradientUnits="userSpaceOnUse">
<stop stop-color="#E8ECED"/>
<stop offset="1" stop-color="#FBFCFC" stop-opacity="0"/>
</linearGradient>
<linearGradient id="paint1_linear_433_10440" x1="143.512" y1="5.78985" x2="101.254" y2="223.189" gradientUnits="userSpaceOnUse">
<stop stop-color="#DFE5E6"/>
<stop offset="1" stop-color="#B1C7C9"/>
</linearGradient>
<linearGradient id="paint2_linear_433_10440" x1="148.037" y1="43.4253" x2="99.4395" y2="109.686" gradientUnits="userSpaceOnUse">
<stop stop-color="#E7EBEB"/>
<stop offset="1" stop-color="#D4DEDF"/>
</linearGradient>
<linearGradient id="paint3_linear_433_10440" x1="171.43" y1="33.3911" x2="149.22" y2="35.9402" gradientUnits="userSpaceOnUse">
<stop stop-color="#00E5EF"/>
<stop offset="1" stop-color="#00C7DB"/>
</linearGradient>
<linearGradient id="paint4_linear_433_10440" x1="173.351" y1="145.52" x2="187.35" y2="127.611" gradientUnits="userSpaceOnUse">
<stop stop-color="#DBDFE0"/>
<stop offset="1" stop-color="#E1E9EA"/>
</linearGradient>
<linearGradient id="paint5_linear_433_10440" x1="62.9685" y1="144.179" x2="54.0825" y2="123.248" gradientUnits="userSpaceOnUse">
<stop stop-color="#DBDFE0"/>
<stop offset="1" stop-color="#E1E9EA"/>
</linearGradient>
<linearGradient id="paint6_linear_433_10440" x1="159.542" y1="141.2" x2="166.459" y2="129.22" gradientUnits="userSpaceOnUse">
<stop stop-color="#DBDFE0"/>
<stop offset="1" stop-color="#E1E9EA"/>
</linearGradient>
<linearGradient id="paint7_linear_433_10440" x1="44.2179" y1="153.278" x2="37.3013" y2="141.298" gradientUnits="userSpaceOnUse">
<stop stop-color="#DBDFE0"/>
<stop offset="1" stop-color="#E1E9EA"/>
</linearGradient>
<linearGradient id="paint8_linear_433_10440" x1="58.4642" y1="184.149" x2="60.191" y2="195.332" gradientUnits="userSpaceOnUse">
<stop stop-color="#DCE7EA"/>
<stop offset="0.986" stop-color="#D8E3E6" stop-opacity="0.039"/>
</linearGradient>
<linearGradient id="paint9_linear_433_10440" x1="195.924" y1="172.513" x2="187.228" y2="179.753" gradientUnits="userSpaceOnUse">
<stop stop-color="#DCE7EA"/>
<stop offset="0.986" stop-color="#D8E3E6" stop-opacity="0.039"/>
</linearGradient>
<clipPath id="clip0_433_10440">
<rect width="228" height="266" fill="white"/>
</clipPath>
</defs>
</svg>
