<svg width="231" height="331" viewBox="0 0 231 331" fill="none" xmlns="http://www.w3.org/2000/svg">
<g id="&#232;&#146;&#153;&#231;&#137;&#136;&#231;&#187;&#132; 31">
<path id="&#230;&#164;&#173;&#229;&#156;&#134;&#229;&#189;&#162;" d="M114 363.778C176.96 363.778 228 312.738 228 249.778C228 186.817 176.96 135.778 114 135.778C51.0395 135.778 0 186.817 0 249.778C0 312.738 51.0395 363.778 114 363.778Z" fill="url(#paint0_linear_270_7031)"/>
<g id="&#231;&#188;&#150;&#231;&#187;&#132;">
<path id="Rectangle" d="M168.817 31.0178L101.085 17.852C98.3742 17.3251 95.7496 19.0954 95.2227 21.8061L78.2407 109.171C77.7138 111.882 79.4841 114.506 82.1948 115.033L149.927 128.199C152.638 128.726 155.262 126.955 155.789 124.245L172.771 36.88C173.298 34.1693 171.528 31.5447 168.817 31.0178Z" fill="url(#paint1_linear_270_7031)"/>
<path id="Rectangle_2" d="M77 34H156C158.209 34 160 35.7909 160 38V137C160 139.209 158.209 141 156 141H77C74.7909 141 73 139.209 73 137V38C73 35.7909 74.7909 34 77 34Z" fill="url(#paint2_linear_270_7031)"/>
<path id="&#231;&#159;&#169;&#229;&#189;&#162;" opacity="0.824" d="M115 105H87C84.7909 105 83 106.791 83 109C83 111.209 84.7909 113 87 113H115C117.209 113 119 111.209 119 109C119 106.791 117.209 105 115 105Z" fill="white"/>
<path id="&#231;&#159;&#169;&#229;&#189;&#162;&#229;&#164;&#141;&#229;&#136;&#182; 2" opacity="0.875" d="M146.5 122H86.5C84.567 122 83 123.567 83 125.5C83 127.433 84.567 129 86.5 129H146.5C148.433 129 150 127.433 150 125.5C150 123.567 148.433 122 146.5 122Z" fill="white"/>
<path id="&#232;&#183;&#175;&#229;&#190;&#132; 66" opacity="0.622" d="M83 34V64L90 57.951L97 64V34H83Z" fill="white"/>
</g>
<g id="&#231;&#188;&#150;&#231;&#187;&#132; 6">
<path id="&#230;&#164;&#173;&#229;&#156;&#134;&#229;&#189;&#162;_2" d="M116.247 162C138.062 162 155.747 159.985 155.747 157.5C155.747 155.015 138.062 153 116.247 153C94.4318 153 76.7471 155.015 76.7471 157.5C76.7471 159.985 94.4318 162 116.247 162Z" fill="#00C7DB" fill-opacity="0.14"/>
<g id="&#231;&#188;&#150;&#231;&#187;&#132; 3" opacity="0.495">
<path id="Rectangle_3" opacity="0.495" d="M179.084 143.668C179.369 143.304 179.304 142.777 178.94 142.492C178.575 142.207 178.048 142.271 177.763 142.636L170.942 151.362C170.656 151.727 170.721 152.254 171.086 152.539C171.45 152.824 171.977 152.759 172.262 152.395L179.084 143.668Z" fill="#A7E7E7"/>
<path id="Oval" opacity="0.495" d="M175.439 147.273C176.884 148.419 178.724 148.944 180.556 148.733C182.387 148.522 184.06 147.592 185.206 146.148C187.553 143.145 192.654 131.53 189.607 129.149C186.561 126.767 176.521 134.521 174.174 137.524C173.049 138.984 172.55 140.832 172.788 142.66C173.025 144.489 173.979 146.148 175.439 147.273Z" fill="url(#paint3_linear_270_7031)"/>
</g>
<g id="&#231;&#188;&#150;&#231;&#187;&#132; 3&#229;&#164;&#141;&#229;&#136;&#182; 2" opacity="0.495">
<path id="Rectangle_4" opacity="0.495" d="M62.3395 140.98C62.1586 140.554 61.6663 140.355 61.2401 140.536C60.8138 140.717 60.615 141.209 60.7959 141.635L63.6596 148.38C63.8406 148.807 64.3328 149.006 64.7591 148.825C65.1853 148.644 65.3842 148.151 65.2032 147.725L62.3395 140.98Z" fill="#A7E7E7"/>
<path id="Oval_2" opacity="0.495" d="M63.7271 145.916C65.4298 145.208 66.7813 143.852 67.4843 142.147C68.1874 140.442 68.1845 138.527 67.4762 136.824C65.9861 133.314 58.2947 123.222 54.7341 124.733C51.1735 126.245 53.0921 138.788 54.5822 142.298C55.3153 143.991 56.6906 145.322 58.4055 146.001C60.1204 146.679 62.0346 146.649 63.7271 145.916Z" fill="url(#paint4_linear_270_7031)"/>
</g>
<g id="&#231;&#188;&#150;&#231;&#187;&#132; 3&#229;&#164;&#141;&#229;&#136;&#182;" opacity="0.495">
<path id="Rectangle_5" opacity="0.495" d="M163.387 139.637C163.525 139.398 163.443 139.092 163.204 138.954C162.964 138.816 162.659 138.898 162.521 139.137L159.021 145.199C158.882 145.438 158.964 145.744 159.204 145.882C159.443 146.02 159.748 145.938 159.887 145.699L163.387 139.637Z" fill="#A7E7E7"/>
<path id="Oval_3" opacity="0.495" d="M161.464 142.902C161.937 143.16 162.456 143.323 162.992 143.38C163.527 143.437 164.069 143.389 164.585 143.237C165.102 143.084 165.584 142.832 166.003 142.494C166.422 142.156 166.771 141.738 167.028 141.265C168.188 139.256 170.377 131.882 168.464 130.778C166.551 129.673 161.26 135.256 160.1 137.265C159.819 137.725 159.632 138.235 159.549 138.767C159.465 139.299 159.487 139.843 159.614 140.366C159.741 140.89 159.969 141.383 160.287 141.818C160.604 142.254 161.004 142.622 161.464 142.902Z" fill="url(#paint5_linear_270_7031)"/>
</g>
<g id="&#231;&#188;&#150;&#231;&#187;&#132; 3&#229;&#164;&#141;&#229;&#136;&#182; 3" opacity="0.495">
<path id="Rectangle_6" opacity="0.495" d="M43.6946 151.359C43.5566 151.12 43.2508 151.038 43.0116 151.176C42.7725 151.314 42.6905 151.62 42.8286 151.859L46.3286 157.921C46.4667 158.161 46.7725 158.243 47.0116 158.104C47.2508 157.966 47.3327 157.661 47.1946 157.421L43.6946 151.359Z" fill="#A7E7E7"/>
<path id="Oval_4" opacity="0.495" d="M44.7508 155.125C44.278 155.383 43.759 155.545 43.2234 155.602C42.6879 155.66 42.1463 155.611 41.6295 155.459C41.1128 155.307 40.6311 155.054 40.212 154.716C39.7928 154.378 39.4444 153.96 39.1867 153.487C38.0267 151.478 35.8378 144.105 37.7508 143C39.6639 141.896 44.9549 147.478 46.1149 149.487C46.3957 149.947 46.5831 150.458 46.6665 150.99C46.7499 151.522 46.7276 152.065 46.6009 152.589C46.4742 153.112 46.2456 153.606 45.9282 154.041C45.6107 154.476 45.2107 154.844 44.7508 155.125Z" fill="url(#paint6_linear_270_7031)"/>
</g>
<path id="&#229;&#164;&#154;&#232;&#190;&#185;&#229;&#189;&#162;" d="M47.5581 58C47.5581 58 47.5071 62.712 49.4021 64.356C50.4619 65.3178 51.8136 65.8967 53.2411 66C51.6685 66.4195 50.2154 67.1998 48.9971 68.279C47.1021 70.02 47.4281 74 47.4281 74C47.4281 74 47.6131 70.186 45.9951 68.279C44.8648 67.0772 43.3734 66.2771 41.7471 66C41.7471 66 43.0221 66.425 45.4361 64.356C47.8501 62.287 47.5581 58 47.5581 58Z" fill="#00C7DB"/>
<path id="&#229;&#164;&#154;&#232;&#190;&#185;&#229;&#189;&#162;&#229;&#164;&#141;&#229;&#136;&#182; 4" d="M200.803 0C200.803 0 200.759 4.123 202.403 5.561C203.324 6.40287 204.502 6.9098 205.747 7C204.378 7.36793 203.113 8.05114 202.055 8.995C200.406 10.518 200.69 14 200.69 14C200.69 14 200.847 10.663 199.447 8.995C198.465 7.94334 197.165 7.24256 195.747 7C195.747 7 196.857 7.372 198.957 5.561C201.057 3.75 200.803 0 200.803 0Z" fill="#00C7DB"/>
<path id="&#229;&#164;&#154;&#232;&#190;&#185;&#229;&#189;&#162;&#229;&#164;&#141;&#229;&#136;&#182; 2" d="M23.7921 87C23.7921 87 23.7561 90.534 25.0751 91.767C25.7917 92.4813 26.7385 92.9182 27.7471 93C26.638 93.3213 25.624 93.9083 24.7931 94.71C23.4751 96.015 23.7011 99 23.7011 99C23.7011 99 23.8301 96.139 22.7011 94.71C21.94 93.82 20.8978 93.2167 19.7471 93C19.7471 93 20.6351 93.319 22.3151 91.767C23.9951 90.215 23.7921 87 23.7921 87Z" fill="#00C7DB"/>
<path id="&#229;&#164;&#154;&#232;&#190;&#185;&#229;&#189;&#162;&#229;&#164;&#141;&#229;&#136;&#182; 5" d="M226.792 128C226.792 128 226.756 131.534 228.075 132.767C228.792 133.481 229.739 133.918 230.747 134C229.638 134.321 228.624 134.908 227.793 135.71C226.475 137.015 226.701 140 226.701 140C226.701 140 226.83 137.139 225.701 135.71C224.94 134.82 223.898 134.217 222.747 134C222.747 134 223.635 134.319 225.315 132.767C226.995 131.215 226.792 128 226.792 128Z" fill="#00C7DB"/>
<path id="&#229;&#164;&#154;&#232;&#190;&#185;&#229;&#189;&#162;&#229;&#164;&#141;&#229;&#136;&#182;" d="M193.062 102.497C193.062 102.497 191.098 106.783 192.161 109.057C192.738 110.367 193.738 111.446 195 112.122C193.501 111.973 191.988 112.151 190.564 112.642C188.123 113.462 186.431 117.068 186.431 117.068C186.431 117.068 187.642 113.43 186.939 111.028C186.527 109.603 185.671 108.348 184.495 107.444C184.495 107.444 185.487 108.351 188.536 107.443C191.584 106.534 193.062 102.497 193.062 102.497Z" fill="#00C7DB"/>
<g id="&#231;&#188;&#150;&#231;&#187;&#132; 4">
<path id="&#232;&#183;&#175;&#229;&#190;&#132; 42" d="M47.1821 184.611L49.3761 200.306L71.1551 195.257L65.6951 180.337L47.1821 184.611Z" fill="url(#paint7_linear_270_7031)"/>
<path id="&#230;&#164;&#173;&#229;&#156;&#134;&#229;&#189;&#162;_3" d="M57.451 186.858C62.5632 185.678 66.2543 182.758 65.6952 180.337C65.1362 177.915 60.5387 176.909 55.4264 178.089C50.3142 179.269 46.6231 182.189 47.1822 184.611C47.7413 187.032 52.3388 188.039 57.451 186.858Z" fill="#F9FBFB"/>
<path id="&#230;&#164;&#173;&#229;&#156;&#134;&#229;&#189;&#162;_4" d="M56.8891 184.423C60.1179 183.677 62.5339 182.201 62.2854 181.124C62.0369 180.048 59.2181 179.78 55.9893 180.525C52.7605 181.271 50.3445 182.747 50.593 183.824C50.8414 184.9 53.6603 185.168 56.8891 184.423Z" fill="#C7EFF3"/>
</g>
<g id="&#231;&#188;&#150;&#231;&#187;&#132; 4&#229;&#164;&#141;&#229;&#136;&#182;">
<path id="&#232;&#183;&#175;&#229;&#190;&#132; 42_2" d="M193.617 163.413L181.293 173.377L196.838 189.445L206.815 177.08L193.617 163.413Z" fill="url(#paint8_linear_270_7031)"/>
<path id="&#230;&#164;&#173;&#229;&#156;&#134;&#229;&#189;&#162;_5" d="M196.979 173.372C200.624 177.146 205.028 178.806 206.815 177.08C208.603 175.354 207.098 170.895 203.453 167.12C199.809 163.346 195.405 161.686 193.617 163.413C191.829 165.139 193.335 169.598 196.979 173.372Z" fill="#F9FBFB"/>
<path id="&#230;&#164;&#173;&#229;&#156;&#134;&#229;&#189;&#162;_6" d="M198.777 171.636C201.079 174.02 203.589 175.33 204.384 174.563C205.179 173.796 203.957 171.241 201.655 168.858C199.353 166.474 196.843 165.164 196.048 165.931C195.254 166.698 196.476 169.252 198.777 171.636Z" fill="#C7EFF3"/>
</g>
</g>
</g>
<defs>
<linearGradient id="paint0_linear_270_7031" x1="114" y1="135.778" x2="114" y2="284.434" gradientUnits="userSpaceOnUse">
<stop stop-color="#00C7DB" stop-opacity="0.13"/>
<stop offset="1" stop-color="#F1FFFF" stop-opacity="0"/>
</linearGradient>
<linearGradient id="paint1_linear_270_7031" x1="145.241" y1="5.8611" x2="102.474" y2="225.879" gradientUnits="userSpaceOnUse">
<stop stop-color="#DAF6F9" stop-opacity="0.52"/>
<stop offset="0.9999" stop-color="#40D4E2"/>
<stop offset="1" stop-color="#A2DBE0"/>
</linearGradient>
<linearGradient id="paint2_linear_270_7031" x1="83.179" y1="43.951" x2="120.067" y2="120.028" gradientUnits="userSpaceOnUse">
<stop stop-color="#94F0FA"/>
<stop offset="1" stop-color="#33D5E6"/>
</linearGradient>
<linearGradient id="paint3_linear_270_7031" x1="175.439" y1="147.273" x2="189.607" y2="129.149" gradientUnits="userSpaceOnUse">
<stop stop-color="#00C7DB"/>
<stop offset="1" stop-color="#C4F8FF"/>
</linearGradient>
<linearGradient id="paint4_linear_270_7031" x1="63.7272" y1="145.916" x2="54.7341" y2="124.733" gradientUnits="userSpaceOnUse">
<stop stop-color="#00C7DB"/>
<stop offset="1" stop-color="#C4F8FF"/>
</linearGradient>
<linearGradient id="paint5_linear_270_7031" x1="161.464" y1="142.902" x2="168.464" y2="130.778" gradientUnits="userSpaceOnUse">
<stop stop-color="#00C7DB"/>
<stop offset="1" stop-color="#C4F8FF"/>
</linearGradient>
<linearGradient id="paint6_linear_270_7031" x1="44.7508" y1="155.125" x2="37.7508" y2="143" gradientUnits="userSpaceOnUse">
<stop stop-color="#00C7DB"/>
<stop offset="1" stop-color="#C4F8FF"/>
</linearGradient>
<linearGradient id="paint7_linear_270_7031" x1="59.1686" y1="186.368" x2="60.9163" y2="197.686" gradientUnits="userSpaceOnUse">
<stop stop-color="#00C7DB" stop-opacity="0.19"/>
<stop offset="0.986" stop-color="#D8E3E6" stop-opacity="0.039"/>
</linearGradient>
<linearGradient id="paint8_linear_270_7031" x1="198.285" y1="174.592" x2="189.483" y2="181.919" gradientUnits="userSpaceOnUse">
<stop stop-color="#00C7DB" stop-opacity="0.19"/>
<stop offset="0.986" stop-color="#D8E3E6" stop-opacity="0.039"/>
</linearGradient>
</defs>
</svg>
