<svg width="89" height="27" viewBox="0 0 89 27" fill="none" xmlns="http://www.w3.org/2000/svg">
<g id="&#229;&#155;&#190;&#229;&#177;&#130; 2">
<g id="&#229;&#155;&#190;&#229;&#177;&#130; 1">
<path id="Vector" d="M15.5892 11.1855V10.9143C15.5871 10.2041 15.3768 9.50999 14.9841 8.91698C14.5914 8.32396 14.0334 7.85782 13.3785 7.57567C13.2565 7.5276 13.1323 7.48182 13.0069 7.43947C11.5398 6.93221 9.97249 6.77945 8.43434 6.99379C6.89619 7.20813 5.43133 7.78343 4.16069 8.6722C2.89006 9.56096 1.85009 10.7377 1.12664 12.1053C0.403199 13.4728 0.0170238 14.992 0 16.5374C0 16.4893 0 16.4412 0 16.392V10.603C0 4.87228 4.62742 0.165957 10.3522 0C13.0544 2.16696 14.8568 5.25089 15.4132 8.65954C15.5345 9.40505 15.5953 10.1591 15.595 10.9143C15.5915 11.0047 15.5904 11.0963 15.5892 11.1855Z" fill="white"/>
<path id="Vector_2" d="M13.016 19.3988C11.3036 19.9977 9.52865 20.402 7.72492 20.604H7.70537C7.57884 20.6188 7.45232 20.6314 7.32464 20.6417H7.30854C5.07096 20.8169 2.84844 20.1531 1.07767 18.7807C0.771539 18.5463 0.518249 18.2506 0.334181 17.9127C0.150114 17.5748 0.0393661 17.2022 0.00909872 16.819C0.00909872 16.724 0.00219727 16.629 0.00219727 16.5329V16.5191C0.0222307 14.9756 0.410508 13.4589 1.13505 12.0939C1.85959 10.7289 2.89966 9.55478 4.16959 8.66814C5.43952 7.78149 6.90298 7.20774 8.43941 6.99414C9.97585 6.78053 11.5413 6.93319 13.0068 7.43953C12.4606 7.2742 11.883 7.23832 11.3204 7.33476C10.7577 7.4312 10.2255 7.65729 9.76635 7.99496C9.30718 8.33262 8.93377 8.77249 8.67597 9.2794C8.41817 9.78632 8.28313 10.3462 8.28164 10.9143V15.9263C8.28431 16.747 8.5649 17.5429 9.0781 18.1854C9.5913 18.8279 10.3072 19.2796 11.1101 19.4674C11.7403 19.6127 12.398 19.589 13.016 19.3988Z" fill="white"/>
<path id="Vector_3" d="M22.7427 24.2951C22.2047 22.6667 21.135 21.2641 19.7038 20.3101C18.2726 19.3562 16.562 18.9057 14.844 19.0302C14.0924 19.1017 13.3527 19.2667 12.6424 19.5212C11.6572 19.8511 10.6508 20.1142 9.6299 20.3087C7.80217 20.6635 5.97098 20.8432 4.15475 20.3293C3.19739 20.0595 2.29143 19.6341 1.47354 19.0703C0.683319 18.5232 0.093245 17.8113 0.00927734 16.8247C0.150757 20.4998 2.30976 23.9059 5.53044 25.6823C6.82599 26.395 8.25713 26.83 9.73179 26.9593C11.2065 27.0886 12.692 26.9094 14.0928 26.4331C15.013 26.1183 15.8619 25.6319 16.8178 25.3961C17.8956 25.1384 19.0164 25.1137 20.1046 25.3238C21.1927 25.5339 22.223 25.9738 23.1257 26.6139C23.1189 25.8259 22.9897 25.0437 22.7427 24.2951Z" fill="white"/>
<path id="Vector_4" d="M21.3245 10.603V16.392C21.3253 17.5159 21.1451 18.6326 20.7907 19.6997C19.1342 18.4378 17.0819 17.8007 14.9981 17.9017C15.3838 17.3142 15.5892 16.6278 15.5893 15.9262V11.1855C15.5893 11.0951 15.5893 11.0047 15.5893 10.9143C15.592 8.82118 15.123 6.75413 14.2166 4.86528C13.3103 2.97643 11.9898 1.31387 10.3523 0C10.4558 0 10.5616 0 10.6663 0C13.4913 0.00905196 16.1979 1.12962 18.1956 3.11714C20.1932 5.10466 21.3197 7.79777 21.3291 10.6087L21.3245 10.603Z" fill="white"/>
<path id="Vector_5" d="M15.5892 11.1855V10.9143C15.5871 10.2041 15.3768 9.50999 14.9841 8.91698C14.5914 8.32396 14.0334 7.85782 13.3785 7.57567C13.2565 7.5276 13.1323 7.48182 13.0069 7.43947C11.5398 6.93221 9.97249 6.77945 8.43434 6.99379C6.89619 7.20813 5.43133 7.78343 4.16069 8.6722C2.89006 9.56096 1.85009 10.7377 1.12664 12.1053C0.403199 13.4728 0.0170238 14.992 0 16.5374C0 16.4893 0 16.4412 0 16.392V10.603C0 4.87228 4.62742 0.165957 10.3522 0C13.0544 2.16696 14.8568 5.25089 15.4132 8.65954C15.5345 9.40505 15.5953 10.1591 15.595 10.9143C15.5915 11.0047 15.5904 11.0963 15.5892 11.1855Z" fill="url(#paint0_linear_370_3898)"/>
<path id="Vector_6" d="M15.5892 11.1855V10.9143C15.5871 10.2041 15.3768 9.50999 14.9841 8.91698C14.5914 8.32396 14.0334 7.85782 13.3785 7.57567C13.2565 7.5276 13.1323 7.48182 13.0069 7.43947C11.5398 6.93221 9.97249 6.77945 8.43434 6.99379C6.89619 7.20813 5.43133 7.78343 4.16069 8.6722C2.89006 9.56096 1.85009 10.7377 1.12664 12.1053C0.403199 13.4728 0.0170238 14.992 0 16.5374C0 16.4893 0 16.4412 0 16.392V10.603C0 4.87228 4.62742 0.165957 10.3522 0C13.0544 2.16696 14.8568 5.25089 15.4132 8.65954C15.5345 9.40505 15.5953 10.1591 15.595 10.9143C15.5915 11.0047 15.5904 11.0963 15.5892 11.1855Z" fill="url(#paint1_linear_370_3898)"/>
<path id="Vector_7" d="M13.016 19.3988C11.3036 19.9977 9.52865 20.402 7.72492 20.604H7.70537C7.57884 20.6188 7.45232 20.6314 7.32464 20.6417H7.30854C5.07096 20.8169 2.84844 20.1531 1.07767 18.7807C0.771539 18.5463 0.518249 18.2506 0.334181 17.9127C0.150114 17.5748 0.0393661 17.2022 0.00909872 16.819C0.00909872 16.724 0.00219727 16.629 0.00219727 16.5329V16.5191C0.0222307 14.9756 0.410508 13.4589 1.13505 12.0939C1.85959 10.7289 2.89966 9.55478 4.16959 8.66814C5.43952 7.78149 6.90298 7.20774 8.43941 6.99414C9.97585 6.78053 11.5413 6.93319 13.0068 7.43953C12.4606 7.2742 11.883 7.23832 11.3204 7.33476C10.7577 7.4312 10.2255 7.65729 9.76635 7.99496C9.30718 8.33262 8.93377 8.77249 8.67597 9.2794C8.41817 9.78632 8.28313 10.3462 8.28164 10.9143V15.9263C8.28431 16.747 8.5649 17.5429 9.0781 18.1854C9.5913 18.8279 10.3072 19.2796 11.1101 19.4674C11.7403 19.6127 12.398 19.589 13.016 19.3988Z" fill="url(#paint2_linear_370_3898)"/>
<path id="Vector_8" d="M22.7427 24.2951C22.2047 22.6667 21.135 21.2641 19.7038 20.3101C18.2726 19.3562 16.562 18.9057 14.844 19.0302C14.0924 19.1017 13.3527 19.2667 12.6424 19.5212C11.6572 19.8511 10.6508 20.1142 9.6299 20.3087C7.80217 20.6635 5.97098 20.8432 4.15475 20.3293C3.19739 20.0595 2.29143 19.6341 1.47354 19.0703C0.683319 18.5232 0.093245 17.8113 0.00927734 16.8247C0.150757 20.4998 2.30976 23.9059 5.53044 25.6823C6.82599 26.395 8.25713 26.83 9.73179 26.9593C11.2065 27.0886 12.692 26.9094 14.0928 26.4331C15.013 26.1183 15.8619 25.6319 16.8178 25.3961C17.8956 25.1384 19.0164 25.1137 20.1046 25.3238C21.1927 25.5339 22.223 25.9738 23.1257 26.6139C23.1189 25.8259 22.9897 25.0437 22.7427 24.2951Z" fill="white"/>
<path id="Vector_9" d="M21.3245 10.603V16.392C21.3253 17.5159 21.1451 18.6326 20.7907 19.6997C19.1342 18.4378 17.0819 17.8007 14.9981 17.9017C15.3838 17.3142 15.5892 16.6278 15.5893 15.9262V11.1855C15.5893 11.0951 15.5893 11.0047 15.5893 10.9143C15.592 8.82118 15.123 6.75413 14.2166 4.86528C13.3103 2.97643 11.9898 1.31387 10.3523 0C10.4558 0 10.5616 0 10.6663 0C13.4913 0.00905196 16.1979 1.12962 18.1956 3.11714C20.1932 5.10466 21.3197 7.79777 21.3291 10.6087L21.3245 10.603Z" fill="white"/>
<path id="Vector_10" d="M31.4672 25.5989L32.0906 26.3279H31.3832L31.0312 25.9285C30.7009 26.1044 30.3337 26.2008 29.9592 26.21C29.667 26.2139 29.3773 26.1557 29.1095 26.0393C28.8417 25.9228 28.602 25.7508 28.4064 25.5348C27.9862 25.0937 27.7576 24.5057 27.7703 23.8981C27.7654 23.6047 27.8196 23.3133 27.9296 23.0411C28.0397 22.7688 28.2033 22.5213 28.411 22.3129C28.6104 22.1041 28.8504 21.9377 29.1165 21.8241C29.3826 21.7105 29.6691 21.6519 29.9586 21.6519C30.2481 21.6519 30.5347 21.7105 30.8007 21.8241C31.0668 21.9377 31.3068 22.1041 31.5063 22.3129C31.7144 22.5185 31.8787 22.7637 31.9896 23.0339C32.1005 23.3041 32.1555 23.5937 32.1515 23.8855C32.1604 24.2024 32.1043 24.5177 31.9866 24.8123C31.8689 25.1069 31.6922 25.3745 31.4672 25.5989ZM30.6286 25.4547L29.7567 24.4486H30.4641L31.0784 25.1514C31.2401 24.9887 31.3678 24.7956 31.4539 24.5834C31.54 24.3712 31.5828 24.1441 31.5799 23.9153C31.5854 23.6958 31.5467 23.4775 31.4658 23.2732C31.385 23.0689 31.2638 22.8829 31.1094 22.7261C30.9592 22.5686 30.7776 22.4441 30.5761 22.3607C30.3746 22.2773 30.1578 22.2369 29.9396 22.242C29.7271 22.2395 29.5164 22.2819 29.3215 22.3663C29.1266 22.4507 28.9519 22.5753 28.8089 22.7318C28.5039 23.0527 28.3385 23.4805 28.3488 23.9221C28.3443 24.1417 28.3842 24.36 28.4662 24.5639C28.5483 24.7678 28.6707 24.9532 28.8262 25.109C28.975 25.2663 29.1552 25.3909 29.3553 25.4749C29.5554 25.5589 29.7708 25.6003 29.9879 25.5966C30.2086 25.5902 30.4261 25.542 30.6286 25.4547Z" fill="white"/>
<path id="Vector_11" d="M34.1162 21.7842H34.6522V26.0659H34.1162V21.7842Z" fill="white"/>
<path id="Vector_12" d="M36.749 21.6123L39.6833 24.8697V21.7794H40.2251V26.2591L37.2908 23.0235V26.0657H36.749V21.6123Z" fill="white"/>
<path id="Vector_13" d="M46.1304 22.4665L45.7278 22.8934C45.5528 22.6932 45.3369 22.5323 45.0945 22.4216C44.8522 22.3109 44.5889 22.2529 44.3222 22.2513C44.1051 22.2459 43.8893 22.2861 43.689 22.3694C43.4886 22.4526 43.3081 22.577 43.1593 22.7343C42.8635 23.0553 42.6982 23.4742 42.6954 23.9097C42.6927 24.3452 42.8527 24.7662 43.1443 25.0909C43.4457 25.4297 43.8602 25.5991 44.3878 25.5991C45.1791 25.5991 45.6776 25.2271 45.8831 24.4832H44.811V23.8983H46.503C46.508 24.1334 46.4895 24.3684 46.4478 24.5999C46.4003 24.8032 46.3228 24.9983 46.2178 25.179C46.1 25.3956 45.9442 25.5894 45.7577 25.7513C45.581 25.9107 45.373 26.0319 45.1469 26.1073C44.8956 26.1842 44.6334 26.2206 44.3705 26.2148C43.685 26.2148 43.1374 25.9829 42.728 25.519C42.3315 25.0787 42.1152 24.5066 42.1218 23.9155C42.11 23.32 42.3353 22.7439 42.7487 22.3131C42.9393 22.101 43.1733 21.932 43.4349 21.8173C43.6966 21.7026 43.9799 21.6449 44.2658 21.6482C44.5962 21.644 44.9243 21.7034 45.232 21.8233C45.5745 21.9708 45.881 22.1902 46.1304 22.4665Z" fill="white"/>
<path id="Vector_14" d="M48.3585 21.7842H51.0385L49.1429 25.4879H51.0017V26.0602H48.2642L50.1506 22.369H48.3585V21.7842Z" fill="white"/>
<path id="Vector_15" d="M52.9387 21.7842H53.4862V23.43H55.3842V21.7842H55.9202V26.0659H55.3842V24.0057H53.4862V26.0659H52.9433L52.9387 21.7842Z" fill="white"/>
<path id="Vector_16" d="M57.8699 23.8979C57.8656 23.604 57.9207 23.3122 58.0319 23.0399C58.1431 22.7676 58.3083 22.5203 58.5175 22.3127C58.7167 22.1005 58.9582 21.932 59.2266 21.8179C59.4949 21.7038 59.7843 21.6466 60.0761 21.65C60.3637 21.6473 60.6487 21.7049 60.9125 21.8191C61.1763 21.9332 61.413 22.1015 61.607 22.3127C61.8143 22.5212 61.9778 22.7686 62.088 23.0406C62.1981 23.3125 62.2528 23.6036 62.2489 23.8968C62.2636 24.5068 62.0349 25.0977 61.6128 25.5403C61.4137 25.752 61.173 25.9206 60.9056 26.0357C60.6382 26.1508 60.3498 26.2098 60.0585 26.2092C59.7671 26.2086 59.479 26.1482 59.2121 26.032C58.9452 25.9157 58.7052 25.746 58.5071 25.5335C58.0861 25.0933 57.857 24.5054 57.8699 23.8979ZM61.6726 23.9242C61.6778 23.704 61.6386 23.485 61.5572 23.2801C61.4758 23.0753 61.3539 22.8887 61.1987 22.7316C61.0493 22.5738 60.8683 22.4489 60.6674 22.3649C60.4666 22.2809 60.2502 22.2398 60.0324 22.2441C59.8198 22.2419 59.6091 22.2849 59.4146 22.3702C59.22 22.4554 59.0459 22.581 58.904 22.7385C58.595 23.0559 58.4254 23.4824 58.4324 23.9242C58.4277 24.1445 58.4678 24.3635 58.5502 24.5681C58.6327 24.7726 58.7557 24.9585 58.912 25.1146C59.0649 25.2717 59.2488 25.3957 59.452 25.479C59.6552 25.5623 59.8736 25.6031 60.0933 25.5987C60.3026 25.5997 60.5096 25.5561 60.7005 25.4708C60.8913 25.3856 61.0616 25.2606 61.1999 25.1043C61.5075 24.7882 61.6774 24.3642 61.6726 23.9242Z" fill="white"/>
<path id="Vector_17" d="M64.1963 21.79H64.7381V24.4225C64.7381 24.8131 64.8243 25.1145 64.9969 25.3267C65.0867 25.4334 65.2004 25.5178 65.3287 25.5733C65.4571 25.6287 65.5967 25.6536 65.7365 25.646C65.8731 25.6538 66.0098 25.6317 66.1368 25.581C66.2638 25.5304 66.3781 25.4525 66.4715 25.353C66.6486 25.1561 66.736 24.8791 66.736 24.5232V21.79H67.2789V24.4877C67.2789 25.0119 67.1398 25.4316 66.8614 25.7467C66.7237 25.902 66.5529 26.0249 66.3615 26.1062C66.1701 26.1876 65.9629 26.2255 65.7549 26.2171C65.542 26.2256 65.3299 26.1873 65.1336 26.1047C64.9374 26.0222 64.7618 25.8976 64.6196 25.7398C64.3382 25.4217 64.1971 24.9524 64.1963 24.3321V21.79Z" fill="white"/>
<path id="Vector_18" d="M74.0284 22.2581L73.589 22.6369C73.4956 22.528 73.389 22.4311 73.2715 22.3485C73.1484 22.2758 73.0061 22.2418 72.8632 22.2512C72.6922 22.2437 72.5237 22.2946 72.3858 22.3954C72.3284 22.4376 72.2821 22.4929 72.2506 22.5566C72.2192 22.6204 72.2036 22.6907 72.2052 22.7617C72.2063 22.8267 72.221 22.8908 72.2483 22.95C72.2757 23.0091 72.315 23.0619 72.364 23.105C72.5282 23.2393 72.711 23.3491 72.9069 23.4312C73.1155 23.521 73.3147 23.631 73.5016 23.7597C73.6367 23.8523 73.7559 23.9659 73.8547 24.0962C74.0316 24.3343 74.1264 24.623 74.125 24.9191C74.1289 25.088 74.099 25.2559 74.037 25.4131C73.975 25.5703 73.8821 25.7136 73.7638 25.8348C73.6541 25.9554 73.5198 26.0514 73.3699 26.1164C73.2199 26.1813 73.0578 26.2137 72.8942 26.2113C72.5755 26.2159 72.2646 26.113 72.012 25.9194C71.7345 25.6875 71.531 25.38 71.4265 25.0347L71.9683 24.8711C72.1661 25.3533 72.4686 25.594 72.8758 25.5933C72.9667 25.5958 73.0571 25.5801 73.1417 25.5471C73.2263 25.514 73.3033 25.4643 73.3681 25.401C73.4329 25.3385 73.4838 25.2633 73.5177 25.1801C73.5515 25.0969 73.5676 25.0077 73.5648 24.918C73.5627 24.7941 73.5269 24.6731 73.4613 24.5678C73.3974 24.4539 73.3105 24.3545 73.206 24.2759C73.053 24.1719 72.889 24.0848 72.7171 24.0161C72.5383 23.9409 72.3659 23.8513 72.2018 23.7483C72.084 23.6673 71.9789 23.5693 71.8901 23.4576C71.8087 23.3534 71.7436 23.2376 71.6968 23.1142C71.657 22.9986 71.6371 22.877 71.6382 22.7548C71.6365 22.6074 71.6663 22.4613 71.7259 22.3263C71.7854 22.1914 71.8731 22.0705 71.9832 21.9719C72.0932 21.8655 72.2234 21.7818 72.3662 21.7258C72.5089 21.6698 72.6614 21.6426 72.8149 21.6458C73.0426 21.6483 73.267 21.6998 73.4728 21.7968C73.6964 21.898 73.8883 22.0573 74.0284 22.2581Z" fill="white"/>
<path id="Vector_19" d="M88.7043 22.2579L88.2649 22.6368C88.1709 22.5281 88.0639 22.4312 87.9463 22.3483C87.8232 22.2755 87.6808 22.2416 87.538 22.2511C87.3673 22.2433 87.1992 22.2942 87.0618 22.3953C87.0042 22.4374 86.9577 22.4926 86.9261 22.5564C86.8944 22.6201 86.8787 22.6905 86.88 22.7615C86.8813 22.8267 86.8962 22.8908 86.9237 22.9499C86.9513 23.009 86.9908 23.0618 87.0399 23.1049C87.2036 23.2392 87.3861 23.3491 87.5817 23.4311C87.7906 23.5208 87.9902 23.6309 88.1775 23.7596C88.312 23.8525 88.4308 23.966 88.5295 24.096C88.6184 24.214 88.6868 24.3459 88.7319 24.4863C88.7785 24.6258 88.8018 24.772 88.8009 24.919C88.805 25.0879 88.775 25.256 88.7127 25.4132C88.6505 25.5705 88.5573 25.7137 88.4386 25.8346C88.3289 25.9553 88.1946 26.0513 88.0446 26.1162C87.8947 26.1811 87.7325 26.2135 87.569 26.2111C87.2503 26.2155 86.9394 26.1127 86.6868 25.9193C86.4096 25.687 86.2062 25.3797 86.1013 25.0346L86.6442 24.8709C86.8413 25.3531 87.1434 25.5939 87.5506 25.5931C87.6415 25.5959 87.732 25.5803 87.8166 25.5473C87.9013 25.5142 87.9782 25.4644 88.0429 25.4008C88.1076 25.3383 88.1586 25.2631 88.1924 25.1799C88.2263 25.0968 88.2424 25.0075 88.2396 24.9178C88.2374 24.7941 88.2021 24.6732 88.1372 24.5676C88.0729 24.4537 87.9856 24.3543 87.8807 24.2757C87.7279 24.1715 87.5639 24.0844 87.3919 24.0159C87.2134 23.9408 87.0415 23.8512 86.8777 23.7481C86.7606 23.6662 86.6563 23.5675 86.5683 23.4551C86.4873 23.3509 86.4226 23.2352 86.3762 23.1118C86.3355 22.9963 86.3152 22.8747 86.3164 22.7524C86.3147 22.605 86.3446 22.4589 86.4041 22.3239C86.4636 22.1889 86.5513 22.0681 86.6615 21.9695C86.7717 21.863 86.902 21.7793 87.045 21.7233C87.188 21.6673 87.3407 21.6401 87.4943 21.6433C87.7216 21.6459 87.9457 21.6974 88.151 21.7944C88.3742 21.8963 88.5654 22.0565 88.7043 22.2579Z" fill="white"/>
<path id="Vector_20" d="M79.4081 26.0657L77.5263 21.6191L75.6687 26.0657H76.2335L77.5263 22.9594L78.8365 26.0657H79.4081Z" fill="white"/>
<path id="Vector_21" d="M84.5901 26.0657L82.714 21.6191L80.8552 26.0657H81.42L82.714 22.9594L84.023 26.0657H84.5901Z" fill="white"/>
<path id="Vector_22" d="M35.4872 0.74707H33.3236V2.13653H27.9014V3.18493H33.3236V4.55837H28.1809V5.60562H33.3248V7.00538H27.3757V8.05263H41.434V7.00538H35.4872V5.60791H40.6311V4.56066H35.4872V3.18722H40.8934V2.13653H35.4872V0.74707ZM52.0277 14.9622L50.5646 11.5538C50.5528 11.5262 50.5331 11.5026 50.508 11.4861C50.4828 11.4696 50.4533 11.4609 50.4231 11.4611H48.516C48.4908 11.4611 48.466 11.4674 48.4438 11.4794C48.4216 11.4913 48.4027 11.5085 48.3888 11.5295C48.3749 11.5504 48.3664 11.5745 48.3642 11.5995C48.3619 11.6245 48.3658 11.6497 48.3757 11.6728L49.8388 15.0858C49.8505 15.1132 49.8701 15.1366 49.895 15.1531C49.9199 15.1696 49.9492 15.1784 49.9791 15.1785H51.8862C51.9122 15.179 51.9378 15.1729 51.9607 15.1608C51.9836 15.1487 52.003 15.131 52.0172 15.1093C52.0313 15.0877 52.0397 15.0628 52.0416 15.0371C52.0434 15.0114 52.0387 14.9856 52.0277 14.9622ZM50.5646 4.86281L52.0277 8.27467C52.0376 8.29787 52.0416 8.32315 52.0393 8.34825C52.0369 8.37335 52.0283 8.39748 52.0143 8.41847C52.0003 8.43946 51.9812 8.45665 51.9589 8.46851C51.9365 8.48037 51.9116 8.48652 51.8862 8.48641H49.9791C49.9493 8.48656 49.9201 8.47795 49.8951 8.46167C49.8702 8.44538 49.8506 8.42214 49.8388 8.39485L48.3757 4.98185C48.3658 4.95874 48.3619 4.93356 48.3642 4.90855C48.3664 4.88354 48.3749 4.85949 48.3888 4.83853C48.4027 4.81756 48.4216 4.80035 48.4438 4.78841C48.466 4.77647 48.4908 4.77018 48.516 4.77011H50.4231C50.4533 4.76998 50.4828 4.7787 50.508 4.7952C50.5331 4.81169 50.5528 4.83521 50.5646 4.86281ZM38.4687 10.4962V16.711C38.4703 17.1556 38.332 17.5895 38.073 17.9517L37.5979 18.611C37.5817 18.6337 37.5721 18.6604 37.5701 18.6883C37.5681 18.7161 37.5738 18.7439 37.5866 18.7687C37.5994 18.7935 37.6189 18.8143 37.6428 18.8289C37.6667 18.8435 37.6941 18.8512 37.7222 18.8513H38.494C38.7752 18.8515 39.0538 18.7965 39.3137 18.6895C39.5736 18.5826 39.8098 18.4257 40.0088 18.2279C40.2077 18.0301 40.3656 17.7953 40.4734 17.5368C40.5812 17.2783 40.6367 17.0012 40.6369 16.7213V10.0567C40.6366 9.89542 40.572 9.74084 40.4572 9.6269C40.3425 9.51296 40.187 9.44896 40.0249 9.44896H28.7986C28.7178 9.44821 28.6377 9.46336 28.5629 9.49355C28.4881 9.52374 28.42 9.56837 28.3626 9.62486C28.3052 9.68136 28.2595 9.7486 28.2284 9.82272C28.1972 9.89684 28.1811 9.97636 28.1809 10.0567V18.8513H30.3434V15.3639H38.0201V14.3167H30.3422V12.9192H38.0189V11.8719H30.3422V10.4985L38.4687 10.4962ZM44.2486 17.3909V10.4962H43.1674V9.44896H44.2486V2.89765C44.2488 2.7977 44.2687 2.69876 44.3073 2.60647C44.3459 2.51419 44.4024 2.43036 44.4735 2.35979C44.5446 2.28922 44.629 2.23329 44.7219 2.19518C44.8148 2.15707 44.9142 2.13753 45.0147 2.13768H46.4065V3.16776V9.44896H53.9762V3.64274C53.9762 3.52132 53.9278 3.40487 53.8415 3.31902C53.7552 3.23316 53.6382 3.18493 53.5161 3.18493H46.8539V2.13768H47.9409L48.2963 0.74707H50.4588L50.1034 2.13768H55.5314C55.6129 2.13812 55.6935 2.15466 55.7685 2.18635C55.8435 2.21804 55.9115 2.26424 55.9684 2.32227C56.0253 2.3803 56.0701 2.44901 56.1001 2.5244C56.1301 2.59979 56.1448 2.68037 56.1433 2.76145V9.46498L57.2257 9.44896V10.4962H56.1444V16.7213C56.1443 17.0012 56.0887 17.2783 55.981 17.5368C55.8732 17.7953 55.7153 18.0301 55.5163 18.2279C55.3173 18.4257 55.0811 18.5826 54.8212 18.6895C54.5613 18.7965 54.2828 18.8515 54.0015 18.8513H53.2309C53.2029 18.8512 53.1754 18.8435 53.1515 18.8289C53.1276 18.8143 53.1082 18.7935 53.0953 18.7687C53.0825 18.7439 53.0768 18.7161 53.0788 18.6883C53.0808 18.6604 53.0904 18.6337 53.1067 18.611L53.5817 17.9517C53.8419 17.5898 53.9819 17.156 53.982 16.711V10.4962H46.4122V18.8513H44.2498L44.2486 17.3909Z" fill="white"/>
<path id="Vector_23" d="M70.8136 13.4292L72.6954 18.5487H70.5364L68.6592 13.4292H70.8136Z" fill="white"/>
<path id="Vector_24" d="M62.7491 13.4279C62.4465 15.82 61.7 17.2804 60.5797 18.1823C60.1893 18.4679 59.7417 18.6666 59.2673 18.7649C59.2257 18.7739 59.1824 18.7701 59.1431 18.7538C59.1038 18.7376 59.0704 18.7098 59.0475 18.6741C59.0246 18.6385 59.0131 18.5967 59.0148 18.5544C59.0165 18.5121 59.0311 18.4713 59.0568 18.4375C59.5353 17.8012 60.3566 16.3179 60.6096 13.4233L62.7491 13.4279Z" fill="white"/>
<path id="Vector_25" d="M69.998 7.97998H67.5813L69.4435 11.0553H69.4424L70.2901 12.4528H72.6918L69.998 7.97998Z" fill="white"/>
<path id="Vector_26" d="M68.9189 11.0554H63.7233L68.5819 5.25944H65.8881L64.1753 7.28298H61.9289L65.5982 2.89712H69.4308C70.3717 2.89712 71.2482 2.15432 71.7405 1.63813C71.7608 1.62296 71.7742 1.60038 71.7777 1.57538C71.7813 1.55037 71.7747 1.52498 71.7595 1.5048C71.7442 1.48461 71.7215 1.47128 71.6964 1.46774C71.6713 1.4642 71.6457 1.47073 71.6255 1.48591C71.0933 1.72474 70.3694 1.84415 69.4538 1.84415H59.2144V2.89254H62.9043L59.2144 7.28984V8.33023H63.2977L61.0099 11.0554H59.2144V12.1026H64.6113V16.6888C64.6115 17.1334 64.4715 17.567 64.211 17.9283L63.736 18.5875C63.7197 18.6103 63.7101 18.637 63.7081 18.6648C63.7061 18.6927 63.7118 18.7205 63.7246 18.7453C63.7375 18.7701 63.7569 18.7909 63.7808 18.8055C63.8047 18.82 63.8322 18.8278 63.8602 18.8279H64.632C64.9133 18.828 65.1918 18.7731 65.4517 18.6661C65.7116 18.5592 65.9478 18.4023 66.1468 18.2045C66.3458 18.0067 66.5037 17.7719 66.6114 17.5134C66.7192 17.2549 66.7747 16.9778 66.7749 16.6979V12.1026H69.5539L68.9189 11.0554Z" fill="white"/>
<path id="Vector_27" d="M80.686 3.90684H84.1137H88.5974L88.602 2.85984H85.2318V1.16748H83.0762V2.85984H79.706L79.7014 3.90684H80.686Z" fill="white"/>
<path id="Vector_28" d="M79.2943 17.5161H74.446V18.5471H79.2943V17.5161Z" fill="white"/>
<path id="Vector_29" d="M76.8627 1.16748L74.446 7.29761V8.32998H76.8777L74.446 14.4601V15.4925H79.2943V14.4601H76.8627L79.2943 8.32998V7.29761H76.8627L79.2943 1.16748H76.8627Z" fill="white"/>
<path id="Vector_30" d="M88.6021 17.516H87.2632C86.9043 17.516 86.7249 17.2962 86.7249 16.8544V10.7392H86.9089L86.986 11.0894H88.5963L87.2575 5.93902H85.7863L86.787 9.69538H82.1377L83.6952 4.35498H81.5408L79.9833 9.69194V10.7392H81.3372C81.3015 15.5233 80.2053 17.6579 79.6267 18.4533C79.6032 18.4892 79.5901 18.5308 79.5892 18.5736C79.5882 18.6164 79.5993 18.6586 79.6212 18.6955C79.6431 18.7323 79.675 18.7623 79.7132 18.782C79.7514 18.8017 79.7944 18.8104 79.8372 18.807C80.3376 18.736 80.9185 18.5186 81.7144 17.6625C82.9601 16.2684 83.4927 13.8603 83.4927 10.7335H84.5613V16.5088C84.5629 16.8542 84.6255 17.1967 84.7465 17.5206C85.0241 18.2073 85.4961 18.5506 86.1624 18.5506L89.0001 18.5403L88.6021 17.516Z" fill="white"/>
</g>
</g>
<defs>
<linearGradient id="paint0_linear_370_3898" x1="3.42427" y1="7.19454" x2="16.8899" y2="15.5397" gradientUnits="userSpaceOnUse">
<stop stop-color="#2D3D57" stop-opacity="0"/>
<stop offset="0.19" stop-color="#2D3D57" stop-opacity="0.06"/>
<stop offset="0.42" stop-color="#2D3D57" stop-opacity="0.23"/>
<stop offset="0.67" stop-color="#2D3D57" stop-opacity="0.51"/>
<stop offset="0.94" stop-color="#2D3D57" stop-opacity="0.9"/>
<stop offset="1" stop-color="#2D3D57"/>
</linearGradient>
<linearGradient id="paint1_linear_370_3898" x1="3" y1="4" x2="-1.07772" y2="21.4819" gradientUnits="userSpaceOnUse">
<stop stop-color="#2D3D57" stop-opacity="0"/>
<stop offset="0.19" stop-color="#2D3D57" stop-opacity="0.06"/>
<stop offset="0.42" stop-color="#2D3D57" stop-opacity="0.23"/>
<stop offset="0.758626" stop-color="#2D3D57" stop-opacity="0.51"/>
<stop offset="0.94" stop-color="#2D3D57" stop-opacity="0.9"/>
<stop offset="1" stop-color="#2D3D57"/>
</linearGradient>
<linearGradient id="paint2_linear_370_3898" x1="4.42718" y1="11.0986" x2="19.8529" y2="23.0852" gradientUnits="userSpaceOnUse">
<stop stop-color="#2D3D57" stop-opacity="0"/>
<stop offset="1" stop-color="#2D3D57"/>
</linearGradient>
</defs>
</svg>
