<svg width="41" height="23" viewBox="0 0 41 23" fill="none" xmlns="http://www.w3.org/2000/svg">
<path fill-rule="evenodd" clip-rule="evenodd" d="M40.2852 1.44369C40.6143 0.779024 40.1307 7.59943e-08 39.3891 1.40833e-07L2 3.40949e-06C0.895432 3.50605e-06 7.8281e-08 0.895434 1.74846e-07 2L1.57361e-06 18L39.3891 18C40.1307 18 40.6143 17.221 40.2852 16.5563L36.5442 9L40.2852 1.44369Z" fill="#FF4816"/>
<path d="M14.08 9.544C13.864 10 13.608 10.388 13.312 10.708L12.928 10.24C13.456 9.656 13.816 8.868 14.008 7.876L14.56 7.984C14.488 8.344 14.404 8.664 14.308 8.944H15.604V7.78H16.24V8.944H18.136V9.544H16.24V11.188H18.388V11.8H16.24V14.2H15.604V11.8H12.952V11.188H15.604V9.544H14.08ZM13.048 4.588V4.012H17.944C17.936 5.564 17.832 6.5 17.632 6.82C17.44 7.132 17.096 7.288 16.6 7.288C16.456 7.288 16.12 7.28 15.592 7.264L15.436 6.7C15.516 6.708 15.856 6.724 16.456 6.748C16.824 6.732 17.056 6.612 17.152 6.388C17.24 6.148 17.296 5.548 17.32 4.588H15.352C15.232 5.172 15.052 5.684 14.812 6.124C14.508 6.612 14.052 7.06 13.444 7.468L13.06 6.976C13.62 6.64 14.04 6.236 14.32 5.764C14.52 5.404 14.66 5.012 14.74 4.588H13.048ZM8.872 8.944V10.492L8.86 10.672H10.132V8.944H8.872ZM8.824 11.236C8.728 12.42 8.448 13.428 7.984 14.26L7.552 13.852C8.024 12.956 8.272 11.792 8.296 10.36V6.436L8.02 6.748L7.624 6.268C8.368 5.452 8.964 4.416 9.412 3.16L10.012 3.304C9.884 3.656 9.772 3.944 9.676 4.168H11.896V4.636C11.6 5.228 11.304 5.728 11.008 6.136H12.544V13.276C12.544 13.82 12.28 14.092 11.752 14.092H10.996L10.852 13.54C11.204 13.556 11.444 13.564 11.572 13.564C11.844 13.564 11.98 13.404 11.98 13.084V11.236H10.684V14.032H10.132V11.236H8.824ZM10.324 6.136C10.62 5.736 10.912 5.268 11.2 4.732H9.4C9.16 5.196 8.868 5.664 8.524 6.136H10.324ZM11.98 10.672V8.944H10.684V10.672H11.98ZM11.98 8.368V6.712H10.684V8.368H11.98ZM10.132 6.712H8.872V8.368H10.132V6.712ZM23.848 4.132H26.56V3.172H27.184V4.132H29.908V4.732H27.184V5.944H30.16V6.352C29.976 7.104 29.716 7.864 29.38 8.632L28.732 8.452C29.028 7.884 29.272 7.252 29.464 6.556H23.332V5.944H26.56V4.732H23.848V4.132ZM23.296 10.24H26.788C26.876 9.832 26.924 9.408 26.932 8.968V7.036H27.556V8.968C27.54 9.456 27.5 9.88 27.436 10.24H30.436V10.864H27.292C27.22 11.088 27.156 11.268 27.1 11.404C28.356 12.036 29.496 12.784 30.52 13.648L30.148 14.212C29.052 13.236 27.952 12.464 26.848 11.896C26.88 11.84 26.78 11.988 26.548 12.34C25.932 13.124 24.904 13.74 23.464 14.188L23.116 13.636C24.508 13.22 25.496 12.64 26.08 11.896C26.296 11.592 26.476 11.248 26.62 10.864H23.296V10.24ZM23.692 8.236C24.356 8.564 24.984 8.98 25.576 9.484L25.24 10C24.648 9.456 24.028 9.024 23.38 8.704L23.692 8.236ZM24.676 7.036C25.3 7.348 25.892 7.74 26.452 8.212L26.14 8.692C25.54 8.172 24.952 7.772 24.376 7.492L24.676 7.036ZM20.884 3.388C21.684 3.996 22.36 4.612 22.912 5.236L22.468 5.68C21.972 5.104 21.288 4.488 20.416 3.832L20.884 3.388ZM19.528 6.964H21.94V12.364C22.308 12.012 22.672 11.632 23.032 11.224L23.2 11.92C22.6 12.592 21.976 13.176 21.328 13.672L21.076 13.096C21.22 12.952 21.292 12.808 21.292 12.664V7.6H19.528V6.964Z" fill="white"/>
<path fill-rule="evenodd" clip-rule="evenodd" d="M6.67572e-05 18L3.27504 21.9369C3.57424 22.2966 4.15942 22.085 4.15942 21.6171V18H6.67572e-05Z" fill="#C33812"/>
</svg>
